<svg width="260" height="261" viewBox="0 0 260 261" fill="none" xmlns="http://www.w3.org/2000/svg">
<circle cx="130" cy="130" r="129.5" stroke="white"/>
<line x1="130.5" y1="47" x2="130.5" y2="213" stroke="white"/>
<path d="M108.812 95.375V97.375C105.562 97.375 103.146 97.6875 101.562 98.3125C100.021 98.8958 99.0208 100.021 98.5625 101.688C98.1042 103.354 97.875 105.75 97.875 108.875V146.375C97.875 149.542 97.5625 152.75 96.9375 156C96.3125 159.25 95.2708 162.229 93.8125 164.938C92.3542 167.604 90.3542 169.771 87.8125 171.438C85.2708 173.062 82.0833 173.875 78.25 173.875C76.5417 173.875 74.8125 173.562 73.0625 172.938C71.3125 172.354 69.8542 171.417 68.6875 170.125C67.5208 168.833 66.9375 167.167 66.9375 165.125C66.9375 161.208 68.8333 159.25 72.625 159.25C74.2083 159.25 75.4583 159.771 76.375 160.812C77.2917 161.854 78.0417 163.083 78.625 164.5C79.25 165.875 79.8542 167.083 80.4375 168.125C81.0625 169.167 81.875 169.688 82.875 169.688C84.2083 169.688 85.1667 169.188 85.75 168.188C86.3333 167.146 86.6875 165.958 86.8125 164.625C86.9375 163.292 87 162.167 87 161.25V108.875C87 105.792 86.7708 103.417 86.3125 101.75C85.8542 100.083 84.8542 98.9375 83.3125 98.3125C81.7708 97.6875 79.3333 97.375 76 97.375V95.375H108.812Z" fill="white"/>
<path d="M216.75 152.812L218.5 154C215.083 160.208 210.75 165.083 205.5 168.625C200.292 172.125 194.083 173.875 186.875 173.875C179.292 173.875 172.688 172.167 167.062 168.75C161.479 165.292 157.146 160.625 154.062 154.75C151.021 148.833 149.5 142.188 149.5 134.812C149.5 127.229 151.125 120.333 154.375 114.125C157.667 107.875 162.229 102.917 168.062 99.25C173.896 95.5417 180.708 93.6875 188.5 93.6875C192.458 93.6875 195.896 94.1875 198.812 95.1875C201.771 96.1875 204.958 97.4167 208.375 98.875C209.917 98.875 211.021 98.2708 211.688 97.0625C212.354 95.8542 212.833 94.7292 213.125 93.6875H215.125L216.75 119.625H215.125C213.208 113.25 210.208 108 206.125 103.875C202.083 99.75 196.542 97.6875 189.5 97.6875C184.25 97.6875 179.875 98.7917 176.375 101C172.917 103.208 170.146 106.146 168.062 109.812C166.021 113.438 164.562 117.438 163.688 121.812C162.812 126.188 162.375 130.562 162.375 134.938C162.375 141.021 163.354 146.646 165.312 151.812C167.312 156.938 170.417 161.042 174.625 164.125C178.875 167.208 184.375 168.75 191.125 168.75C195.375 168.75 198.979 168.104 201.938 166.812C204.896 165.521 207.521 163.688 209.812 161.312C212.146 158.896 214.458 156.062 216.75 152.812Z" fill="white"/>
</svg>
