<svg width="512" height="512" viewBox="0 0 512 512" fill="none" xmlns="http://www.w3.org/2000/svg">
<path d="M244.08 22.0799C241.2 22.7199 238.72 23.5199 238.48 23.9199C238.16 24.2399 236.4 25.2799 234.4 26.1599C229.68 28.2399 220.24 37.6799 218.16 42.3999C217.28 44.3999 216.24 46.1599 215.92 46.3999C214.8 47.1199 212.8 58.1599 212.8 63.5999V68.7199L208.24 69.9999C205.68 70.7199 202.88 71.5999 202 71.9999C201.12 72.3999 198.64 73.2799 196.4 73.9999C194.24 74.7199 192.08 75.5999 191.6 75.9199C191.2 76.2399 188.88 77.1999 186.64 77.9999C184.32 78.8799 182.4 79.7599 182.4 80.0799C182.4 80.3199 180.8 81.1999 178.8 81.9199C176.8 82.7199 175.2 83.5999 175.2 83.9999C175.2 84.3199 174.24 85.0399 173.04 85.4399C171.76 85.9199 170.08 86.7999 169.2 87.5199C168.32 88.2399 165.6 90.2399 163.2 91.9199C157.36 96.1599 152.72 100.16 147.04 106C138.96 114.16 137.6 115.76 137.6 116.64C137.6 117.12 137.12 117.84 136.48 118.16C135.2 118.88 130.16 126 129.36 128.16C129.12 128.96 128.56 129.6 128.16 129.6C127.76 129.6 126.8 131.2 125.92 133.2C125.12 135.2 124.24 136.8 123.92 136.8C123.6 136.8 123.04 137.6 122.72 138.56C122.4 139.6 121.12 142.56 119.92 145.28C118.64 148 117.6 150.56 117.6 151.12C117.6 151.68 116.88 153.6 116.08 155.52C115.2 157.36 114.08 161.36 113.52 164.48C113.04 167.52 112.32 170.32 112 170.8C110.56 172.72 110.24 182.8 109.76 236.8C109.36 277.12 108.96 294.48 108.32 295.6C107.76 296.48 106.8 301.68 106.08 307.2C105.28 312.64 104.4 317.36 104.08 317.6C103.76 317.84 103.04 320.32 102.48 323.2C101.92 326.08 100.8 329.92 99.92 331.68C99.12 333.52 98 336.72 97.44 338.72C96.88 340.72 96.16 342.4 95.84 342.4C95.52 342.4 95.2 343.04 95.2 343.76C95.2 345.2 85.2 365.6 84.16 366.4C83.84 366.64 82.88 368.24 82 370C81.12 371.76 79.92 373.52 79.44 373.84C78.88 374.16 78.4 374.88 78.4 375.44C78.4 376 77.28 377.68 76 379.2C74.64 380.72 73.36 382.64 73.12 383.36C72.88 384.16 72.4 384.8 72 384.8C71.6 384.8 70.72 385.76 70.08 386.96C69.44 388.24 67.36 390.88 65.44 392.96C60.72 398 54.08 405.52 52.08 408.16C50.88 409.6 50.4 411.44 50.4 414C50.4 418.64 53.28 422.16 57.6 422.88C59.12 423.12 61.12 423.6 62 424C62.88 424.4 68.32 425.36 74 426.08C79.76 426.8 84.8 427.68 85.2 428C85.68 428.32 90.88 429.28 96.8 430C102.72 430.8 108 431.68 108.4 432C108.88 432.32 113.92 433.2 119.6 433.92C125.36 434.64 130.56 435.6 131.2 435.92C131.92 436.32 137.84 437.28 144.4 438.08C151.04 438.88 156.56 439.76 156.8 440.08C157.04 440.32 159.36 440.8 162 441.12C180.72 443.2 180.4 443.12 182.08 446.32C182.88 447.92 183.84 449.36 184.08 449.6C184.32 449.84 185.2 451.2 185.92 452.56C186.64 454 187.6 455.2 188 455.2C188.4 455.2 188.88 455.84 189.12 456.64C189.36 457.36 190.72 459.28 192 460.8C193.36 462.32 194.72 463.92 195.12 464.4C196.48 466.16 204.24 472.88 206.24 474.24C207.44 474.96 209.04 476.16 209.84 476.88C210.64 477.6 213.68 479.44 216.64 480.88C219.6 482.4 222.16 483.84 222.4 484.08C222.64 484.4 224.96 485.28 227.6 486C230.24 486.8 232.56 487.68 232.8 488.08C233.52 489.12 249.84 491.2 257.6 491.2C265.2 491.2 281.68 489.12 282.4 488.08C282.64 487.76 284.96 486.8 287.6 486C290.24 485.2 292.56 484.32 292.8 484C293.04 483.68 294.8 482.64 296.8 481.76C302.4 479.12 305.84 476.96 306.56 475.6C306.96 474.96 307.76 474.4 308.4 474.4C308.96 474.4 312.64 471.28 316.48 467.36C325.28 458.56 326.4 457.36 326.4 456.24C326.4 455.68 326.88 454.96 327.52 454.64C328.08 454.32 329.2 452.72 330 451.2C330.8 449.68 332.24 447.28 333.12 446C334.08 444.64 334.8 443.52 334.8 443.44C334.8 443.36 340 442.72 346.4 441.92C352.8 441.12 358.16 440.32 358.4 440C358.64 439.76 364.24 438.88 370.8 438.08C377.44 437.28 382.96 436.32 383.2 436.08C383.44 435.76 388.64 434.88 394.8 434C400.96 433.2 406.16 432.32 406.4 432C406.64 431.76 411.84 430.88 418 430.08C424.16 429.28 429.6 428.32 430 428C430.48 427.68 435.52 426.8 441.2 426.08C446.96 425.36 452.32 424.4 453.2 424C454.08 423.6 456.16 423.12 457.84 422.8C460.16 422.4 461.28 421.68 462.24 419.92C462.96 418.64 463.84 417.6 464.24 417.6C465.36 417.6 464.8 411.12 463.44 408.96C462.72 407.76 460.64 405.36 458.88 403.52C457.04 401.76 453.36 397.6 450.64 394.32C447.92 391.12 444.96 387.68 444 386.72C443.12 385.76 442.4 384.64 442.4 384.16C442.4 383.6 441.68 382.8 440.8 382.24C439.92 381.68 439.2 380.8 439.2 380.32C439.2 379.84 438.48 378.8 437.52 377.92C436.56 377.12 435.12 374.96 434.24 373.2C433.28 371.44 432.32 369.84 432 369.6C431.68 369.36 430.8 367.92 430 366.4C429.2 364.88 428.32 363.44 428 363.2C427.28 362.72 421.6 351.68 421.6 350.8C421.6 350.4 421.12 349.52 420.56 348.88C419.92 348.16 418.96 346.32 418.4 344.8C417.84 343.28 416.72 340.56 415.92 338.8C415.12 337.04 414.08 334.08 413.6 332.16C413.12 330.32 412.48 328.8 412.08 328.8C411.76 328.8 410.8 325.68 410 321.76C409.2 317.92 408.32 314.64 408 314.4C407.28 313.92 405.84 306 405.12 299.2C404.8 296.32 404.16 293.52 403.68 292.88C403.04 292.08 402.64 274.48 402.24 233.28C401.76 177.2 401.52 171.2 400 167.6C399.68 166.72 398.72 162.88 398 158.96C397.2 155.12 396.32 151.76 395.92 151.52C395.6 151.36 394.64 148.96 393.92 146.4C393.2 143.76 392.32 141.6 392.08 141.6C391.76 141.6 390.88 139.76 390.08 137.6C389.28 135.36 388.4 133.6 388.08 133.6C387.84 133.6 386.88 132 386 130C385.12 128 384.16 126.4 383.84 126.4C383.6 126.4 383.12 125.76 382.88 124.96C382.56 124.16 381.76 122.8 380.96 121.92C380.24 121.12 378.96 119.36 378.16 118.16C374.16 111.92 354.64 92.7999 352.32 92.7999C351.92 92.7999 351.12 92.0799 350.56 91.1999C350 90.3199 349.04 89.5999 348.4 89.5999C347.76 89.5999 346.96 89.1199 346.64 88.5599C345.44 86.6399 327.04 76.7999 324.56 76.7999C323.84 76.7999 323.2 76.4799 323.2 76.1599C323.2 75.7599 321.04 74.7999 318.4 73.9999C315.68 73.1999 313.36 72.2399 313.2 71.9999C313.04 71.6799 309.76 70.7199 306 69.9199L299.2 68.3999V63.4399C299.2 58.1599 297.2 47.1199 296.08 46.3999C295.76 46.1599 294.72 44.3999 293.84 42.3999C291.76 37.6799 282.32 28.2399 277.6 26.1599C275.6 25.2799 273.84 24.2399 273.6 23.9199C272.72 22.6399 261.52 20.7999 255.36 20.8799C252 20.9599 246.88 21.4399 244.08 22.0799ZM260.8 39.8399C260.8 40.1599 262.48 40.9599 264.56 41.4399C268.4 42.4799 269.04 42.8799 273.04 46.9599C277.12 50.9599 277.52 51.5999 278.56 55.4399C279.04 57.5199 279.84 59.1999 280.16 59.1999C280.48 59.1999 280.8 60.4799 280.8 61.9999C280.8 64.3999 280.56 64.7999 278.96 64.7999C277.92 64.7999 276.72 64.3999 276.24 63.9199C275.6 63.2799 269.76 62.9599 257.2 62.9599C244.64 62.9599 238.8 63.2799 238.16 63.9199C237.68 64.3999 235.92 64.7999 234.24 64.7999C231.28 64.7999 231.2 64.7199 231.2 61.9999C231.2 60.4799 231.52 59.1999 231.84 59.1999C232.16 59.1999 232.96 57.5199 233.44 55.4399C234.48 51.5999 234.88 50.9599 238.96 46.9599C242.96 42.8799 243.6 42.4799 247.44 41.4399C249.52 40.9599 251.2 40.1599 251.2 39.8399C251.2 39.5199 253.36 39.1999 256 39.1999C258.64 39.1999 260.8 39.5199 260.8 39.8399ZM280.4 83.7599C281.28 84.2399 285.6 85.1999 289.92 85.9199C294.32 86.6399 298.32 87.5199 298.72 87.9199C299.2 88.3199 301.6 89.0399 304 89.5999C306.4 90.1599 309.12 91.0399 310 91.5199C310.88 92.0799 313.6 93.1199 316 93.9199C318.4 94.7199 320.96 95.8399 321.6 96.3999C322.24 96.9599 324.16 97.8399 325.84 98.4799C327.44 99.0399 328.8 99.7599 328.8 100.08C328.8 100.4 329.6 100.96 330.64 101.28C331.6 101.6 333.84 103.04 335.68 104.48C337.52 106 339.2 107.2 339.52 107.2C340.16 107.2 341.36 108.24 350.08 116.64C357.36 123.68 365.92 133.92 366.8 136.8C367.12 137.68 367.6 138.4 367.84 138.4C368.16 138.4 369.12 140 370 142C370.88 144 371.84 145.6 372.16 145.6C372.4 145.6 373.28 147.52 374.08 149.76C374.8 152.08 375.68 154.16 375.92 154.4C376.64 154.96 378.24 159.92 378.88 163.36C379.12 165.04 379.68 166.4 380 166.4C380.32 166.4 381.04 169.2 381.6 172.56C382.4 177.12 382.72 193.2 382.96 232C383.12 261.28 383.52 285.92 383.92 286.8C384.32 287.68 385.2 293.76 385.92 300.32C386.64 306.88 387.52 312.64 387.84 313.12C388.24 313.6 389.2 317.36 390 321.36C390.8 325.44 391.68 328.8 392 328.8C392.32 328.8 393.28 331.44 394 334.56C394.8 337.76 395.68 340.56 396 340.8C396.32 341.04 397.2 343.28 398 345.84C398.8 348.32 399.68 350.4 400 350.4C400.24 350.4 401.12 352.4 401.92 354.8C402.64 357.2 403.52 359.2 403.92 359.2C404.24 359.2 405.12 360.96 405.92 363.2C406.72 365.36 407.68 367.2 408 367.2C408.4 367.2 409.28 368.8 410.08 370.8C410.8 372.8 411.68 374.4 411.92 374.4C412.16 374.4 412.88 375.44 413.44 376.72C414 378 415.36 380.08 416.4 381.28C417.52 382.56 418.4 384 418.4 384.56C418.4 385.12 418.88 385.84 419.44 386.16C419.92 386.48 421.12 388.08 421.92 389.6C422.8 391.12 423.92 392.8 424.32 393.28C424.8 393.84 426.08 395.44 427.2 396.88C428.32 398.32 429.92 400.24 430.8 401.2C431.68 402.08 433.04 403.84 433.84 405.04C435.04 406.88 435.04 407.2 434 407.2C433.36 407.2 432.8 407.52 432.8 407.84C432.8 408.16 427.6 409.12 421.2 409.92C414.8 410.8 409.6 411.68 409.6 411.92C409.6 412.24 404.4 413.12 398 413.92C391.6 414.8 386.4 415.68 386.4 416C386.4 416.24 381.28 417.2 375.04 417.92C368.72 418.72 363.28 419.68 362.8 420C362.4 420.32 356.4 421.28 349.6 422.08C342.8 422.8 337.04 423.68 336.8 424C336.56 424.32 329.04 425.2 320 426C310.96 426.72 302.88 427.68 302 428.08C297.12 430.24 218.08 430.24 213.2 428.08C212.32 427.68 204.24 426.72 195.2 426C186.16 425.2 178.64 424.4 178.4 424.08C178.16 423.76 172.4 422.88 165.6 422.08C158.8 421.28 152.88 420.32 152.4 420C152 419.68 146.56 418.8 140.4 418C134.24 417.2 128.88 416.32 128.4 416C128 415.68 122.72 414.8 116.8 414C110.88 413.2 105.68 412.32 105.2 412C104.8 411.68 99.44 410.72 93.44 409.92C87.36 409.12 82.4 408.24 82.4 407.84C82.4 407.52 81.68 407.2 80.8 407.2C79.04 407.2 78.96 407.28 82.72 402.8C87.44 397.2 91.2 392.08 91.2 391.28C91.2 390.8 91.52 390.4 92 390.4C92.4 390.4 93.36 389.12 94.08 387.6C94.8 386.08 95.68 384.8 96 384.8C96.32 384.8 97.2 383.36 98 381.6C98.8 379.84 99.76 378.4 100.08 378.4C100.4 378.4 101.12 377.2 101.6 375.68C102.08 374.16 103.12 372.08 103.92 371.04C104.64 370 105.84 367.92 106.4 366.4C107.04 364.88 107.92 363.2 108.4 362.72C108.88 362.24 109.76 360.24 110.4 358.32C111.04 356.4 111.76 354.64 112.08 354.4C112.32 354.16 113.2 352.08 113.92 349.84C114.72 347.52 115.6 345.44 116 345.2C116.4 344.96 117.12 342.72 117.6 340.16C118.16 337.68 119.2 334.16 120 332.4C120.8 330.64 121.84 326.48 122.4 323.2C122.96 319.92 123.76 316.8 124.08 316.4C124.8 315.36 126.16 306.16 126.88 297.36C127.2 293.52 127.68 290.4 128 290.4C128.4 290.4 128.8 265.84 129.04 235.76C129.36 183.52 129.92 171.04 131.92 169.6C132.24 169.36 132.96 167.12 133.52 164.48C134.08 161.92 135.44 158 136.56 155.68C141.28 145.84 143.04 142.48 146.08 138.08C147.76 135.44 149.6 132.8 150 132.08C153.12 127.28 170.96 109.6 172.64 109.6C173.12 109.6 173.92 108.88 174.4 108C174.88 107.12 175.6 106.4 176.08 106.4C176.72 106.4 182.16 103.04 186 100.24C187.76 98.9599 195.68 95.1999 199.12 93.9999C201.04 93.3599 203.04 92.4799 203.52 92.0799C204 91.6799 206.72 90.7199 209.6 89.9999C212.48 89.2799 215.92 88.2399 217.2 87.5999C218.56 87.0399 222.88 86.0799 226.8 85.5199C230.8 84.9599 234.16 84.2399 234.4 83.9199C235.12 82.8799 240.88 82.5599 260 82.7199C272 82.7999 279.36 83.1999 280.4 83.7599ZM223.84 448.24C225.2 449.28 290.4 449.28 291.12 448.24C291.52 447.52 309.6 446.08 309.6 446.72C309.6 447.52 298 458.4 296.72 458.8C295.84 459.12 295.2 459.68 295.2 460.08C295.2 460.56 293.92 461.44 292.4 462.08C290.88 462.72 289.6 463.52 289.6 463.84C289.6 464.16 287.68 465.12 285.44 466C283.12 466.8 281.04 467.68 280.8 468C280.24 468.72 270.16 471.2 267.6 471.2C266.48 471.2 265.6 471.52 265.6 472C265.6 472.48 262.4 472.8 257.6 472.8C252.8 472.8 249.6 472.48 249.6 472C249.6 471.52 248.72 471.2 247.6 471.2C245.04 471.2 234.96 468.72 234.4 468C234.16 467.68 232.56 466.96 230.8 466.4C229.04 465.84 226.88 464.8 226 464.08C225.12 463.28 223.36 462.24 222 461.68C220.72 461.12 219.2 460 218.56 459.12C218 458.32 217.12 457.6 216.72 457.6C216 457.6 205.6 447.52 205.6 446.8C205.6 446.08 222.88 447.44 223.84 448.24Z" fill="white"/>
<path d="M243.6 106.48C238.32 106.88 233.92 107.6 233.76 108C233.6 108.48 232.72 108.8 231.76 108.8C229.44 108.8 217.28 111.36 216.8 112C216.56 112.24 214.16 113.12 211.44 114C208.64 114.8 206.4 115.76 206.4 116.16C206.4 116.48 205.84 116.8 205.2 116.8C203.68 116.8 199.28 118.96 197.76 120.48C197.2 121.12 196.32 121.6 195.92 121.6C195.2 121.6 188.96 125.68 186 128.08C184.24 129.52 169.92 144 168.56 145.68C166.8 148 165.52 150 165.12 151.36C164.8 152.16 164.32 152.8 164 152.8C163.12 152.8 157.68 164 157.12 166.96C156.8 168.4 156.32 169.6 156 169.6C154.96 169.6 153.28 181.84 153.2 189.44V196.88L155.92 199.2C158 201.04 159.36 201.6 162.08 201.6C164 201.6 166 201.12 166.72 200.4C167.36 199.76 168.24 199.2 168.64 199.2C169.92 199.2 171.2 195.2 171.2 191.2C171.2 189.04 171.6 187.04 172 186.8C172.48 186.56 172.8 185.44 172.8 184.32C172.8 181.76 175.28 171.68 176.08 171.2C176.4 170.96 177.28 169.2 178.08 167.2C178.88 165.2 180 163.12 180.56 162.56C181.12 161.92 181.92 160.8 182.4 160C183.84 157.28 190.96 149.68 196.96 144.4C200.08 141.68 207.52 136.8 208.64 136.8C209.12 136.8 209.6 136.48 209.6 136.08C209.6 135.6 211.6 134.64 214 133.92C216.4 133.12 218.4 132.24 218.4 132C218.4 131.68 221.2 130.8 224.64 129.92C228 129.12 230.96 128.24 231.2 127.92C232 126.8 247.12 125.36 257.6 125.36C268 125.36 281.92 126.72 283.6 128C284.08 128.32 287.12 129.2 290.4 130C293.68 130.8 296.64 131.76 296.88 132.16C297.76 133.52 306.56 135.28 309.68 134.8C313.84 134.08 316.8 130.24 316.8 125.36C316.8 122.88 316.4 121.6 315.6 121.28C314.96 121.04 314.4 120.4 314.4 119.76C314.4 118.72 307.84 115.36 302 113.44C300.24 112.88 298.64 112.24 298.4 112C297.92 111.36 285.68 108.8 283.44 108.8C282.48 108.8 281.6 108.48 281.44 108C281.36 107.6 276 106.88 269.6 106.48C256.88 105.52 257.28 105.52 243.6 106.48Z" fill="white"/>
<path d="M29.84 192.08C24.08 197.28 18.08 204.48 17.12 207.36C16.8 208.16 16.32 208.8 15.92 208.8C15.52 208.8 14.64 210 13.92 211.36C13.2 212.8 12.32 214.16 12 214.4C11.68 214.64 10.8 216.48 10 218.56C9.20005 220.72 8.32005 222.4 8.00005 222.4C7.68005 222.4 6.80005 224.64 6.00005 227.36C5.12005 230.16 4.24005 232.56 3.92005 232.8C3.60005 233.04 2.72005 236.24 1.92005 240C-0.239951 249.76 -0.239951 278.96 1.92005 288.72C2.72005 292.48 3.84005 296.24 4.40005 297.12C4.96005 298.08 5.84005 300.48 6.40005 302.56C6.96005 304.72 7.68005 306.4 8.00005 306.4C8.32005 306.4 9.04005 307.84 9.60005 309.6C10.16 311.36 11.2 313.2 11.76 313.76C12.4 314.24 13.44 315.92 14.08 317.52C14.72 319.04 15.52 320.56 15.84 320.8C16.16 321.04 18 323.28 19.92 325.76C21.84 328.32 23.68 330.4 24.08 330.4C24.48 330.4 25.28 331.44 26 332.8C26.72 334.08 27.76 335.2 28.32 335.2C28.96 335.2 29.6 335.76 29.92 336.4C30.24 337.28 31.6 337.6 34.72 337.6C38.4 337.6 39.44 337.28 41.2 335.6C42.32 334.48 43.2 333.04 43.2 332.4C43.2 331.76 43.6 331.2 44 331.2C44.48 331.2 44.8 329.92 44.8 328.4C44.8 326.88 44.48 325.6 44 325.6C43.6 325.6 43.2 324.96 43.2 324.16C43.2 323.44 42 321.52 40.56 319.92C39.2 318.32 37.12 315.84 36 314.48C34.88 313.04 33.44 311.28 32.8 310.56C32.16 309.76 30.88 307.76 30 306C29.12 304.24 28 302.4 27.6 301.92C27.12 301.44 26.24 299.52 25.6 297.68C25.04 295.92 24.32 294.4 24 294.4C23.68 294.4 22.8 291.6 21.92 288.16C21.12 284.8 20.08 281.76 19.6 281.44C18.48 280.64 18.48 248.16 19.6 247.36C20.08 247.04 21.12 244 21.92 240.56C22.8 237.2 23.68 234.4 24 234.4C24.24 234.4 25.12 232.64 25.92 230.48C26.72 228.24 27.76 226.16 28.32 225.68C28.8 225.2 29.76 223.6 30.4 222C30.96 220.48 31.76 219.2 32.16 219.2C32.48 219.2 33.28 218.24 33.92 216.96C34.56 215.76 36.72 213.04 38.72 210.88C40.72 208.8 42.64 206.16 42.88 205.12C43.12 204.08 43.68 203.2 44.08 203.2C44.48 203.2 44.8 201.92 44.8 200.4C44.8 198.88 44.48 197.6 44.16 197.6C43.84 197.6 43.12 196.48 42.64 195.2C42.16 193.84 41.2 192.8 40.48 192.8C39.76 192.8 39.2 192.4 39.2 192C39.2 190.96 31.04 191.04 29.84 192.08Z" fill="white"/>
<path d="M472.8 192C472.8 192.4 472.24 192.8 471.52 192.8C470.8 192.8 469.84 193.84 469.36 195.2C468.88 196.48 468.16 197.6 467.84 197.6C467.52 197.6 467.2 198.88 467.2 200.4C467.2 201.92 467.52 203.2 467.92 203.2C468.32 203.2 468.88 204.08 469.12 205.12C469.36 206.16 471.28 208.8 473.28 210.88C475.28 213.04 477.44 215.76 478.08 216.96C478.72 218.24 479.52 219.2 479.84 219.2C480.24 219.2 481.04 220.48 481.6 222C482.24 223.6 483.2 225.2 483.68 225.68C484.24 226.16 485.28 228.24 486.08 230.48C486.88 232.64 487.76 234.4 488 234.4C488.32 234.4 489.2 237.2 490.08 240.56C490.88 244 491.92 247.04 492.4 247.36C492.88 247.76 493.2 254.08 493.2 264.4C493.2 274.72 492.88 281.04 492.4 281.44C491.92 281.76 490.88 284.8 490.08 288.16C489.2 291.6 488.32 294.4 488 294.4C487.68 294.4 486.96 295.92 486.4 297.68C485.76 299.52 484.88 301.44 484.4 301.92C484 302.4 482.88 304.24 482 306C481.12 307.76 479.84 309.76 479.2 310.56C478.56 311.28 477.12 313.04 476 314.48C474.88 315.84 472.8 318.32 471.44 319.92C470 321.52 468.8 323.44 468.8 324.16C468.8 324.96 468.48 325.6 468 325.6C467.6 325.6 467.2 326.88 467.2 328.4C467.2 329.92 467.6 331.2 468 331.2C468.48 331.2 468.8 331.76 468.8 332.4C468.8 333.04 469.68 334.48 470.8 335.6C472.56 337.28 473.6 337.6 477.28 337.6C480.4 337.6 481.76 337.28 482.08 336.4C482.4 335.76 483.04 335.2 483.68 335.2C484.24 335.2 485.28 334.08 486 332.8C486.72 331.44 487.52 330.4 487.92 330.4C488.32 330.4 490.16 328.32 492.08 325.76C494 323.28 495.84 321.04 496.16 320.8C496.48 320.56 497.28 319.04 497.92 317.52C498.56 315.92 499.6 314.24 500.24 313.76C500.8 313.2 501.84 311.36 502.4 309.6C502.96 307.84 503.68 306.4 504 306.4C504.32 306.4 505.04 304.72 505.6 302.56C506.16 300.48 507.04 298.08 507.6 297.12C508.16 296.24 509.28 292.48 510.08 288.72C512.24 278.96 512.24 249.76 510.08 240C509.28 236.24 508.4 233.04 508.08 232.8C507.76 232.56 506.88 230.16 506 227.36C505.2 224.64 504.32 222.4 504 222.4C503.68 222.4 502.8 220.72 502 218.56C501.2 216.48 500.32 214.64 500 214.4C499.68 214.16 498.8 212.8 498.08 211.36C497.36 210 496.48 208.8 496.08 208.8C495.68 208.8 495.2 208.16 494.88 207.36C493.92 204.4 486.8 196 482.08 192.16C480.64 191.04 472.8 190.88 472.8 192Z" fill="white"/>
<path d="M65.04 209.84C63.04 210.96 56.8 218.56 56.8 219.92C56.8 220.4 56.48 220.8 56 220.8C55.6 220.8 54.64 222 53.92 223.36C53.2 224.8 52.32 226.16 52 226.4C51.68 226.64 50.8 228.48 50 230.56C49.2 232.72 48.32 234.4 48.08 234.4C47.76 234.4 46.88 237.2 46 240.56C45.2 244 44.16 247.28 43.68 247.92C42.48 249.52 42.48 277.44 43.68 278.24C44.16 278.56 45.04 281.28 45.6 284.24C46.16 287.2 47.04 290.16 47.6 290.72C48.16 291.2 48.88 292.8 49.12 294.24C49.44 295.6 50.32 297.52 51.12 298.56C51.92 299.6 53.2 301.6 53.92 303.04C55.44 306 56 306.64 61.76 312.88C66.24 317.68 69.2 318.96 73.6 318C76.48 317.36 79.2 314.72 79.2 312.64C79.2 311.84 79.6 311.2 80 311.2C80.48 311.2 80.8 310.08 80.8 308.8C80.8 307.44 80.48 306.4 80 306.4C79.6 306.4 79.2 305.76 79.2 304.96C79.2 304.16 77.36 301.36 75.12 298.8C72.88 296.16 70.48 292.8 69.76 291.36C69.04 290 68.24 288.8 68 288.8C67.68 288.8 66.8 286.72 66 284.16C65.2 281.68 64.24 279.2 63.84 278.64C62.16 276.48 61.28 263.36 62.24 255.44C62.8 251.2 63.52 247.44 63.92 247.2C64.24 246.96 65.2 244.8 66 242.4C66.8 240 67.68 237.84 68 237.6C68.32 237.36 69.2 236 69.92 234.56C71.28 231.84 72.48 230.32 75.84 226.8C78 224.64 80.8 219.44 80.8 217.68C80.8 215.44 78 210.48 76.16 209.68C73.68 208.48 67.2 208.64 65.04 209.84Z" fill="white"/>
<path d="M435.6 209.68C434 210.48 431.2 215.52 431.2 217.68C431.2 219.44 434 224.64 436.16 226.8C439.52 230.32 440.72 231.84 442.08 234.56C442.8 236 443.68 237.36 444 237.6C444.32 237.84 445.2 240 446 242.4C446.8 244.8 447.76 246.96 448.08 247.2C448.48 247.44 449.2 251.2 449.76 255.44C450.72 263.36 449.84 276.48 448.16 278.64C447.76 279.2 446.8 281.68 446 284.16C445.2 286.72 444.32 288.8 444 288.8C443.76 288.8 442.96 290 442.24 291.36C441.52 292.8 439.12 296.16 436.88 298.8C434.64 301.36 432.8 304.16 432.8 304.96C432.8 305.76 432.48 306.4 432 306.4C431.6 306.4 431.2 307.44 431.2 308.8C431.2 310.08 431.6 311.2 432 311.2C432.48 311.2 432.8 311.84 432.8 312.64C432.8 314.72 435.52 317.36 438.4 318C442.8 318.96 445.76 317.68 450.24 312.88C456 306.64 456.56 306 458.08 303.04C458.8 301.6 460.08 299.6 460.88 298.56C461.68 297.52 462.56 295.6 462.88 294.24C463.12 292.8 463.84 291.2 464.4 290.72C464.96 290.16 465.84 287.2 466.4 284.24C466.96 281.28 467.84 278.56 468.32 278.24C469.52 277.44 469.52 249.52 468.32 247.92C467.84 247.28 466.8 244 466 240.56C465.12 237.2 464.24 234.4 463.92 234.4C463.68 234.4 462.8 232.72 462 230.56C461.2 228.48 460.32 226.64 460 226.4C459.68 226.16 458.8 224.8 458.08 223.36C457.36 222 456.4 220.8 456 220.8C455.52 220.8 455.2 220.4 455.2 219.92C455.2 218.56 448.96 210.96 446.96 209.84C444.88 208.64 437.84 208.56 435.6 209.68Z" fill="white"/>
</svg>
