<svg width="436" height="436" viewBox="0 0 436 436" fill="none" xmlns="http://www.w3.org/2000/svg">
<path d="M211.528 0.953786C208.735 2.24816 207.645 3.67879 204.375 10.5594L201.582 16.35H198.584C196.881 16.35 195.519 16.6225 195.519 17.0313C195.519 17.3719 194.361 17.7125 192.93 17.7125C191.568 17.7125 189.319 17.985 188.093 18.3938C185.573 19.075 181.213 23.2307 181.213 24.8657C181.213 25.4107 180.94 25.8875 180.531 25.8875C180.123 25.8875 179.85 27.7269 179.85 29.975C179.85 34.9482 181.213 37.4007 187.276 43.055C190.75 46.325 191.431 47.3469 191.431 49.2544C191.431 50.4807 191.091 51.8432 190.614 52.32C189.388 53.5463 189.456 64.7869 190.75 66.3538C192.044 67.9207 194.361 70.2369 195.928 71.5313C197.426 72.7575 207.509 72.9619 208.326 71.8719C208.599 71.4632 210.847 70.1007 213.436 68.8744L218 66.5582L222.633 68.8744C225.153 70.1007 227.401 71.4632 227.674 71.8719C228.491 72.9619 238.574 72.7575 240.073 71.5313C241.639 70.2369 243.956 67.9207 245.25 66.3538C246.544 64.7869 246.613 53.5463 245.386 52.32C244.909 51.8432 244.569 50.4807 244.569 49.3225C244.569 47.415 245.386 46.2569 249.678 42.0332C252.471 39.3082 254.788 36.515 254.788 35.9019C254.788 35.2888 255.128 34.7438 255.469 34.7438C255.878 34.7438 256.15 32.8363 256.15 30.3157C256.15 27.795 255.878 25.8875 255.469 25.8875C255.128 25.8875 254.788 25.4107 254.788 24.8657C254.788 23.2307 250.428 19.075 247.907 18.3938C246.681 17.985 244.433 17.7125 243.07 17.7125C241.639 17.7125 240.481 17.3719 240.481 17.0313C240.481 16.6225 239.119 16.35 237.416 16.35H234.418L231.625 10.5594C228.628 4.15566 226.788 1.77129 223.927 0.749411C221.27 -0.272464 213.981 -0.136214 211.528 0.953786ZM219.635 19.7563C220.316 21.5957 221.134 23.1625 221.474 23.1625C221.815 23.1625 222.088 23.5713 222.088 23.98C222.156 26.5007 227.538 29.975 231.284 29.975C232.238 29.975 232.988 30.2475 232.988 30.6563C232.988 30.9969 234.418 31.3375 236.258 31.3375H239.459L236.053 34.6757C231.421 39.24 231.148 39.6488 230.263 42.9869C229.513 45.6438 229.649 48.0282 230.739 54.3638L231.08 56.6119L229.173 55.7263C228.083 55.2494 227.061 54.6363 226.856 54.3638C226.107 53.41 220.521 51.775 218 51.775C215.479 51.775 209.893 53.41 209.144 54.3638C208.939 54.6363 207.918 55.2494 206.828 55.7263L204.92 56.6119L205.261 54.3638C206.351 48.0282 206.487 45.6438 205.738 42.9869C204.852 39.6488 204.579 39.24 199.947 34.6757L196.541 31.3375H199.811C201.582 31.3375 203.013 30.9969 203.013 30.6563C203.013 30.2475 203.762 29.975 204.716 29.975C208.463 29.975 213.844 26.5007 213.913 23.98C213.913 23.5713 214.185 23.1625 214.526 23.1625C214.866 23.1625 215.684 21.5957 216.365 19.7563C217.046 17.8488 217.796 16.35 218 16.35C218.204 16.35 218.954 17.8488 219.635 19.7563Z" fill="#465841"/>
<path d="M150.352 32.4956C148.717 32.9044 147.15 36.1744 147.15 39.1719C147.15 41.8288 148.785 45.6438 150.284 46.5294C150.829 46.8019 151.238 47.3469 151.238 47.6875C151.238 48.2325 153.894 52.1156 156.551 55.5219C156.824 55.8625 157.709 57.225 158.391 58.3831C159.14 59.6094 159.958 60.6313 160.162 60.6313C160.434 60.6313 160.843 61.1763 161.048 61.7894C161.252 62.4706 162.342 64.1056 163.5 65.4C164.658 66.6944 165.748 68.3294 165.953 68.9425C166.157 69.6238 166.566 70.1688 166.838 70.1688C167.111 70.1688 167.724 70.9181 168.133 71.8038C168.882 73.5069 172.356 75.6188 174.4 75.6188C176.308 75.6188 179.85 73.575 181.008 71.8038C182.371 69.6919 181.894 64.1056 180.259 63.22C179.646 62.8794 179.169 62.3344 179.169 61.9938C179.169 61.4488 176.376 57.2931 173.855 54.1594C173.514 53.7506 172.697 52.5244 171.948 51.4344C171.266 50.2763 170.313 49.1181 169.836 48.8456C169.359 48.5731 168.95 48.0281 168.95 47.6875C168.95 47.0063 164.999 41.42 163.159 39.4444C162.614 38.8313 162.138 38.0819 162.138 37.6731C162.138 37.2644 161.116 35.8338 159.821 34.4713C157.778 32.3594 157.096 32.0188 154.508 32.0869C152.873 32.155 151.033 32.2913 150.352 32.4956Z" fill="#465841"/>
<path d="M294.3 37.4688C294.3 37.8094 293.755 38.15 293.142 38.15C292.461 38.15 290.962 39.0356 289.736 40.0575C288.578 41.0794 286.602 42.6463 285.376 43.6C284.218 44.5538 282.31 46.0525 281.22 47.0063C280.13 47.96 278.427 49.3906 277.405 50.2081C276.383 51.0256 274.067 52.9331 272.159 54.5C270.32 56.0669 267.936 57.9744 266.914 58.7919C265.892 59.6094 263.303 61.8575 261.259 63.765C257.921 66.8306 257.513 67.5119 257.513 69.8963C257.513 71.8719 258.058 73.2344 259.284 74.8013C260.919 76.7088 261.532 76.9813 264.666 76.9813C267.663 76.9813 268.617 76.6406 271.342 74.5288C273.113 73.1663 274.544 71.7356 274.544 71.4631C274.544 71.1225 274.953 70.85 275.498 70.85C276.043 70.85 277.064 70.1688 277.746 69.2831C278.427 68.4656 279.858 67.2394 280.879 66.5581C281.969 65.8769 283.4 64.7869 284.081 64.1738C284.831 63.5606 286.329 62.2663 287.488 61.3125C288.646 60.3588 290.417 58.86 291.575 57.9063C292.665 56.9525 294.504 55.4538 295.731 54.5C300.772 50.5488 302.475 48.8456 302.475 47.6194C302.475 46.9381 302.816 46.325 303.156 46.325C304.11 46.325 303.974 43.8725 303.02 42.0331C301.453 39.3081 300.227 38.15 298.933 38.15C298.251 38.15 297.706 37.8094 297.706 37.4688C297.706 37.06 296.957 36.7875 296.003 36.7875C295.049 36.7875 294.3 37.06 294.3 37.4688Z" fill="#465841"/>
<path d="M115.472 74.5969C114.109 75.8913 113.769 76.9131 113.769 79.57C113.769 84.3388 115.472 86.2463 120.581 87.3363C122.829 87.745 124.669 88.3581 124.669 88.6306C124.669 88.835 127.462 89.5844 130.8 90.3338C134.206 91.015 136.931 91.7644 136.931 92.0369C136.931 92.3094 139.316 93.0588 142.245 93.6719C145.106 94.285 147.831 95.1025 148.172 95.375C149.33 96.1925 155.121 97.4188 158.05 97.4188C162.001 97.4188 164.863 94.4894 164.863 90.3338C164.863 86.3825 162.819 84.1344 158.391 83.0444C156.551 82.6356 154.712 82.0225 154.303 81.75C153.963 81.4775 151.169 80.66 148.172 80.0469C145.174 79.3656 142.449 78.6163 142.041 78.3438C141.7 78.0713 139.043 77.3219 136.25 76.6406C133.457 75.9594 130.868 75.21 130.459 74.9375C129.233 74.0519 123.443 72.8938 120.241 72.8938C117.856 72.8938 116.698 73.3025 115.472 74.5969Z" fill="#465841"/>
<path d="M294.641 80.5237C292.801 80.8644 290.962 81.4094 290.553 81.75C290.213 82.0225 287.283 82.84 284.081 83.4531C280.879 84.0662 278.018 84.8837 277.609 85.1562C277.269 85.4287 274.476 86.1781 271.546 86.7912C268.549 87.4044 265.824 88.1537 265.415 88.4262C265.006 88.7669 262.009 89.5844 258.739 90.2656C255.401 90.8787 252.744 91.6962 252.744 91.9006C252.744 92.1731 249.814 92.9225 246.272 93.6719C242.729 94.3531 239.8 95.1025 239.8 95.375C239.8 95.6475 237.62 96.1925 235.031 96.6694C232.374 97.1462 229.786 97.9637 229.241 98.5087C228.764 99.0537 228.014 99.4625 227.742 99.4625C226.72 99.4625 222.837 103.55 222.36 105.117C222.088 105.934 221.543 106.82 221.134 107.092C220.18 107.706 220.248 117.992 221.27 120.036C221.679 120.922 222.496 125.418 223.109 130.119C223.723 134.819 224.472 139.247 224.813 139.997C225.153 140.746 225.903 145.038 226.516 149.534C227.129 154.031 227.878 158.322 228.219 159.072C228.559 159.821 229.309 164.249 229.922 168.95C230.535 173.651 231.284 178.079 231.625 178.828C231.966 179.577 232.783 184.006 233.396 188.706C234.009 193.407 234.759 197.494 235.031 197.903C235.304 198.244 236.053 202.74 236.734 207.781C237.416 212.822 238.165 217.114 238.438 217.319C238.642 217.523 239.391 221.815 240.073 226.856C240.754 231.897 241.503 236.189 241.776 236.394C241.98 236.598 242.729 238.846 243.411 241.503C244.092 244.092 244.909 246.408 245.182 246.612C245.523 246.817 246.34 248.316 247.021 250.019C247.703 251.722 248.656 253.357 249.133 253.629C249.61 253.902 250.019 254.515 250.019 254.992C250.019 257.24 261.941 269.366 265.892 271.206C266.914 271.682 267.731 272.227 267.731 272.5C267.731 272.772 269.026 273.522 270.661 274.271C272.228 274.952 273.658 275.702 273.863 275.974C274.339 276.587 280.743 278.631 282.174 278.631C282.855 278.631 283.4 278.904 283.4 279.244C283.4 280.198 292.529 281.356 300.295 281.356H307.789L308.606 284.899C309.083 286.874 309.696 288.782 309.969 289.191C310.241 289.531 311.059 292.461 311.672 295.662C312.285 298.864 313.103 301.726 313.375 302.134C313.648 302.475 314.465 305.404 315.078 308.606C315.759 311.808 316.509 314.533 316.781 314.737C317.054 314.942 317.803 317.939 318.484 321.346C319.098 324.82 319.847 327.681 320.119 327.681C320.392 327.681 321.141 330.406 321.823 333.812C322.504 337.151 323.253 339.944 323.526 339.944C323.798 339.944 324.548 342.805 325.229 346.279C325.91 349.686 326.728 352.683 326.932 352.887C327.681 353.432 329.725 364.06 329.18 364.537C328.908 364.741 326.114 365.491 322.913 366.172C319.711 366.785 316.849 367.602 316.441 367.875C316.1 368.147 313.648 368.897 311.127 369.51C308.538 370.123 305.609 371.145 304.655 371.826C301.794 373.597 297.979 377.617 297.434 379.252C297.161 380.137 296.684 380.819 296.344 380.819C295.322 380.819 294.096 388.517 294.573 392.672C294.777 394.852 295.663 398.054 296.48 399.689C298.115 402.959 301.93 407.387 303.088 407.387C303.429 407.387 304.178 407.796 304.655 408.273C306.29 409.908 310.105 410.794 315.487 410.794C320.46 410.794 327.613 409.636 328.363 408.75C328.567 408.477 331.292 407.728 334.494 407.115C337.696 406.434 340.625 405.616 340.966 405.344C341.374 405.071 344.236 404.254 347.438 403.572C350.639 402.959 353.364 402.21 353.569 401.937C353.773 401.665 356.703 400.916 360.041 400.234C363.447 399.553 366.308 398.736 366.513 398.531C366.717 398.259 368.829 397.714 371.281 397.237C378.503 395.806 383.135 392.877 388.04 386.814C389.539 384.906 390.356 381.091 390.356 375.777C390.356 370.123 389.403 365.15 388.313 365.15C387.972 365.15 387.563 364.537 387.291 363.856C386.746 362.152 382.863 358.337 381.704 358.337C381.228 358.337 380.819 358.065 380.819 357.724C380.819 356.566 374.483 354.931 370.191 354.931C365.968 354.931 355.613 356.771 354.931 357.656C354.386 358.337 344.917 360.245 344.236 359.768C343.895 359.564 343.009 356.771 342.396 353.569C341.715 350.367 340.898 347.437 340.625 347.097C340.284 346.688 339.535 343.827 338.854 340.625C338.173 337.423 337.423 334.698 337.219 334.494C336.946 334.289 336.197 331.36 335.516 328.022C334.834 324.616 334.017 321.754 333.813 321.55C333.54 321.346 332.791 318.621 332.178 315.419C331.496 312.217 330.679 309.287 330.406 308.947C330.134 308.538 329.316 305.677 328.703 302.475C328.09 299.273 327.273 296.344 327 296.003C326.728 295.594 325.91 292.869 325.297 289.872C324.616 286.874 323.866 284.081 323.526 283.741C323.253 283.332 322.776 281.765 322.504 280.198L322.095 277.473L326.728 275.157C329.316 273.862 331.701 272.432 331.973 271.955C332.246 271.546 332.927 271.137 333.472 271.137C334.289 271.137 344.849 261.055 347.438 257.853C350.571 253.902 355.476 243.274 356.43 238.574C356.839 236.462 357.52 234.486 357.929 234.214C359.087 233.464 358.951 210.37 357.861 209.961C357.384 209.825 356.975 209.212 356.975 208.531C356.975 206.691 354.931 199.334 354.318 198.925C353.978 198.721 353.501 197.562 353.228 196.268C352.479 192.93 349.141 190.069 345.871 190.069C344.44 190.069 342.941 190.409 342.464 190.75C341.988 191.159 341.034 191.908 340.284 192.453C338.377 193.747 338.445 200.287 340.489 203.966C341.306 205.465 342.328 208.871 342.805 211.664C343.214 214.389 343.895 216.637 344.168 216.637C344.985 216.637 344.849 227.401 344.031 227.878C343.691 228.082 343.35 228.968 343.35 229.786C343.35 232.374 341.374 239.187 340.284 240.277C339.739 240.822 339.263 241.639 339.263 242.116C339.263 243.751 334.698 249.882 330.406 254.038C324.684 259.556 324.343 259.829 321.754 260.851C320.528 261.396 319.506 262.009 319.506 262.281C319.506 262.554 317.599 263.303 315.283 263.984C312.898 264.597 310.786 265.483 310.514 265.96C309.833 266.982 290.144 266.982 288.782 265.96C288.237 265.551 286.466 264.802 284.763 264.325C281.288 263.235 275.293 260.101 272.704 257.921C266.641 252.812 261.804 247.157 260.238 243.206C259.693 241.912 258.943 240.481 258.466 240.004C258.058 239.596 257.308 237.279 256.831 234.895C256.354 232.511 255.741 230.262 255.469 229.922C255.196 229.513 254.447 225.221 253.766 220.384C253.084 215.479 252.335 211.187 252.063 210.847C251.381 209.961 249.814 197.562 250.291 197.086C250.496 196.881 254.106 196.472 258.33 196.132C266.982 195.519 270.456 194.974 270.456 194.088C270.456 193.747 270.865 193.475 271.342 193.475C273.181 193.407 281.152 188.911 284.49 185.981C286.738 184.006 291.575 178.147 291.575 177.466C291.575 176.103 299.341 169.631 303.224 167.724C307.176 165.816 308.811 165.407 316.168 164.862C320.801 164.522 324.82 164.181 325.093 164.181C325.706 164.181 328.022 169.154 328.908 172.492C330.543 178.419 337.287 180.599 341.374 176.512C342.873 174.945 343.35 173.855 343.35 171.811C343.35 169.222 341.511 162.206 340.625 161.456C340.421 161.252 339.603 159.14 338.922 156.687C338.241 154.235 337.423 152.123 337.219 151.919C337.014 151.714 336.401 150.216 335.924 148.512C335.448 146.809 334.494 144.221 333.813 142.722C333.131 141.223 332.246 138.634 331.769 136.931C331.292 135.228 330.747 133.729 330.474 133.525C330.202 133.321 329.384 131.209 328.703 128.756C328.022 126.304 327.204 124.192 327 123.987C326.728 123.783 326.046 121.807 325.365 119.559C324.616 117.311 323.866 115.131 323.594 114.791C323.253 114.382 322.504 112.27 321.891 110.022C321.209 107.774 320.46 105.594 320.188 105.253C319.847 104.844 319.098 102.732 318.484 100.484C317.803 98.2362 317.054 96.2606 316.849 96.0562C316.577 95.8519 315.828 93.9444 315.146 91.7644C314.533 89.5844 313.375 87.2 312.762 86.5869C312.081 85.9056 311.399 85.0881 311.263 84.7475C310.718 83.4531 306.494 81.0687 303.701 80.3875C300.295 79.6381 299.205 79.6381 294.641 80.5237ZM301.726 98.1C302.203 100.007 302.884 101.506 303.224 101.506C303.565 101.506 303.838 101.915 303.838 102.46C303.838 103.686 306.018 110.567 306.563 111.044C306.767 111.248 307.584 113.36 308.266 115.812C308.947 118.265 309.764 120.377 309.969 120.581C310.173 120.786 310.786 122.284 311.263 123.987C311.74 125.691 312.694 128.279 313.375 129.846C314.056 131.345 315.01 134.002 315.487 135.773C315.896 137.544 316.441 138.975 316.713 138.975C316.986 138.975 317.735 141.087 318.484 143.744C319.234 146.332 320.051 148.512 320.392 148.512C320.733 148.512 320.664 148.921 320.256 149.398C319.779 150.011 317.122 150.488 312.694 150.829C305.404 151.306 299.069 152.396 299.069 153.213C299.069 153.486 297.911 154.099 296.48 154.507C295.049 154.984 292.938 156.074 291.848 157.028C290.758 157.982 289.599 158.731 289.327 158.731C288.646 158.731 280.675 166.566 280.675 167.247C280.675 167.587 280.198 168.269 279.721 168.882C279.176 169.495 277.405 171.402 275.838 173.174C274.271 175.013 272.568 176.444 272.091 176.444C271.546 176.444 271.138 176.716 271.138 177.057C271.138 177.397 269.707 178.215 267.936 178.896C266.096 179.577 264.461 180.395 264.257 180.736C263.576 181.689 247.771 182.643 247.226 181.757C246.953 181.349 246.544 178.896 246.272 176.307C245.999 173.787 245.591 171.675 245.318 171.675C245.046 171.675 244.296 167.451 243.615 162.274C242.934 157.164 242.116 152.6 241.844 152.259C241.571 151.851 240.822 147.559 240.141 142.722C239.528 137.817 238.778 133.525 238.506 133.184C237.688 131.822 235.236 112.747 235.849 111.997C236.189 111.521 238.438 110.839 240.822 110.362C243.274 109.886 245.386 109.272 245.591 109C245.727 108.727 248.588 107.91 251.858 107.229C255.196 106.616 257.989 105.798 258.194 105.594C258.398 105.321 261.328 104.572 264.666 103.891C268.072 103.209 270.933 102.392 271.138 102.187C271.342 101.915 274.067 101.166 277.269 100.552C280.471 99.8712 283.4 99.0537 283.741 98.7812C284.149 98.5087 286.943 97.7594 290.076 97.0781C293.142 96.465 296.48 95.5794 297.434 95.0344C299.954 93.74 300.772 94.285 301.726 98.1ZM373.938 371.009C375.641 372.439 376.05 373.257 376.05 375.505C376.05 379.524 373.393 381.704 366.717 383.203C363.856 383.884 360.994 384.634 360.449 384.974C359.836 385.247 356.907 385.996 353.909 386.677C350.912 387.291 348.323 387.972 348.119 388.244C347.914 388.517 345.053 389.334 341.647 390.016C338.309 390.697 335.379 391.446 335.175 391.719C334.971 391.923 332.109 392.741 328.703 393.422C325.365 394.103 322.368 394.921 322.163 395.261C321.959 395.602 319.779 396.011 317.326 396.283C313.307 396.624 312.762 396.556 311.399 395.057C306.494 389.947 309.288 384.497 317.667 382.862C319.983 382.454 322.231 381.841 322.572 381.5C322.981 381.227 325.842 380.41 329.044 379.797C332.246 379.116 334.971 378.434 335.175 378.162C335.379 377.889 338.104 377.14 341.238 376.459C344.372 375.777 347.438 375.028 348.051 374.687C348.664 374.347 351.593 373.597 354.591 372.916C357.588 372.303 360.177 371.554 360.381 371.281C360.79 370.668 366.717 369.442 369.714 369.306C371.145 369.237 372.576 369.851 373.938 371.009Z" fill="#465841"/>
<path d="M134.206 105.526C134.206 105.866 132.912 106.343 131.277 106.547C129.301 106.888 127.666 107.706 126.031 109.272C122.421 112.815 121.944 113.496 120.786 117.379C120.241 119.287 119.491 121.194 119.219 121.603C118.946 121.944 118.197 124.124 117.516 126.372C116.903 128.62 116.153 130.596 115.881 130.8C114.995 131.481 113.769 136.795 113.769 140.133C113.769 143.267 113.973 143.744 116.085 145.379C117.448 146.401 119.355 147.15 120.581 147.15C123.511 147.15 127.189 144.221 127.734 141.496C128.007 140.269 128.756 138.089 129.438 136.591C130.119 135.092 131.073 132.503 131.549 130.8C132.026 129.097 132.639 127.598 132.844 127.394C133.048 127.189 133.661 125.691 134.206 123.987C134.751 122.284 135.433 120.717 135.773 120.513C136.318 120.104 144.902 121.944 146.128 122.761C146.537 122.966 149.398 123.715 152.6 124.396C155.802 125.077 158.527 125.827 158.731 126.031C158.936 126.304 161.865 127.053 165.203 127.734C168.609 128.416 171.471 129.233 171.675 129.506C171.879 129.778 174.604 130.459 177.806 131.141C181.008 131.754 183.938 132.571 184.278 132.844C184.687 133.116 187.276 133.866 190.069 134.479C194.701 135.501 196.745 136.182 199.606 137.612C200.151 137.885 200.56 138.702 200.492 139.384C199.266 149.466 198.108 157.301 197.563 158.391C197.222 159.14 196.473 163.568 195.859 168.269C195.246 172.969 194.497 177.397 194.156 178.147C193.816 178.896 193.066 183.052 192.453 187.344C191.84 191.636 191.227 195.314 191.091 195.451C190.886 195.587 187.957 194.292 184.483 192.589C176.921 188.842 173.242 188.025 163.568 188.025C156.688 188.025 148.717 189.387 147.831 190.682C147.627 190.954 145.788 191.772 143.744 192.453C141.7 193.066 139.724 193.884 139.384 194.224C138.566 194.974 127.871 195.042 126.985 194.292C126.644 194.02 124.601 193.202 122.489 192.453C120.309 191.772 118.538 190.954 118.538 190.682C118.538 190.409 116.834 189.592 114.791 188.979C111.112 187.821 110.976 187.684 111.453 185.709C111.725 184.551 112.134 183.461 112.406 183.256C112.679 183.052 113.292 181.553 113.769 179.85C114.246 178.147 115.199 175.422 116.017 173.719C116.766 172.016 117.584 168.882 117.72 166.702C117.993 163.091 117.856 162.614 116.085 160.775C114.45 159.14 113.496 158.799 110.976 158.731C107.024 158.731 104.708 160.639 103.482 164.862C103.005 166.566 102.392 168.064 102.188 168.269C101.983 168.473 101.166 170.585 100.484 173.037C99.8032 175.49 98.9857 177.602 98.7132 177.806C98.4407 178.011 97.6913 179.986 97.0782 182.234C96.3969 184.482 95.6475 186.594 95.375 187.003C95.1025 187.344 94.285 189.524 93.6038 191.772C92.9225 194.02 92.1732 195.996 91.9007 196.2C91.6963 196.404 90.9469 198.584 90.1975 201.105C89.5163 203.694 88.6988 205.737 88.4944 205.737C88.2219 205.737 87.4725 207.781 86.7913 210.302C86.11 212.891 85.3607 215.071 85.0882 215.275C84.8157 215.479 84.0663 217.455 83.4532 219.703C82.7719 221.951 81.9544 223.995 81.6819 224.199C81.3413 224.404 80.5238 226.992 79.9107 229.99C79.2975 232.919 78.4119 235.576 78.0713 235.849C76.9132 236.598 77.0494 259.692 78.2075 260.033C78.6163 260.237 79.025 260.851 79.025 261.532C79.025 263.303 81.0688 270.729 81.6819 271.137C81.9544 271.342 82.7719 272.909 83.4532 274.748C84.1344 276.519 84.9519 277.95 85.2244 277.95C85.565 277.95 85.8375 278.291 85.8375 278.699C85.8375 281.833 102.324 298.387 105.458 298.387C105.866 298.387 106.684 298.864 107.229 299.409C107.774 300.022 109.409 300.908 110.839 301.385C113.292 302.271 113.428 302.407 113.292 305.2C113.224 306.767 112.883 308.402 112.543 308.811C112.134 309.287 111.316 312.217 110.703 315.419C110.09 318.621 109.273 321.482 109 321.891C108.728 322.231 107.91 325.161 107.229 328.362C106.616 331.564 105.866 334.289 105.594 334.494C105.389 334.698 104.64 337.423 103.959 340.625C103.278 343.827 102.528 346.688 102.188 347.097C101.915 347.437 101.098 350.367 100.484 353.569C99.8032 356.771 99.0538 359.632 98.7813 360.041C98.5088 360.381 97.6913 363.311 97.01 366.512C96.3969 369.714 95.6475 372.439 95.375 372.644C95.1025 372.848 94.3532 375.709 93.6719 379.116C92.9907 382.454 92.105 385.451 91.7644 385.656C91.0832 386.132 88.6307 385.656 87.5407 384.906C87.2 384.566 84.2707 383.816 81.0688 383.203C77.8669 382.59 74.8694 381.704 74.3244 381.227C73.0982 380.274 59.405 380.206 58.7238 381.227C58.4513 381.568 57.1569 382.317 55.8626 382.862C52.1157 384.361 49.1863 387.563 46.6657 392.877C44.8263 396.76 45.6438 411.475 47.6876 411.475C48.0963 411.475 48.3688 411.884 48.3688 412.361C48.3688 413.519 53.5463 418.764 55.9307 420.059C56.9526 420.536 58.9963 421.149 60.5632 421.421C62.13 421.694 63.3563 422.102 63.3563 422.307C63.3563 422.579 66.2175 423.397 69.6919 424.078C73.0982 424.759 76.0957 425.577 76.3 425.849C76.5044 426.122 79.2294 426.803 82.4313 427.484C85.6332 428.097 88.5625 428.915 88.9032 429.187C89.3119 429.46 92.0369 430.277 95.0344 430.891C98.0319 431.572 100.825 432.321 101.166 432.594C102.733 433.752 115.881 436 121.058 436C125.146 436 127.462 435.659 129.914 434.569C133.321 433.139 138.975 427.825 138.975 426.054C138.975 425.577 139.248 425.1 139.588 425.1C140.406 425.1 141.7 419.037 141.7 415.358C141.7 412.429 140.542 407.319 139.724 406.706C139.52 406.502 138.771 405.276 138.089 403.981C136.386 400.711 131.141 396.692 127.939 396.147C126.508 395.874 125.35 395.466 125.35 395.193C125.35 394.921 122.693 394.103 119.423 393.422C116.085 392.741 113.156 391.991 112.747 391.651C112.406 391.378 110.908 390.969 109.477 390.697C108.114 390.424 106.752 389.947 106.616 389.607C106.207 388.994 108.114 380.41 109 378.707C109.341 378.094 110.09 375.028 110.771 371.894C111.453 368.761 112.202 366.036 112.474 365.831C112.747 365.627 113.428 362.902 114.109 359.7C114.723 356.498 115.54 353.569 115.813 353.228C116.085 352.819 116.903 349.958 117.516 346.756C118.129 343.554 118.946 340.625 119.219 340.284C119.491 339.876 120.309 337.151 120.922 334.153C121.603 331.156 122.353 328.362 122.625 328.022C122.898 327.613 123.715 324.752 124.328 321.55C124.941 318.348 125.759 315.419 126.031 315.078C126.304 314.669 126.781 313.307 127.053 312.012C128.007 306.903 127.394 307.244 135.978 307.244C140.269 307.244 144.289 306.971 144.97 306.631C145.583 306.29 148.308 305.677 150.897 305.2C156.551 304.246 158.254 303.292 159.685 300.363C161.048 297.638 160.979 295.867 159.481 293.278C157.709 290.212 155.121 289.804 147.218 291.234C142.109 292.12 138.703 292.392 133.457 292.052C127.053 291.711 121.467 290.621 120.581 289.531C120.377 289.327 118.81 288.577 117.039 287.896C115.199 287.215 113.769 286.466 113.769 286.261C113.769 285.989 112.883 285.376 111.793 284.899C109.613 283.945 102.392 277.064 100.484 274.067C99.8032 273.045 98.9857 271.887 98.645 271.478C96.7375 269.162 93.8763 262.077 93.195 258.057C92.7182 255.537 92.105 253.425 91.8325 253.425C91.0832 253.425 91.1513 243.479 91.9007 241.98C92.2413 241.367 92.9225 238.982 93.3313 236.734C93.8082 234.486 94.6938 231.421 95.375 229.922C96.0563 228.423 96.9419 225.834 97.4188 224.131C97.8957 222.428 98.5088 220.725 98.8494 220.316C99.19 219.907 99.9394 217.864 100.553 215.888C101.166 213.844 101.915 211.869 102.188 211.528C102.46 211.119 103.278 208.939 103.891 206.555C104.572 204.239 105.389 202.127 105.73 201.922C106.411 201.446 113.088 203.762 113.088 204.443C113.088 204.647 114.518 205.397 116.358 206.01C118.129 206.691 120.309 207.577 121.194 207.986C123.306 209.007 144.289 209.144 144.97 208.122C145.243 207.713 146.809 206.964 148.513 206.419C150.216 205.942 152.6 204.92 153.894 204.102C156.892 202.331 166.157 201.786 171.403 203.012C173.446 203.489 175.081 204.171 175.081 204.443C175.081 204.716 176.648 205.465 178.488 206.146C180.395 206.827 181.894 207.577 181.894 207.849C181.894 208.122 183.393 208.667 185.3 209.144L188.638 209.961L188.229 213.095C188.025 214.866 187.616 216.433 187.344 216.637C187.139 216.842 186.322 221.27 185.641 226.516C184.891 231.761 184.142 236.189 183.938 236.394C183.665 236.598 182.984 240.686 182.303 245.591C181.689 250.427 180.872 255.06 180.531 255.809C180.259 256.559 179.441 259.216 178.76 261.736C178.147 264.325 177.398 266.369 177.057 266.369C176.784 266.369 176.239 267.322 175.831 268.481C175.422 269.639 174.196 271.751 173.038 273.181C171.948 274.612 170.994 275.974 170.994 276.247C170.994 276.451 170.517 277.132 169.972 277.677C168.337 279.381 168.678 283.536 170.721 285.989C172.356 287.964 172.901 288.169 176.171 288.169C179.373 288.169 180.054 287.896 182.03 285.921C183.256 284.694 184.891 282.514 185.641 281.152C186.39 279.789 187.139 278.631 187.412 278.631C187.616 278.631 188.366 277.201 189.047 275.429C189.728 273.59 190.682 271.819 191.091 271.342C191.568 270.933 192.317 268.617 192.794 266.232C193.271 263.848 193.952 261.804 194.224 261.6C194.497 261.396 195.246 257.24 195.928 252.403C196.609 247.498 197.358 243.411 197.563 243.206C197.835 243.002 198.584 238.71 199.266 233.669C199.947 228.627 200.696 224.131 200.969 223.791C201.241 223.382 201.991 218.954 202.672 213.912C203.353 208.871 204.103 204.375 204.375 204.034C204.716 203.626 205.465 199.334 206.078 194.497C206.759 189.592 207.509 185.3 207.781 184.959C208.054 184.551 208.803 180.122 209.484 175.081C210.166 170.04 210.915 165.544 211.188 165.203C211.46 164.794 212.209 160.366 212.891 155.325C213.64 150.284 214.458 145.924 214.798 145.719C215.139 145.447 215.479 142.722 215.479 139.588C215.548 135.024 215.275 133.321 214.117 131.345C212.141 127.734 209.144 125.009 206.078 123.919C204.579 123.442 203.081 122.829 202.672 122.557C202.331 122.284 199.402 121.535 196.2 120.854C192.998 120.241 190.273 119.491 190.069 119.219C189.864 119.014 187.139 118.265 183.938 117.584C180.736 116.902 177.874 116.153 177.466 115.812C177.125 115.54 174.196 114.722 170.994 114.041C167.792 113.428 165.067 112.679 164.863 112.406C164.658 112.134 161.661 111.384 158.254 110.703C154.78 110.022 151.919 109.204 151.919 109C151.919 108.727 148.853 107.91 145.106 107.229C141.359 106.547 138.294 105.73 138.294 105.457C138.294 105.117 137.408 104.912 136.25 104.912C135.16 104.912 134.206 105.185 134.206 105.526ZM69.215 395.057C69.5557 395.397 72.2807 396.147 75.2782 396.828C78.2757 397.441 81.0688 398.259 81.4094 398.531C81.8182 398.804 84.6794 399.621 87.8813 400.234C91.0832 400.916 94.0125 401.665 94.3532 401.937C94.7619 402.21 97.6232 403.027 100.825 403.709C104.027 404.322 106.752 405.071 106.956 405.344C107.161 405.616 110.158 406.366 113.633 407.047C117.039 407.728 119.9 408.546 119.9 408.886C119.9 409.159 120.513 409.431 121.331 409.431C122.148 409.431 123.851 410.521 125.146 411.816C127.189 413.859 127.53 414.541 127.121 416.448C126.576 419.377 123.851 421.694 120.99 421.694C118.197 421.694 108.251 419.718 107.297 418.969C106.956 418.696 104.027 417.879 100.825 417.197C97.6232 416.584 94.8982 415.835 94.6938 415.562C94.4894 415.358 91.7644 414.609 88.5625 413.927C85.3607 413.246 82.4994 412.497 82.0907 412.156C81.75 411.884 78.8207 411.066 75.6188 410.453C72.4169 409.772 69.5557 409.022 69.1469 408.75C68.8063 408.477 67.3757 408.001 66.0813 407.728C62.4707 406.979 59.95 404.254 59.95 401.12C59.95 399.281 60.3588 398.191 61.3807 397.305C62.1982 396.692 63.22 395.806 63.6288 395.329C64.5144 394.376 68.2613 394.171 69.215 395.057Z" fill="#465841"/>
</svg>
