<svg width="74" height="74" viewBox="0 0 74 74" fill="none" xmlns="http://www.w3.org/2000/svg">
<path d="M35.9016 0.16186C35.4275 0.381548 35.2425 0.62436 34.6875 1.79217L34.2135 2.77499H33.7047C33.4156 2.77499 33.1844 2.82124 33.1844 2.89061C33.1844 2.94842 32.9878 3.00624 32.745 3.00624C32.5138 3.00624 32.1322 3.05249 31.9241 3.12186C31.4963 3.23749 30.7563 3.9428 30.7563 4.2203C30.7563 4.3128 30.71 4.39374 30.6406 4.39374C30.5713 4.39374 30.525 4.70592 30.525 5.08749C30.525 5.93155 30.7563 6.3478 31.7853 7.30749C32.375 7.86249 32.4906 8.03592 32.4906 8.35967C32.4906 8.5678 32.4328 8.79905 32.3519 8.87999C32.1438 9.08811 32.1553 10.9959 32.375 11.2619C32.5947 11.5278 32.9878 11.9209 33.2538 12.1406C33.5081 12.3487 35.2194 12.3834 35.3581 12.1984C35.4044 12.129 35.786 11.8978 36.2253 11.6897L37 11.2965L37.7863 11.6897C38.2141 11.8978 38.5956 12.129 38.6419 12.1984C38.7806 12.3834 40.4919 12.3487 40.7463 12.1406C41.0122 11.9209 41.4053 11.5278 41.625 11.2619C41.8447 10.9959 41.8563 9.08811 41.6481 8.87999C41.5672 8.79905 41.5094 8.5678 41.5094 8.37124C41.5094 8.04749 41.6481 7.85092 42.3766 7.13405C42.8506 6.67155 43.2438 6.19749 43.2438 6.09342C43.2438 5.98936 43.3016 5.89686 43.3594 5.89686C43.4288 5.89686 43.475 5.57311 43.475 5.1453C43.475 4.71749 43.4288 4.39374 43.3594 4.39374C43.3016 4.39374 43.2438 4.3128 43.2438 4.2203C43.2438 3.9428 42.5038 3.23749 42.076 3.12186C41.8678 3.05249 41.4863 3.00624 41.255 3.00624C41.0122 3.00624 40.8156 2.94842 40.8156 2.89061C40.8156 2.82124 40.5844 2.77499 40.2953 2.77499H39.7866L39.3125 1.79217C38.8038 0.705298 38.4916 0.30061 38.006 0.127173C37.555 -0.0462646 36.3178 -0.0231396 35.9016 0.16186ZM37.2775 3.35311C37.3931 3.6653 37.5319 3.93124 37.5897 3.93124C37.6475 3.93124 37.6938 4.00061 37.6938 4.06999C37.7053 4.4978 38.6188 5.08749 39.2547 5.08749C39.4166 5.08749 39.5438 5.13374 39.5438 5.20311C39.5438 5.26092 39.7866 5.31874 40.0988 5.31874H40.6422L40.0641 5.8853C39.2778 6.65999 39.2316 6.72936 39.0813 7.29592C38.9541 7.74686 38.9772 8.15155 39.1622 9.22686L39.22 9.60842L38.8963 9.45811C38.7113 9.37717 38.5378 9.27311 38.5031 9.22686C38.376 9.06499 37.4278 8.78749 37 8.78749C36.5722 8.78749 35.6241 9.06499 35.4969 9.22686C35.4622 9.27311 35.2888 9.37717 35.1038 9.45811L34.78 9.60842L34.8378 9.22686C35.0228 8.15155 35.046 7.74686 34.9188 7.29592C34.7685 6.72936 34.7222 6.65999 33.936 5.8853L33.3578 5.31874H33.9128C34.2135 5.31874 34.4563 5.26092 34.4563 5.20311C34.4563 5.13374 34.5835 5.08749 34.7453 5.08749C35.3813 5.08749 36.2947 4.4978 36.3063 4.06999C36.3063 4.00061 36.3525 3.93124 36.4103 3.93124C36.4681 3.93124 36.6069 3.6653 36.7225 3.35311C36.8381 3.02936 36.9653 2.77499 37 2.77499C37.0347 2.77499 37.1619 3.02936 37.2775 3.35311Z" fill="white"/>
<path d="M25.5184 5.51529C25.2409 5.58466 24.975 6.13966 24.975 6.64841C24.975 7.09935 25.2525 7.74685 25.5069 7.89716C25.5994 7.94341 25.6687 8.03591 25.6687 8.09373C25.6687 8.18623 26.1197 8.84529 26.5706 9.42341C26.6169 9.48123 26.7672 9.71248 26.8828 9.90904C27.01 10.1172 27.1487 10.2906 27.1834 10.2906C27.2297 10.2906 27.299 10.3831 27.3337 10.4872C27.3684 10.6028 27.5534 10.8803 27.75 11.1C27.9465 11.3197 28.1315 11.5972 28.1662 11.7012C28.2009 11.8169 28.2703 11.9094 28.3165 11.9094C28.3628 11.9094 28.4669 12.0365 28.5362 12.1869C28.6634 12.4759 29.2531 12.8344 29.6 12.8344C29.9237 12.8344 30.525 12.4875 30.7215 12.1869C30.9528 11.8284 30.8719 10.8803 30.5944 10.73C30.4903 10.6722 30.4094 10.5797 30.4094 10.5219C30.4094 10.4294 29.9353 9.72404 29.5075 9.19216C29.4497 9.12279 29.3109 8.91466 29.1837 8.72966C29.0681 8.5331 28.9062 8.33654 28.8253 8.29029C28.7444 8.24404 28.675 8.15154 28.675 8.09373C28.675 7.9781 28.0044 7.02998 27.6922 6.69466C27.5997 6.5906 27.5187 6.46341 27.5187 6.39404C27.5187 6.32466 27.3453 6.08185 27.1256 5.8506C26.7787 5.49216 26.6631 5.43435 26.2237 5.44591C25.9462 5.45748 25.634 5.4806 25.5184 5.51529Z" fill="white"/>
<path d="M49.95 6.35942C49.95 6.41724 49.8575 6.47505 49.7534 6.47505C49.6378 6.47505 49.3834 6.62536 49.1753 6.7988C48.9787 6.97224 48.6434 7.23817 48.4353 7.40005C48.2387 7.56192 47.915 7.8163 47.73 7.97817C47.545 8.14005 47.2559 8.38286 47.0825 8.52161C46.9091 8.66036 46.5159 8.98411 46.1922 9.25005C45.88 9.51599 45.4753 9.83974 45.3019 9.97849C45.1284 10.1172 44.6891 10.4988 44.3422 10.8225C43.7756 11.3429 43.7062 11.4585 43.7062 11.8632C43.7062 12.1985 43.7987 12.4297 44.0069 12.6957C44.2844 13.0194 44.3884 13.0657 44.9203 13.0657C45.4291 13.0657 45.5909 13.0079 46.0534 12.6494C46.3541 12.4182 46.5969 12.1754 46.5969 12.1291C46.5969 12.0713 46.6662 12.025 46.7587 12.025C46.8512 12.025 47.0247 11.9094 47.1403 11.7591C47.2559 11.6204 47.4987 11.4122 47.6722 11.2966C47.8572 11.181 48.1 10.996 48.2156 10.8919C48.3428 10.7879 48.5972 10.5682 48.7937 10.4063C48.9903 10.2444 49.2909 9.99005 49.4875 9.82817C49.6725 9.6663 49.9847 9.41192 50.1928 9.25005C51.0484 8.57942 51.3375 8.29036 51.3375 8.08224C51.3375 7.96661 51.3953 7.86255 51.4531 7.86255C51.615 7.86255 51.5919 7.4463 51.43 7.13411C51.1641 6.67161 50.9559 6.47505 50.7362 6.47505C50.6206 6.47505 50.5281 6.41724 50.5281 6.35942C50.5281 6.29005 50.4009 6.2438 50.2391 6.2438C50.0772 6.2438 49.95 6.29005 49.95 6.35942Z" fill="white"/>
<path d="M19.5984 12.661C19.3672 12.8807 19.3094 13.0541 19.3094 13.505C19.3094 14.3144 19.5984 14.6382 20.4656 14.8232C20.8472 14.8925 21.1594 14.9966 21.1594 15.0429C21.1594 15.0775 21.6334 15.2047 22.2 15.3319C22.7781 15.4475 23.2406 15.5747 23.2406 15.621C23.2406 15.6672 23.6453 15.7944 24.1425 15.8985C24.6281 16.0025 25.0906 16.1413 25.1484 16.1875C25.345 16.3263 26.3278 16.5344 26.825 16.5344C27.4956 16.5344 27.9813 16.0372 27.9813 15.3319C27.9813 14.6613 27.6344 14.2797 26.8828 14.0947C26.5706 14.0254 26.2584 13.9213 26.1891 13.875C26.1313 13.8288 25.6572 13.69 25.1484 13.586C24.6397 13.4704 24.1772 13.3432 24.1078 13.2969C24.05 13.2507 23.5991 13.1235 23.125 13.0079C22.6509 12.8922 22.2116 12.765 22.1422 12.7188C21.9341 12.5685 20.9513 12.3719 20.4078 12.3719C20.0031 12.3719 19.8066 12.4413 19.5984 12.661Z" fill="white"/>
<path d="M50.0078 13.6669C49.6956 13.7247 49.3834 13.8172 49.3141 13.8751C49.2562 13.9213 48.7591 14.0601 48.2156 14.1641C47.6722 14.2682 47.1866 14.4069 47.1172 14.4532C47.0594 14.4994 46.5853 14.6266 46.0881 14.7307C45.5794 14.8347 45.1169 14.9619 45.0475 15.0082C44.9781 15.066 44.4694 15.2047 43.9144 15.3204C43.3478 15.4244 42.8969 15.5632 42.8969 15.5979C42.8969 15.6441 42.3997 15.7713 41.7984 15.8985C41.1972 16.0141 40.7 16.1413 40.7 16.1876C40.7 16.2338 40.33 16.3263 39.8906 16.4072C39.4397 16.4882 39.0003 16.6269 38.9078 16.7194C38.8269 16.8119 38.6997 16.8813 38.6534 16.8813C38.48 16.8813 37.8209 17.5751 37.74 17.841C37.6937 17.9797 37.6012 18.1301 37.5319 18.1763C37.37 18.2804 37.3816 20.0263 37.555 20.3732C37.6244 20.5235 37.7631 21.2866 37.8672 22.0844C37.9712 22.8822 38.0984 23.6338 38.1562 23.761C38.2141 23.8882 38.3412 24.6166 38.4453 25.3797C38.5494 26.1429 38.6766 26.8713 38.7344 26.9985C38.7922 27.1257 38.9194 27.8772 39.0234 28.6751C39.1275 29.4729 39.2547 30.2244 39.3125 30.3516C39.3703 30.4788 39.5091 31.2304 39.6131 32.0282C39.7172 32.826 39.8444 33.5197 39.8906 33.5891C39.9369 33.6469 40.0641 34.4101 40.1797 35.2657C40.2953 36.1213 40.4225 36.8497 40.4687 36.8844C40.5034 36.9191 40.6306 37.6476 40.7462 38.5032C40.8619 39.3588 40.9891 40.0872 41.0353 40.1219C41.07 40.1566 41.1972 40.5382 41.3128 40.9891C41.4284 41.4285 41.5672 41.8216 41.6134 41.8563C41.6712 41.891 41.81 42.1454 41.9256 42.4344C42.0412 42.7235 42.2031 43.001 42.2841 43.0472C42.365 43.0935 42.4344 43.1976 42.4344 43.2785C42.4344 43.6601 44.4578 45.7182 45.1284 46.0304C45.3019 46.1113 45.4406 46.2038 45.4406 46.2501C45.4406 46.2963 45.6603 46.4235 45.9378 46.5507C46.2037 46.6663 46.4466 46.7935 46.4812 46.8397C46.5622 46.9438 47.6491 47.2907 47.8919 47.2907C48.0075 47.2907 48.1 47.3369 48.1 47.3947C48.1 47.5566 49.6494 47.7532 50.9675 47.7532H52.2394L52.3781 48.3544C52.4591 48.6897 52.5631 49.0135 52.6094 49.0829C52.6556 49.1407 52.7944 49.6379 52.8984 50.1813C53.0025 50.7247 53.1412 51.2104 53.1875 51.2797C53.2337 51.3376 53.3725 51.8347 53.4766 52.3782C53.5922 52.9216 53.7194 53.3841 53.7656 53.4188C53.8119 53.4535 53.9391 53.9622 54.0547 54.5404C54.1587 55.13 54.2859 55.6157 54.3322 55.6157C54.3784 55.6157 54.5056 56.0782 54.6212 56.6563C54.7369 57.2229 54.8641 57.6969 54.9103 57.6969C54.9566 57.6969 55.0837 58.1825 55.1994 58.7722C55.315 59.3504 55.4537 59.8591 55.4884 59.8938C55.6156 59.9863 55.9625 61.79 55.87 61.871C55.8237 61.9057 55.3497 62.0329 54.8062 62.1485C54.2628 62.2525 53.7772 62.3913 53.7078 62.4375C53.65 62.4838 53.2337 62.611 52.8059 62.715C52.3666 62.8191 51.8694 62.9925 51.7075 63.1082C51.2219 63.4088 50.5744 64.091 50.4819 64.3685C50.4356 64.5188 50.3547 64.6344 50.2969 64.6344C50.1234 64.6344 49.9153 65.941 49.9962 66.6463C50.0309 67.0163 50.1812 67.5597 50.32 67.8372C50.5975 68.3922 51.245 69.1438 51.4416 69.1438C51.4994 69.1438 51.6266 69.2132 51.7075 69.2941C51.985 69.5716 52.6325 69.7219 53.5459 69.7219C54.39 69.7219 55.6041 69.5254 55.7312 69.375C55.7659 69.3288 56.2284 69.2016 56.7719 69.0975C57.3153 68.9819 57.8125 68.8432 57.8703 68.7969C57.9397 68.7507 58.4253 68.6119 58.9687 68.4963C59.5122 68.3922 59.9747 68.265 60.0094 68.2188C60.0441 68.1725 60.5412 68.0454 61.1078 67.9297C61.6859 67.8141 62.1716 67.6754 62.2062 67.6407C62.2409 67.5944 62.5994 67.5019 63.0156 67.421C64.2412 67.1782 65.0275 66.681 65.86 65.6519C66.1144 65.3282 66.2531 64.6807 66.2531 63.7788C66.2531 62.8191 66.0912 61.975 65.9062 61.975C65.8484 61.975 65.7791 61.871 65.7328 61.7554C65.6403 61.4663 64.9812 60.8188 64.7847 60.8188C64.7037 60.8188 64.6344 60.7725 64.6344 60.7147C64.6344 60.5182 63.5591 60.2407 62.8306 60.2407C62.1137 60.2407 60.3562 60.5529 60.2406 60.7032C60.1481 60.8188 58.5409 61.1425 58.4253 61.0616C58.3675 61.0269 58.2172 60.5529 58.1131 60.0094C57.9975 59.466 57.8587 58.9688 57.8125 58.911C57.7547 58.8416 57.6275 58.356 57.5119 57.8125C57.3962 57.2691 57.2691 56.8066 57.2344 56.7719C57.1881 56.7372 57.0609 56.24 56.9453 55.6735C56.8297 55.0954 56.6909 54.6097 56.6562 54.575C56.61 54.5404 56.4828 54.0779 56.3787 53.5344C56.2631 52.991 56.1244 52.4938 56.0781 52.436C56.0319 52.3666 55.8931 51.881 55.7891 51.3376C55.685 50.7941 55.5462 50.2969 55.5 50.2391C55.4537 50.1697 55.315 49.7072 55.2109 49.1985C55.0953 48.6897 54.9681 48.2157 54.9103 48.1579C54.8641 48.0885 54.7831 47.8226 54.7369 47.5566L54.6675 47.0941L55.4537 46.701C55.8931 46.4813 56.2978 46.2385 56.3441 46.1576C56.3903 46.0882 56.5059 46.0188 56.5984 46.0188C56.7372 46.0188 58.5294 44.3076 58.9687 43.7641C59.5006 43.0935 60.3331 41.2897 60.495 40.4919C60.5644 40.1335 60.68 39.7982 60.7494 39.7519C60.9459 39.6247 60.9228 35.7051 60.7378 35.6357C60.6569 35.6126 60.5875 35.5085 60.5875 35.3929C60.5875 35.0807 60.2406 33.8319 60.1366 33.7626C60.0787 33.7279 59.9978 33.5313 59.9516 33.3116C59.8244 32.7451 59.2578 32.2594 58.7028 32.2594C58.46 32.2594 58.2056 32.3172 58.1247 32.3751C58.0437 32.4444 57.8819 32.5716 57.7547 32.6641C57.4309 32.8838 57.4425 33.9938 57.7894 34.6182C57.9281 34.8726 58.1016 35.4507 58.1825 35.9247C58.2519 36.3872 58.3675 36.7688 58.4137 36.7688C58.5525 36.7688 58.5294 38.5957 58.3906 38.6766C58.3328 38.7113 58.275 38.8616 58.275 39.0004C58.275 39.4397 57.9397 40.596 57.7547 40.781C57.6622 40.8735 57.5812 41.0122 57.5812 41.0932C57.5812 41.3707 56.8066 42.4113 56.0781 43.1166C55.1069 44.0532 55.0491 44.0994 54.6097 44.2729C54.4016 44.3654 54.2281 44.4694 54.2281 44.5157C54.2281 44.5619 53.9044 44.6891 53.5112 44.8047C53.1066 44.9088 52.7481 45.0591 52.7019 45.1401C52.5862 45.3135 49.2447 45.3135 49.0134 45.1401C48.9209 45.0707 48.6203 44.9435 48.3312 44.8626C47.7416 44.6776 46.7241 44.1457 46.2847 43.7757C45.2556 42.9085 44.4347 41.9488 44.1687 41.2782C44.0762 41.0585 43.9491 40.8157 43.8681 40.7347C43.7987 40.6654 43.6716 40.2722 43.5906 39.8676C43.5097 39.4629 43.4056 39.0813 43.3594 39.0235C43.3131 38.9541 43.1859 38.2257 43.0703 37.4047C42.9547 36.5722 42.8275 35.8438 42.7812 35.786C42.6656 35.6357 42.3997 33.5313 42.4806 33.4504C42.5153 33.4157 43.1281 33.3463 43.845 33.2885C45.3134 33.1844 45.9031 33.0919 45.9031 32.9416C45.9031 32.8838 45.9725 32.8376 46.0534 32.8376C46.3656 32.826 47.7184 32.0629 48.285 31.5657C48.6666 31.2304 49.4875 30.236 49.4875 30.1204C49.4875 29.8891 50.8056 28.7907 51.4647 28.4669C52.1353 28.1432 52.4128 28.0738 53.6616 27.9813C54.4478 27.9235 55.13 27.8657 55.1762 27.8657C55.2803 27.8657 55.6734 28.7097 55.8237 29.2763C56.1012 30.2822 57.2459 30.6522 57.9397 29.9585C58.1941 29.6926 58.275 29.5076 58.275 29.1607C58.275 28.7213 57.9628 27.5304 57.8125 27.4032C57.7778 27.3685 57.6391 27.0101 57.5234 26.5938C57.4078 26.1776 57.2691 25.8191 57.2344 25.7844C57.1997 25.7497 57.0956 25.4954 57.0147 25.2063C56.9337 24.9172 56.7719 24.4779 56.6562 24.2235C56.5406 23.9691 56.3903 23.5297 56.3094 23.2407C56.2284 22.9516 56.1359 22.6972 56.0897 22.6626C56.0434 22.6279 55.9047 22.2694 55.7891 21.8532C55.6734 21.4369 55.5347 21.0785 55.5 21.0438C55.4537 21.0091 55.3381 20.6738 55.2225 20.2922C55.0953 19.9107 54.9681 19.5407 54.9219 19.4829C54.8641 19.4135 54.7369 19.0551 54.6328 18.6735C54.5172 18.2919 54.39 17.9219 54.3437 17.8641C54.2859 17.7947 54.1587 17.4363 54.0547 17.0547C53.9391 16.6732 53.8119 16.3379 53.7772 16.3032C53.7309 16.2685 53.6037 15.9447 53.4881 15.5747C53.3841 15.2047 53.1875 14.8001 53.0834 14.696C52.9678 14.5804 52.8522 14.4416 52.8291 14.3838C52.7366 14.1641 52.0197 13.7594 51.5456 13.6438C50.9675 13.5166 50.7825 13.5166 50.0078 13.6669ZM51.2103 16.6501C51.2912 16.9738 51.4069 17.2282 51.4647 17.2282C51.5225 17.2282 51.5687 17.2976 51.5687 17.3901C51.5687 17.5982 51.9387 18.766 52.0312 18.8469C52.0659 18.8816 52.2047 19.2401 52.3203 19.6563C52.4359 20.0726 52.5747 20.431 52.6094 20.4657C52.6441 20.5004 52.7481 20.7547 52.8291 21.0438C52.91 21.3329 53.0719 21.7722 53.1875 22.0382C53.3031 22.2926 53.465 22.7435 53.5459 23.0441C53.6153 23.3447 53.7078 23.5876 53.7541 23.5876C53.8003 23.5876 53.9275 23.946 54.0547 24.3969C54.1819 24.8363 54.3206 25.2063 54.3784 25.2063C54.4362 25.2063 54.4247 25.2757 54.3553 25.3566C54.2744 25.4607 53.8234 25.5416 53.0719 25.5994C51.8347 25.6804 50.7594 25.8654 50.7594 26.0041C50.7594 26.0504 50.5628 26.1544 50.32 26.2238C50.0772 26.3047 49.7187 26.4897 49.5337 26.6516C49.3487 26.8135 49.1522 26.9407 49.1059 26.9407C48.9903 26.9407 47.6375 28.2704 47.6375 28.386C47.6375 28.4438 47.5566 28.5594 47.4756 28.6635C47.3831 28.7676 47.0825 29.0913 46.8166 29.3919C46.5506 29.7041 46.2616 29.9469 46.1806 29.9469C46.0881 29.9469 46.0187 29.9932 46.0187 30.051C46.0187 30.1088 45.7759 30.2476 45.4753 30.3632C45.1631 30.4788 44.8856 30.6176 44.8509 30.6754C44.7353 30.8372 42.0528 30.9991 41.9603 30.8488C41.9141 30.7794 41.8447 30.3632 41.7984 29.9238C41.7522 29.496 41.6828 29.1376 41.6366 29.1376C41.5903 29.1376 41.4631 28.4207 41.3475 27.5419C41.2319 26.6747 41.0931 25.9001 41.0469 25.8422C41.0006 25.7729 40.8734 25.0444 40.7578 24.2235C40.6537 23.391 40.5266 22.6626 40.4803 22.6047C40.3416 22.3735 39.9253 19.136 40.0294 19.0088C40.0872 18.9279 40.4687 18.8122 40.8734 18.7313C41.2897 18.6504 41.6481 18.5463 41.6828 18.5001C41.7059 18.4538 42.1916 18.3151 42.7466 18.1994C43.3131 18.0954 43.7872 17.9566 43.8219 17.9219C43.8566 17.8757 44.3537 17.7485 44.9203 17.6329C45.4984 17.5172 45.9841 17.3785 46.0187 17.3438C46.0534 17.2976 46.5159 17.1704 47.0594 17.0663C47.6028 16.9507 48.1 16.8119 48.1578 16.7657C48.2272 16.7194 48.7012 16.5922 49.2331 16.4766C49.7534 16.3726 50.32 16.2222 50.4819 16.1297C50.9097 15.9101 51.0484 16.0026 51.2103 16.6501ZM63.4666 62.9694C63.7556 63.2122 63.825 63.351 63.825 63.7325C63.825 64.4147 63.3741 64.7847 62.2409 65.0391C61.7553 65.1547 61.2697 65.2819 61.1772 65.3397C61.0731 65.386 60.5759 65.5132 60.0672 65.6288C59.5584 65.7329 59.1191 65.8485 59.0844 65.8947C59.0497 65.941 58.5641 66.0797 57.9859 66.1954C57.4194 66.311 56.9222 66.4382 56.8875 66.4844C56.8528 66.5191 56.3672 66.6579 55.7891 66.7735C55.2225 66.8891 54.7137 67.0279 54.6791 67.0857C54.6444 67.1435 54.2744 67.2129 53.8581 67.2591C53.1759 67.3169 53.0834 67.3054 52.8522 67.051C52.0197 66.1838 52.4937 65.2588 53.9159 64.9813C54.3091 64.9119 54.6906 64.8079 54.7484 64.75C54.8178 64.7038 55.3034 64.565 55.8469 64.461C56.3903 64.3454 56.8528 64.2297 56.8875 64.1835C56.9222 64.1372 57.3847 64.01 57.9166 63.8944C58.4484 63.7788 58.9687 63.6516 59.0728 63.5938C59.1769 63.536 59.6741 63.4088 60.1828 63.2932C60.6916 63.1891 61.1309 63.0619 61.1656 63.0157C61.235 62.9116 62.2409 62.7035 62.7497 62.6804C62.9925 62.6688 63.2353 62.7729 63.4666 62.9694Z" fill="white"/>
<path d="M22.7781 17.9103C22.7781 17.9681 22.5584 18.0491 22.2809 18.0837C21.9456 18.1416 21.6681 18.2803 21.3906 18.5462C20.7778 19.1475 20.6969 19.2631 20.5003 19.9222C20.4078 20.2459 20.2806 20.5697 20.2344 20.6391C20.1881 20.6969 20.0609 21.0669 19.9453 21.4484C19.8413 21.83 19.7141 22.1653 19.6678 22.2C19.5175 22.3156 19.3094 23.2175 19.3094 23.7841C19.3094 24.3159 19.3441 24.3969 19.7025 24.6744C19.9338 24.8478 20.2575 24.975 20.4656 24.975C20.9628 24.975 21.5872 24.4778 21.6797 24.0153C21.7259 23.8072 21.8531 23.4372 21.9688 23.1828C22.0844 22.9284 22.2463 22.4891 22.3272 22.2C22.4081 21.9109 22.5122 21.6566 22.5469 21.6219C22.5816 21.5872 22.6856 21.3328 22.7781 21.0437C22.8706 20.7547 22.9863 20.4887 23.0441 20.4541C23.1366 20.3847 24.5934 20.6969 24.8016 20.8356C24.8709 20.8703 25.3566 20.9975 25.9 21.1131C26.4434 21.2287 26.9059 21.3559 26.9406 21.3906C26.9753 21.4369 27.4725 21.5641 28.0391 21.6797C28.6172 21.7953 29.1028 21.9341 29.1375 21.9803C29.1722 22.0266 29.6347 22.1422 30.1781 22.2578C30.7216 22.3619 31.2188 22.5006 31.2766 22.5469C31.3459 22.5931 31.7853 22.7203 32.2594 22.8244C33.0456 22.9978 33.3925 23.1134 33.8781 23.3562C33.9706 23.4025 34.04 23.5412 34.0284 23.6569C33.8203 25.3681 33.6238 26.6978 33.5313 26.8828C33.4734 27.01 33.3463 27.7616 33.2422 28.5594C33.1381 29.3572 33.0109 30.1087 32.9531 30.2359C32.8953 30.3631 32.7681 31.0684 32.6641 31.7969C32.56 32.5253 32.4559 33.1497 32.4328 33.1728C32.3981 33.1959 31.9009 32.9762 31.3113 32.6872C30.0278 32.0512 29.4034 31.9125 27.7616 31.9125C26.5938 31.9125 25.2409 32.1437 25.0906 32.3634C25.0559 32.4097 24.7438 32.5484 24.3969 32.6641C24.05 32.7681 23.7147 32.9069 23.6569 32.9647C23.5181 33.0919 21.7028 33.1034 21.5525 32.9762C21.4947 32.93 21.1478 32.7912 20.7894 32.6641C20.4194 32.5484 20.1188 32.4097 20.1188 32.3634C20.1188 32.3172 19.8297 32.1784 19.4828 32.0744C18.8584 31.8778 18.8353 31.8547 18.9163 31.5194C18.9625 31.3228 19.0319 31.1378 19.0781 31.1031C19.1244 31.0684 19.2284 30.8141 19.3094 30.525C19.3903 30.2359 19.5522 29.7734 19.6909 29.4844C19.8181 29.1953 19.9569 28.6634 19.98 28.2934C20.0263 27.6806 20.0031 27.5997 19.7025 27.2875C19.425 27.01 19.2631 26.9522 18.8353 26.9406C18.1647 26.9406 17.7716 27.2644 17.5634 27.9812C17.4825 28.2703 17.3784 28.5247 17.3438 28.5594C17.3091 28.5941 17.1703 28.9525 17.0547 29.3687C16.9391 29.785 16.8003 30.1434 16.7541 30.1781C16.7078 30.2128 16.5806 30.5481 16.4766 30.9297C16.3609 31.3112 16.2338 31.6697 16.1875 31.7391C16.1413 31.7969 16.0025 32.1669 15.8869 32.5484C15.7713 32.93 15.6441 33.2653 15.5978 33.3C15.5631 33.3347 15.4359 33.7047 15.3088 34.1325C15.1931 34.5719 15.0544 34.9187 15.0197 34.9187C14.9734 34.9187 14.8463 35.2656 14.7306 35.6934C14.615 36.1328 14.4878 36.5028 14.4416 36.5375C14.3953 36.5722 14.2681 36.9075 14.1641 37.2891C14.0484 37.6706 13.9097 38.0175 13.8634 38.0522C13.8056 38.0869 13.6669 38.5262 13.5628 39.035C13.4588 39.5322 13.3084 39.9831 13.2506 40.0294C13.0541 40.1566 13.0772 44.0762 13.2738 44.1341C13.3431 44.1687 13.4125 44.2728 13.4125 44.3884C13.4125 44.6891 13.7594 45.9494 13.8634 46.0187C13.9097 46.0534 14.0484 46.3194 14.1641 46.6316C14.2797 46.9322 14.4184 47.175 14.4647 47.175C14.5225 47.175 14.5688 47.2328 14.5688 47.3022C14.5688 47.8341 17.3669 50.6437 17.8988 50.6437C17.9681 50.6437 18.1069 50.7247 18.1994 50.8172C18.2919 50.9212 18.5694 51.0716 18.8122 51.1525C19.2284 51.3028 19.2516 51.3259 19.2284 51.8C19.2169 52.0659 19.1591 52.3434 19.1013 52.4128C19.0319 52.4937 18.8931 52.9909 18.7891 53.5344C18.685 54.0778 18.5463 54.5634 18.5 54.6328C18.4538 54.6906 18.315 55.1878 18.1994 55.7312C18.0953 56.2747 17.9681 56.7372 17.9219 56.7719C17.8872 56.8066 17.76 57.2691 17.6444 57.8125C17.5288 58.3559 17.4016 58.8416 17.3438 58.9109C17.2975 58.9687 17.1588 59.4659 17.0547 60.0094C16.9391 60.5528 16.8119 61.0384 16.7656 61.1078C16.7194 61.1656 16.5806 61.6628 16.465 62.2062C16.3609 62.7497 16.2338 63.2122 16.1875 63.2469C16.1413 63.2816 16.0141 63.7672 15.8984 64.3453C15.7828 64.9119 15.6325 65.4206 15.5747 65.4553C15.4591 65.5362 15.0428 65.4553 14.8578 65.3281C14.8 65.2703 14.3028 65.1431 13.7594 65.0391C13.2159 64.935 12.7072 64.7847 12.6147 64.7037C12.4066 64.5419 10.0825 64.5303 9.96688 64.7037C9.92063 64.7616 9.70094 64.8887 9.48125 64.9812C8.84531 65.2356 8.34813 65.7791 7.92031 66.6809C7.60813 67.34 7.74688 69.8375 8.09375 69.8375C8.16313 69.8375 8.20938 69.9069 8.20938 69.9878C8.20938 70.1844 9.08813 71.0747 9.49281 71.2944C9.66625 71.3753 10.0131 71.4794 10.2791 71.5256C10.545 71.5719 10.7531 71.6412 10.7531 71.6759C10.7531 71.7222 11.2388 71.8609 11.8284 71.9766C12.4066 72.0922 12.9153 72.2309 12.95 72.2772C12.9847 72.3234 13.4472 72.4391 13.9906 72.5547C14.5341 72.6587 15.0313 72.7975 15.0891 72.8437C15.1584 72.89 15.6209 73.0287 16.1297 73.1328C16.6384 73.2484 17.1125 73.3756 17.1703 73.4219C17.4363 73.6184 19.6678 74 20.5466 74C21.2403 74 21.6334 73.9422 22.0497 73.7572C22.6278 73.5144 23.5875 72.6125 23.5875 72.3119C23.5875 72.2309 23.6338 72.15 23.6916 72.15C23.8303 72.15 24.05 71.1209 24.05 70.4966C24.05 69.9994 23.8534 69.1322 23.7147 69.0281C23.68 68.9934 23.5528 68.7853 23.4372 68.5656C23.1481 68.0106 22.2578 67.3284 21.7144 67.2359C21.4716 67.1897 21.275 67.1203 21.275 67.0741C21.275 67.0278 20.8241 66.8891 20.2691 66.7734C19.7025 66.6578 19.2053 66.5306 19.1359 66.4728C19.0781 66.4266 18.8238 66.3572 18.5809 66.3109C18.3497 66.2647 18.1184 66.1837 18.0953 66.1259C18.0259 66.0219 18.3497 64.565 18.5 64.2759C18.5578 64.1719 18.685 63.6516 18.8006 63.1197C18.9163 62.5878 19.0434 62.1253 19.0897 62.0906C19.1359 62.0559 19.2516 61.5934 19.3672 61.05C19.4713 60.5066 19.61 60.0094 19.6563 59.9516C19.7025 59.8822 19.8413 59.3966 19.9453 58.8531C20.0494 58.3097 20.1881 57.8125 20.2344 57.7547C20.2806 57.6853 20.4194 57.2228 20.5234 56.7141C20.6391 56.2053 20.7663 55.7312 20.8125 55.6734C20.8588 55.6041 20.9975 55.1184 21.1016 54.575C21.2056 54.0316 21.3444 53.5344 21.3906 53.4766C21.4369 53.4072 21.5178 53.1759 21.5641 52.9562C21.7259 52.0891 21.6219 52.1469 23.0788 52.1469C23.8072 52.1469 24.4894 52.1006 24.605 52.0428C24.7091 51.985 25.1716 51.8809 25.6109 51.8C26.5706 51.6381 26.8597 51.4762 27.1025 50.9791C27.3338 50.5166 27.3222 50.2159 27.0678 49.7766C26.7672 49.2562 26.3278 49.1869 24.9866 49.4297C24.1194 49.58 23.5413 49.6262 22.6509 49.5684C21.5641 49.5106 20.6159 49.3256 20.4656 49.1406C20.4309 49.1059 20.165 48.9787 19.8644 48.8631C19.5522 48.7475 19.3094 48.6203 19.3094 48.5856C19.3094 48.5394 19.1591 48.4353 18.9741 48.3544C18.6041 48.1925 17.3784 47.0247 17.0547 46.5159C16.9391 46.3425 16.8003 46.1459 16.7425 46.0766C16.4188 45.6834 15.9331 44.4809 15.8175 43.7987C15.7366 43.3709 15.6325 43.0125 15.5863 43.0125C15.4591 43.0125 15.4706 41.3244 15.5978 41.07C15.6556 40.9659 15.7713 40.5612 15.8406 40.1797C15.9216 39.7981 16.0719 39.2778 16.1875 39.0234C16.3031 38.7691 16.4534 38.3297 16.5344 38.0406C16.6153 37.7516 16.7194 37.4625 16.7772 37.3931C16.835 37.3237 16.9622 36.9769 17.0663 36.6416C17.1703 36.2947 17.2975 35.9594 17.3438 35.9016C17.39 35.8322 17.5288 35.4622 17.6328 35.0575C17.7484 34.6644 17.8872 34.3059 17.945 34.2712C18.0606 34.1903 19.1938 34.5834 19.1938 34.6991C19.1938 34.7337 19.4366 34.8609 19.7488 34.965C20.0494 35.0806 20.4194 35.2309 20.5697 35.3003C20.9281 35.4737 24.4894 35.4969 24.605 35.3234C24.6513 35.2541 24.9172 35.1269 25.2063 35.0344C25.4953 34.9534 25.9 34.78 26.1197 34.6412C26.6284 34.3406 28.2009 34.2481 29.0913 34.4562C29.4381 34.5372 29.7156 34.6528 29.7156 34.6991C29.7156 34.7453 29.9816 34.8725 30.2938 34.9881C30.6175 35.1037 30.8719 35.2309 30.8719 35.2772C30.8719 35.3234 31.1263 35.4159 31.45 35.4969L32.0166 35.6356L31.9472 36.1675C31.9125 36.4681 31.8431 36.7341 31.7969 36.7687C31.7622 36.8034 31.6234 37.555 31.5078 38.4453C31.3806 39.3356 31.2534 40.0872 31.2188 40.1219C31.1725 40.1566 31.0569 40.8503 30.9413 41.6828C30.8372 42.5037 30.6984 43.29 30.6406 43.4172C30.5944 43.5444 30.4556 43.9953 30.34 44.4231C30.2359 44.8625 30.1088 45.2094 30.0509 45.2094C30.0047 45.2094 29.9122 45.3712 29.8428 45.5678C29.7734 45.7644 29.5653 46.1228 29.3688 46.3656C29.1838 46.6084 29.0219 46.8397 29.0219 46.8859C29.0219 46.9206 28.9409 47.0362 28.8484 47.1287C28.5709 47.4178 28.6288 48.1231 28.9756 48.5394C29.2531 48.8747 29.3456 48.9094 29.9006 48.9094C30.4441 48.9094 30.5597 48.8631 30.895 48.5278C31.1031 48.3197 31.3806 47.9497 31.5078 47.7184C31.635 47.4872 31.7622 47.2906 31.8084 47.2906C31.8431 47.2906 31.9703 47.0478 32.0859 46.7472C32.2016 46.435 32.3634 46.1344 32.4328 46.0534C32.5138 45.9841 32.6409 45.5909 32.7219 45.1862C32.8028 44.7816 32.9184 44.4347 32.9647 44.4C33.0109 44.3653 33.1381 43.66 33.2538 42.8391C33.3694 42.0066 33.4966 41.3128 33.5313 41.2781C33.5775 41.2434 33.7047 40.515 33.8203 39.6594C33.9359 38.8037 34.0631 38.0406 34.1094 37.9828C34.1556 37.9134 34.2828 37.1619 34.3984 36.3062C34.5141 35.4506 34.6413 34.6875 34.6875 34.6297C34.7453 34.5603 34.8725 33.8319 34.9766 33.0109C35.0922 32.1784 35.2194 31.45 35.2656 31.3922C35.3119 31.3228 35.4391 30.5712 35.5547 29.7156C35.6703 28.86 35.7975 28.0969 35.8438 28.0391C35.89 27.9697 36.0172 27.2181 36.1328 26.3625C36.26 25.5069 36.3988 24.7669 36.4566 24.7322C36.5144 24.6859 36.5722 24.2234 36.5722 23.6916C36.5838 22.9169 36.5375 22.6278 36.3409 22.2925C36.0056 21.6797 35.4969 21.2172 34.9766 21.0322C34.7222 20.9512 34.4678 20.8472 34.3984 20.8009C34.3406 20.7547 33.8434 20.6275 33.3 20.5119C32.7566 20.4078 32.2941 20.2806 32.2594 20.2344C32.2247 20.1997 31.7622 20.0725 31.2188 19.9569C30.6753 19.8412 30.1897 19.7141 30.1203 19.6562C30.0625 19.61 29.5653 19.4712 29.0219 19.3556C28.4784 19.2516 28.0159 19.1244 27.9813 19.0781C27.9466 19.0319 27.4378 18.9047 26.8597 18.7891C26.27 18.6734 25.7844 18.5347 25.7844 18.5C25.7844 18.4537 25.2641 18.315 24.6281 18.1994C23.9922 18.0837 23.4719 17.945 23.4719 17.8987C23.4719 17.8409 23.3216 17.8062 23.125 17.8062C22.94 17.8062 22.7781 17.8525 22.7781 17.9103ZM11.7475 67.0509C11.8053 67.1087 12.2678 67.2359 12.7766 67.3516C13.2853 67.4556 13.7594 67.5944 13.8172 67.6406C13.8866 67.6869 14.3722 67.8256 14.9156 67.9297C15.4591 68.0453 15.9563 68.1725 16.0141 68.2187C16.0834 68.265 16.5691 68.4037 17.1125 68.5194C17.6559 68.6234 18.1184 68.7506 18.1531 68.7969C18.1878 68.8431 18.6966 68.9703 19.2863 69.0859C19.8644 69.2016 20.35 69.3403 20.35 69.3981C20.35 69.4444 20.4541 69.4906 20.5928 69.4906C20.7316 69.4906 21.0206 69.6756 21.2403 69.8953C21.5872 70.2422 21.645 70.3578 21.5756 70.6816C21.4831 71.1787 21.0206 71.5719 20.535 71.5719C20.0609 71.5719 18.3728 71.2366 18.2109 71.1094C18.1531 71.0631 17.6559 70.9244 17.1125 70.8087C16.5691 70.7047 16.1066 70.5775 16.0719 70.5312C16.0372 70.4966 15.5747 70.3694 15.0313 70.2537C14.4878 70.1381 14.0022 70.0109 13.9328 69.9531C13.875 69.9069 13.3778 69.7681 12.8344 69.6641C12.2909 69.5484 11.8053 69.4212 11.7359 69.375C11.6781 69.3287 11.4353 69.2478 11.2156 69.2016C10.6028 69.0744 10.175 68.6119 10.175 68.08C10.175 67.7678 10.2444 67.5828 10.4178 67.4325C10.5566 67.3284 10.73 67.1781 10.7994 67.0972C10.9497 66.9353 11.5856 66.9006 11.7475 67.0509Z" fill="white"/>
</svg>
