<svg width="512" height="512" viewBox="0 0 512 512" fill="none" xmlns="http://www.w3.org/2000/svg">
<path d="M178.16 42.24C177.36 43.04 176.8 44.16 176.8 44.64C176.8 45.2 176.48 45.6 176 45.6C175.44 45.6 175.2 58.64 175.2 83.2V120.72L172.64 122.08C171.2 122.8 169.84 123.68 169.6 123.92C169.36 124.24 168 124.96 166.64 125.52C165.2 126.08 163.36 127.2 162.48 127.92C161.6 128.64 159.04 130.24 156.72 131.6C154.48 132.88 151.68 134.8 150.64 135.76C149.52 136.8 148.32 137.6 148 137.6C147.76 137.6 146.8 138.24 145.92 139.04C145.12 139.76 143.36 141.28 142 142.32C139.52 144.24 129.36 153.12 127.28 155.28C125.12 157.36 116.24 167.52 114.32 170C113.28 171.28 111.76 173.12 111.04 173.92C110.24 174.8 109.6 175.76 109.6 176C109.6 176.32 108.8 177.52 107.84 178.64C106.8 179.68 104.96 182.48 103.6 184.72C102.32 187.04 100.64 189.6 99.92 190.48C99.2 191.36 98.08 193.2 97.52 194.64C96.96 196 96.24 197.36 96 197.6C95.44 198 91.36 206.48 87.76 214.48C86.64 216.96 85.44 220.32 85.2 221.92C84.88 223.52 84.32 224.8 84 224.8C83.68 224.8 82.72 227.44 82 230.56C81.2 233.76 80.32 236.8 79.92 237.2C79.6 237.68 78.72 241.44 78 245.6C77.28 249.76 76.32 253.92 75.92 254.8C73.04 261.44 73.04 311.52 76 318C76.4 318.88 77.28 323.2 78 327.6C78.72 332 79.6 335.92 80 336.4C80.4 336.88 81.28 339.84 82 343.04C82.72 346.16 83.68 348.96 84 349.2C84.4 349.44 85.36 351.84 86.08 354.4C86.8 357.04 87.68 359.2 87.92 359.2C88.24 359.2 88.96 360.56 89.52 362.24C90.72 365.76 95.2 374.64 96 375.2C96.32 375.44 97.04 376.96 97.68 378.72C98.32 380.4 99.28 382 99.76 382.16C100.32 382.4 100.8 382.88 100.8 383.28C100.8 384.4 107.36 394.4 108.16 394.4C108.48 394.4 108.8 394.8 108.8 395.28C108.8 397.92 126.16 417.36 136.48 426.16C138.64 428 141.68 430.64 143.2 432C144.72 433.28 146.64 434.64 147.36 434.88C148.16 435.12 148.8 435.68 148.8 436.08C148.8 436.48 150.08 437.44 151.6 438.16C153.12 438.88 154.4 439.76 154.4 440.08C154.4 440.48 155.76 441.36 157.44 442.08C159.04 442.88 160.64 443.92 161.04 444.48C161.36 445.04 162.88 445.92 164.4 446.4C165.92 446.88 167.2 447.6 167.2 448C167.2 448.4 168.8 449.28 170.8 450.08C172.8 450.8 174.4 451.76 174.4 452.08C174.4 452.48 174.8 452.8 175.2 452.8C175.68 452.8 178.72 454.08 182 455.6C185.28 457.12 188.96 458.56 190.16 458.88C191.36 459.2 192.56 459.68 192.8 460.08C193.04 460.4 195.76 461.28 198.8 462.08C201.92 462.88 204.56 463.84 204.8 464.08C205.04 464.4 208.08 465.2 211.6 465.92C215.12 466.72 218.56 467.6 219.28 468C220 468.4 225.6 469.28 231.68 470C249.76 472.24 290.64 470.96 297.2 468C298.08 467.6 301.84 466.72 305.6 465.92C309.36 465.2 312.8 464.32 313.2 464C313.68 463.6 315.84 462.88 318 462.32C320.24 461.84 322.72 460.96 323.6 460.4C324.48 459.92 327.2 458.8 329.6 458C332 457.2 334.16 456.32 334.4 456C334.64 455.68 336.48 454.8 338.64 454C340.72 453.2 342.4 452.32 342.4 452.08C342.4 451.76 343.76 451.04 345.36 450.48C347.04 449.92 349.12 448.8 350 448C350.88 447.28 352.8 446.16 354.24 445.6C355.6 445.04 356.8 444.32 356.8 444C356.8 443.68 358 442.8 359.44 442.08C361.68 441.04 366.24 437.84 373.52 432.24C380.08 427.28 402.4 405.12 402.4 403.6C402.4 403.28 403.2 402.16 404.16 401.2C406.8 398.56 411.2 392.4 411.2 391.36C411.2 390.8 411.6 390.4 412 390.4C412.48 390.4 413.12 389.6 413.52 388.56C413.92 387.6 415.2 385.6 416.32 384.08C417.44 382.56 418.4 380.88 418.4 380.4C418.4 379.84 419.12 378.64 420 377.6C420.88 376.64 422 374.56 422.56 373.12C423.12 371.6 423.76 370.4 424.08 370.4C424.48 370.4 425.36 368.4 426.08 366C426.88 363.6 427.76 361.6 428 361.6C428.32 361.6 429.2 359.52 430 356.96C430.8 354.48 431.92 351.68 432.4 350.8C432.96 349.92 433.84 347.44 434.32 345.2C434.88 343.04 435.6 340.88 436 340.4C436.32 340 437.28 336.32 438.08 332.4C438.8 328.4 439.68 324.8 440 324.4C443.68 319.44 443.68 254 440.08 249.2C439.68 248.72 438.8 245.12 438.08 241.2C437.28 237.2 436.4 233.6 436 233.2C435.68 232.72 434.96 230.64 434.48 228.48C433.92 226.24 432.8 223.04 432 221.28C431.2 219.44 430.08 216.48 429.52 214.56C429.04 212.72 428.24 211.2 427.84 211.2C427.52 211.2 427.2 210.72 427.2 210.16C427.2 208.96 420.72 195.92 419.44 194.56C418.88 194 418.4 193.04 418.4 192.48C418.4 191.92 417.76 190.8 417.04 189.92C416.24 189.12 414.88 187.04 414 185.36C413.12 183.76 412.16 182.4 411.84 182.4C411.6 182.4 411.12 181.76 410.88 180.96C410.64 180.24 409.36 178.32 408 176.8C406.72 175.28 405.6 173.76 405.6 173.52C405.6 173.28 404.8 172.08 403.84 170.96C402.8 169.84 400.4 167.04 398.4 164.72C396.4 162.4 392.4 158.16 389.52 155.28C384.8 150.48 382.24 148.16 373.6 140.96C369.04 137.2 356.56 128.8 355.44 128.8C354.88 128.8 354.4 128.48 354.4 128C354.4 127.6 352.88 126.48 351.04 125.6C349.12 124.64 346.24 123.2 344.64 122.32L341.6 120.64V113.76C341.6 109.92 341.36 106 341.12 105.12C340.4 102.32 336.08 100.48 331.6 100.96C324.56 101.76 325.2 92.32 324.96 197.2L324.8 290.32L299.28 290.56L273.76 290.8L271.68 293.04L269.6 295.28V320.88V346.4H231.2H192.8V201.6V56.8H258.8H324.8V64.88C324.8 72.72 324.88 72.96 327.12 75.28C329.04 77.12 330.16 77.6 333.04 77.6C336 77.6 337.12 77.12 339.12 75.12L341.6 72.64V58.8C341.6 44.96 341.6 44.88 339.6 42.8L337.52 40.8H258.48C182.96 40.8 179.36 40.88 178.16 42.24ZM175.2 158C175.2 177.04 175.68 175.04 169.52 180C166.32 182.64 154.56 194.4 152 197.6C150.88 198.96 149.2 200.88 148.24 201.92C147.2 202.96 146.4 204.08 146.4 204.48C146.4 204.88 145.36 206.48 144.08 208C142.88 209.52 141.6 211.6 141.28 212.56C140.96 213.6 140.4 214.4 140 214.4C139.68 214.4 138.72 216 137.84 218C137.04 220 136.16 221.6 135.92 221.6C135.6 221.6 134.72 223.36 133.92 225.6C133.12 227.76 132.24 229.6 131.84 229.6C131.52 229.6 130.64 231.68 129.92 234.16C129.2 236.72 128.32 238.96 128 239.2C127.36 239.68 124.8 249.36 124.8 251.44C124.8 252.16 124.48 252.8 124.08 252.8C123.2 252.8 120.8 268.08 120.8 273.52C120.8 275.76 120.48 277.6 120 277.6C119.52 277.6 119.2 281.2 119.2 286.72C119.2 292 119.52 296.08 120 296.4C120.48 296.64 120.8 298.56 120.8 300.56C120.8 305.12 123.12 321.04 123.92 321.6C124.16 321.84 125.12 324.8 125.92 328.16C126.8 331.6 127.68 334.4 127.92 334.4C128.24 334.4 128.96 336.08 129.52 338.16C130.16 340.24 131.68 343.92 132.96 346.32C134.16 348.8 135.2 351.28 135.2 351.76C135.2 352.32 135.52 352.8 135.92 352.8C136.32 352.8 136.96 353.6 137.2 354.56C138.24 357.84 142.16 360.8 145.52 360.8C147.28 360.8 149.04 360.32 149.6 359.6C150.16 358.96 151.04 358.4 151.6 358.4C152.8 358.4 154.4 354.96 154.4 352.48C154.4 350.24 152.88 345.6 152.08 345.6C151.76 345.6 150.88 343.76 150.08 341.6C149.28 339.36 148.4 337.6 148.08 337.6C147.76 337.6 146.96 336.08 146.48 334.24C145.92 332.32 144.8 329.36 144 327.6C143.2 325.84 142.08 322.16 141.52 319.36C140.96 316.64 140.24 314.4 139.92 314.4C138.8 314.4 137.2 298.24 137.2 286.8C137.28 275.28 138.8 259.2 139.92 259.2C140.24 259.2 140.96 256.96 141.52 254.16C142.08 251.44 143.2 247.76 144 246C144.8 244.24 145.68 241.92 146 240.8C146.72 238.4 155.2 222.16 155.92 221.6C156.24 221.36 157.2 219.92 158.08 218.4C158.88 216.88 160.24 215.12 161.04 214.56C161.76 214 162.4 213.12 162.4 212.64C162.4 212.16 163.12 211.04 164 210.08C164.88 209.12 167.76 206.08 170.4 203.28L175.2 198.24V277.92C175.2 321.76 175.44 357.6 175.84 357.6C176.16 357.6 177.04 358.72 177.76 360L179.12 362.4H230.64H282.16L311.68 332.96L341.2 303.6L341.6 250.96L342 198.32L346.48 202.96C348.96 205.52 352.64 209.76 354.64 212.4C356.64 215.04 358.8 217.76 359.36 218.4C360.48 219.76 362.96 224.08 365.76 229.6C366.8 231.6 367.84 233.28 368.16 233.44C368.56 233.6 369.36 235.68 370.08 238.08C370.72 240.48 371.6 242.4 371.92 242.4C372.24 242.4 373.12 245.12 374 248.4C374.8 251.68 375.68 254.4 376 254.4C376.64 254.4 379.2 269.2 379.2 273.12C379.2 274.64 379.6 276.16 380 276.4C380.48 276.72 380.8 281.2 380.8 287.28C380.8 293.6 380.48 297.6 380 297.6C379.6 297.6 379.2 298.96 379.2 300.56C379.2 304.4 376.88 317.68 376.08 318.8C375.68 319.2 374.96 321.6 374.4 324C373.84 326.4 372.56 330 371.52 332C370.56 334 369.44 336.56 369.2 337.84C368.88 339.04 368.32 340.24 367.92 340.48C367.52 340.64 366.56 342.4 365.68 344.24C358.32 359.84 340.8 378.72 324.08 389.2C323.36 389.6 321.36 390.96 319.6 392.08C317.84 393.28 315.6 394.4 314.64 394.72C313.6 395.04 312.8 395.6 312.8 395.92C312.8 396.24 310.64 397.2 308 398C305.36 398.8 303.2 399.68 303.2 400C303.2 400.32 300.8 401.2 297.84 402C294.8 402.8 292 403.76 291.52 404.08C291.04 404.48 286.72 405.36 281.92 406.08C277.12 406.8 272.56 407.68 271.84 408.08C269.92 409.04 246.64 409.04 246 408C245.76 407.52 244.32 407.2 242.96 407.2C239.6 407.2 226.08 404.72 225.6 404C225.36 403.68 223.44 403.04 221.28 402.48C219.04 401.92 215.68 400.8 213.68 399.92C207.12 396.96 198 392.56 197.6 392.08C197.36 391.84 195.92 390.88 194.4 390.08C192.88 389.2 190.88 387.84 190.08 387.04C189.2 386.24 188.16 385.6 187.68 385.6C187.28 385.6 186.4 385.04 185.68 384.4C179.76 378.88 175.44 376.4 172.88 377.12C172.16 377.28 170.56 377.68 169.36 377.92C167.76 378.32 166.72 379.28 165.92 381.2C163.68 386.56 165.12 391.28 169.92 394C171.28 394.8 172.88 396.16 173.44 396.96C174 397.76 174.96 398.4 175.6 398.4C176.24 398.4 177.04 398.88 177.36 399.44C178.16 400.72 186.32 406 188.64 406.72C189.6 407.04 190.4 407.6 190.4 407.92C190.4 408.4 195.04 410.72 205.6 415.44C208 416.48 211.84 417.84 214 418.4C216.24 418.96 218.4 419.68 218.8 420C219.84 420.8 231.6 423.2 234.4 423.2C235.68 423.2 236.8 423.68 236.96 424.16C237.44 425.6 278.08 425.6 280.88 424.24C281.92 423.76 286.32 422.72 290.64 422C294.88 421.28 298.4 420.4 298.4 420.08C298.4 419.76 300.24 419.04 302.48 418.56C304.64 418 308.48 416.72 310.88 415.6C313.28 414.48 315.76 413.6 316.4 413.6C316.96 413.6 318 413.12 318.56 412.56C319.12 412 320.88 411.04 322.4 410.4C323.92 409.84 325.76 408.88 326.4 408.4C327.04 407.84 328.88 406.72 330.4 406C331.92 405.2 333.36 404.32 333.6 404C333.84 403.68 335.2 402.8 336.64 402.08C338 401.36 339.2 400.4 339.2 400C339.2 399.6 339.84 399.12 340.64 398.88C342 398.4 343.6 397.2 351.12 390.56C356.56 385.84 357.84 384.56 362.56 379.12C368.56 372.24 370.4 370 370.4 369.52C370.4 369.28 371.28 368 372.4 366.72C373.52 365.44 374.4 364.16 374.4 363.84C374.4 363.52 374.88 362.8 375.44 362.24C375.92 361.68 377.12 359.76 378 358C378.88 356.24 379.84 354.64 380.16 354.4C381.04 353.68 387.2 340.16 387.2 338.88C387.2 338.16 387.52 337.6 387.92 337.6C388.32 337.6 389.28 335.2 390.08 332.16C390.8 329.2 391.76 326.4 392.08 325.92C392.48 325.52 393.36 321.52 394.08 317.12C394.8 312.8 395.76 308.32 396.32 307.28C397.6 304.4 397.52 267.04 396.24 266.56C395.68 266.4 395.2 265.44 395.2 264.4C395.2 261.36 392.8 248.56 392 247.6C391.6 247.2 390.88 244.96 390.32 242.8C389.76 240.56 388.72 237.52 387.84 236C387.04 234.48 386.4 232.88 386.4 232.48C386.4 232.08 384.88 228.72 383.04 224.96C378.08 215.12 377.2 213.52 376.32 212.96C375.84 212.64 374.88 211.04 374.16 209.36C373.36 207.76 372.4 206.4 372 206.4C371.6 206.4 371.12 205.76 370.88 204.96C370.56 204.16 369.76 202.8 368.96 201.92C368.24 201.04 366 198.4 364.08 196.08C360.32 191.6 350 181.36 348.72 180.88C348.24 180.8 347.04 179.84 346 178.88C344.96 178 343.6 176.72 342.88 176.16C341.76 175.28 341.6 172.72 341.6 158.08C341.6 141.6 341.68 140.96 343.12 141.36C344 141.6 345.36 142.32 346.16 143.04C346.96 143.84 348.96 145.12 350.64 146C352.24 146.88 353.6 147.84 353.6 148.16C353.6 148.4 354.24 148.88 355.04 149.12C355.76 149.36 357.84 150.8 359.6 152.4C361.36 153.92 362.96 155.2 363.2 155.2C365.2 155.28 385.92 176.16 390.16 182.4C390.88 183.52 391.68 184.56 391.92 184.8C393.28 186 397.6 192 397.6 192.64C397.6 193.04 398.16 193.84 398.88 194.48C399.52 195.04 400.88 196.96 401.76 198.72C402.64 200.56 403.68 202.16 403.92 202.4C404.24 202.64 405.12 204.32 405.92 206.16C406.8 208.08 407.68 209.6 408 209.6C408.24 209.6 409.12 211.52 410 213.76C410.8 216.08 411.76 218.16 412.08 218.4C412.32 218.64 413.2 220.56 413.92 222.8C414.72 224.96 415.6 227.12 416 227.6C416.32 228 417.28 230.72 418 233.6C418.72 236.48 419.6 239.12 420 239.6C420.32 240 421.28 243.6 422 247.6C422.72 251.52 423.68 255.52 424 256.4C427.04 263.36 427.04 309.44 424 316.4C423.68 317.28 422.72 321.2 422 325.2C421.28 329.12 420.4 332.72 420 333.2C419.68 333.6 418.8 336.48 418 339.6C417.12 342.64 416.24 345.36 416 345.6C415.68 345.84 414.96 347.44 414.4 349.2C413.84 350.96 412.96 353.12 412.48 354C411.92 354.88 410.8 357.28 410 359.36C409.2 361.52 408.32 363.2 408.08 363.2C407.76 363.2 406.88 364.8 406.08 366.8C405.2 368.8 404.24 370.4 403.84 370.4C403.52 370.4 403.2 370.8 403.2 371.28C403.2 371.76 402.08 373.76 400.8 375.76C399.52 377.68 398.4 379.44 398.4 379.6C398.4 380.24 391.44 389.52 387.6 394C384.64 397.44 368.48 413.68 365.84 415.84C364.64 416.8 362.56 418.48 361.28 419.6C360 420.72 358.72 421.6 358.48 421.6C358.24 421.6 356.72 422.72 355.2 424C353.68 425.28 352 426.4 351.44 426.4C350.88 426.4 350.16 426.88 349.84 427.44C349.52 428 347.76 429.12 346 430C344.24 430.88 342.64 431.84 342.4 432.08C341.68 432.96 329.28 439.2 328.24 439.2C327.68 439.2 327.2 439.52 327.2 439.92C327.2 440.4 325.04 441.36 322.4 442.16C319.76 442.88 317.6 443.76 317.6 444.08C317.6 444.4 315.2 445.28 312.24 446.08C309.2 446.8 306.4 447.76 306 448.08C305.52 448.4 301.76 449.28 297.6 450.08C293.44 450.88 289.84 451.76 289.6 452.08C288.72 453.2 272.24 454.48 258.88 454.48C245.52 454.48 228.08 453.12 227.2 452.08C226.96 451.76 223.28 450.88 219.04 450.08C214.72 449.28 211.2 448.4 211.2 448.08C211.2 447.76 208.48 446.8 205.2 446C201.92 445.12 199.2 444.24 199.2 444C199.2 443.68 197.04 442.8 194.4 442C191.76 441.2 189.6 440.32 189.6 440C189.6 439.76 187.84 438.88 185.6 438.08C183.44 437.28 181.6 436.4 181.6 436.08C181.6 435.84 180 434.88 178 434C176 433.12 174.4 432.24 174.4 431.92C174.4 431.6 173.44 430.96 172.24 430.48C170.96 430 168.24 428.32 166 426.72C163.84 425.2 160.8 423.2 159.44 422.24C158 421.36 156.8 420.4 156.8 420.08C156.8 419.76 155.84 418.96 154.64 418.24C149.76 415.36 127.2 393.2 127.2 391.36C127.2 391.12 125.92 389.44 124.4 387.52C122.88 385.68 121.6 383.76 121.6 383.28C121.6 382.72 121.12 382.16 120.48 381.92C119.92 381.68 118.8 380.08 118 378.32C117.2 376.64 116.32 375.2 116 375.2C115.68 375.2 114.96 374.08 114.4 372.72C113.84 371.36 112.96 369.84 112.48 369.36C111.36 368.16 105.6 356.4 105.6 355.36C105.6 354.88 105.12 354 104.56 353.44C104 352.88 102.88 350.16 102.08 347.36C101.2 344.64 100.32 342.4 100 342.4C99.68 342.4 98.8 339.6 98 336.16C97.2 332.8 96.32 329.6 95.92 329.2C95.6 328.72 94.72 324.4 94 319.6C93.28 314.72 92.24 309.92 91.76 308.88C90.4 306.24 90.48 266.56 91.76 263.92C92.24 262.88 93.28 258 94 253.2C94.72 248.32 95.68 244 96 243.6C96.32 243.12 97.2 240.24 98 237.2C98.72 234.08 99.68 231.2 100 230.8C100.32 230.32 101.28 227.92 102.08 225.36C102.88 222.88 103.76 220.8 104.16 220.8C104.48 220.8 104.8 220.32 104.8 219.76C104.8 218.96 108.16 212.16 114 200.8C114.8 199.28 115.68 197.84 116 197.6C116.32 197.36 117.2 196 118.08 194.48C118.88 192.96 120.16 191.04 120.8 190.32C121.44 189.52 122.64 188.08 123.36 187.04C127.12 181.84 135.04 172.64 139.52 168C145.04 162.48 158.08 151.44 161.28 149.76C162.32 149.2 163.2 148.48 163.2 148.16C163.2 147.84 164.32 147.12 165.6 146.56C166.96 145.92 168.48 144.96 169.04 144.48C169.84 143.6 174.24 140.96 175.04 140.8C175.12 140.8 175.2 148.56 175.2 158ZM312 307.44C312 307.52 306.24 313.36 299.2 320.4L286.4 333.2V320.16V307.2H299.2C306.24 307.2 312 307.28 312 307.44Z" fill="#465841"/>
<path d="M4 62.96C3.36 63.2 2.24 64.24 1.44 65.12C0.16 66.72 0.08 70.96 0 130.4C0 198.4 0.08 199.68 4 204.96C4.88 206.16 5.6 207.44 5.6 207.76C5.6 208.32 9.76 212.8 13.36 216.16C14.16 216.88 15.76 217.92 16.96 218.48C18.24 219.04 19.2 219.68 19.2 220C19.2 220.32 21.52 221.28 24.4 222.08L29.6 223.6V326.16V428.72L31.68 430.96C33.36 432.8 34.4 433.2 37.44 433.2C40.48 433.2 41.68 432.72 43.6 430.88L46 428.64L46.24 326.08L46.4 223.44L49.76 222.48C58 220 68.48 211.68 70.56 205.92C71.12 204.4 71.76 203.2 72.16 203.2C72.96 203.2 75.2 195.44 75.2 192.64C75.2 191.44 75.6 190.4 76 190.4C76.56 190.4 76.8 169.6 76.8 129.6C76.8 89.6 76.56 68.8 76 68.8C75.6 68.8 75.2 68.32 75.2 67.76C75.2 67.12 74.48 65.76 73.52 64.72C72.16 63.12 71.12 62.8 67.6 62.88C64 62.88 63.12 63.2 61.36 65.28L59.28 67.6L59.2 113.36V159.2H52.4H45.6L45.44 112.96L45.2 66.8L43.2 64.8C41.6 63.2 40.4 62.8 36.96 62.8C33.28 62.8 32.4 63.12 30.72 65.04L28.8 67.28V113.28V159.2H22H15.2V112.96V66.64L13.28 64.88C11.36 63.04 6.24 62 4 62.96ZM59.04 184.16C58.48 194 56.64 197.84 49.92 203.2C44.16 207.84 28.96 208 26.16 203.44C25.84 202.88 25.04 202.4 24.4 202.4C23.76 202.4 22.64 201.44 21.84 200.16C21.04 198.96 20 197.6 19.52 197.2C18.32 196.16 16.8 191.44 16.8 188.72C16.8 187.52 16.48 186.24 16 186C15.6 185.76 15.2 183.52 15.2 181.12V176.8H37.28H59.44L59.04 184.16Z" fill="#465841"/>
<path d="M500.8 62.96C500.16 63.2 499.44 63.68 499.2 64C498.96 64.32 497.44 65.2 495.84 65.84C494.16 66.56 492.8 67.52 492.8 67.92C492.8 68.4 492.4 68.8 491.92 68.8C489.76 68.8 470.4 85.92 470.4 87.84C470.4 88.32 469.76 89.2 468.96 89.76C468.16 90.32 466.8 92.08 465.92 93.6C465.12 95.12 464 96.64 463.52 96.96C463.04 97.28 462.16 98.64 461.6 100C461.04 101.28 460.4 102.4 460.08 102.4C459.76 102.4 458.88 104.16 458.08 106.4C457.28 108.56 456.4 110.4 456.08 110.4C455.76 110.4 454.88 112.48 454.08 114.96C453.28 117.52 452.24 120.64 451.6 122C451.04 123.28 450.16 127.12 449.6 130.4C449.04 133.68 448.24 137.28 447.76 138.32C446.4 141.04 446.4 226.16 447.76 228.88C448.24 229.92 449.2 232.32 449.92 234.24C451.44 238.4 451.92 238.96 457.68 244.8C460.64 247.76 463.44 249.68 465.68 250.4C467.6 251.04 469.44 251.92 469.76 252.4C470.08 252.88 475.6 253.28 483.6 253.44L496.8 253.76V341.6V429.44L499.36 431.6C501.52 433.44 502.48 433.68 505.36 433.36C507.68 433.12 509.28 432.4 510.4 431.12C511.92 429.2 511.92 427.36 511.92 248C511.92 68.64 511.92 66.8 510.4 64.88C508.72 62.96 503.36 61.84 500.8 62.96ZM496.8 162V236.8H486.96C478.72 236.8 476.64 236.56 474 235.2C469.36 232.88 465.68 228.48 465.12 224.72C464.8 222.96 464.24 221.36 463.92 221.12C462.88 220.48 462.96 152.24 464 151.6C464.48 151.36 464.8 149.04 464.8 146.56C464.8 141.52 467.04 127.84 468 127.2C468.4 126.96 469.28 124.72 470 122.16C470.72 119.68 471.6 117.6 471.92 117.6C472.24 117.6 473.04 116.16 473.6 114.4C474.16 112.64 475.28 110.64 476.16 109.92C476.96 109.12 477.6 108.16 477.6 107.68C477.6 105.52 493.76 87.44 495.84 87.28C496.56 87.2 496.8 102.64 496.8 162Z" fill="#465841"/>
<path d="M231.44 82.96C230.4 83.12 229.6 83.68 229.6 84.08C229.6 84.48 229.12 84.8 228.48 84.8C223.52 84.8 212.88 97.2 212.8 102.96C212.8 104 212.48 104.8 212 104.8C210.96 104.8 210.88 121.36 211.92 121.92C212.32 122.24 212.88 123.84 213.2 125.52C213.52 127.28 214.8 130.32 216.08 132.4C217.36 134.4 218.4 136.32 218.4 136.56C218.4 137.12 218.64 137.36 225.76 144.96C228.56 148 231.2 150.4 231.76 150.4C232.32 150.4 233.12 151.12 233.6 152C234.08 152.88 234.88 153.6 235.44 153.6C236 153.6 237.36 154.48 238.64 155.52C239.84 156.56 241.92 157.84 243.2 158.4C244.56 158.96 245.6 159.68 245.6 160C245.6 160.32 247.28 161.2 249.44 162C251.52 162.8 253.52 163.76 253.92 164.08C254.96 164.96 261.6 165.04 261.6 164.16C261.6 163.76 262.96 163.04 264.64 162.56C266.32 162 268.56 160.88 269.6 160C270.64 159.12 271.84 158.4 272.24 158.4C274 158.4 284.88 150.24 290 145.12C296.32 138.72 302 129.36 302.88 123.84C303.2 122.16 303.76 120.56 304.08 120.32C305.12 119.76 304.96 104.8 304 104.8C303.6 104.8 303.2 104.16 303.2 103.36C303.12 101.12 301.28 96.56 299.6 94.48C295.52 89.68 292.16 86.64 289.6 85.6C288.08 84.96 286.56 84.16 286.24 83.68C285.92 83.2 282.16 82.72 277.76 82.56C269.44 82.24 265.6 83.2 259.68 87.44C258.32 88.4 257.2 88.72 256.88 88.24C256.64 87.76 254.64 86.4 252.4 85.2C248.88 83.2 247.44 82.88 240.8 82.72C236.64 82.64 232.4 82.72 231.44 82.96ZM244.88 101.28C246.96 102.56 248.64 104.48 249.6 106.56C250.64 108.88 252 110.32 254.08 111.36C257.76 113.12 257.92 113.12 261.68 111.36C264 110.4 265.12 109.12 266.16 106.64C267.12 104.48 268.56 102.72 270.24 101.84C271.6 101.04 272.8 100.16 272.8 99.84C272.8 99.44 274.08 99.2 275.68 99.2C279.2 99.2 284.24 102.56 286 106.16C288.4 111.12 286.8 121.92 283.12 125.84C282.32 126.8 281.6 127.76 281.6 128.08C281.6 128.96 276 134.56 272.4 137.2C270.64 138.56 269.04 139.84 268.8 140.08C268.56 140.32 267.12 141.2 265.6 142.08C264.08 142.88 262.64 143.84 262.4 144.08C261.28 145.36 258.16 146.4 256.72 146C255.76 145.68 253.52 144.4 251.6 143.12C249.68 141.84 247.92 140.8 247.68 140.8C246.56 140.8 233.6 128.48 233.6 127.36C233.6 126.88 233.12 126.16 232.48 125.84C230.72 124.8 228.8 117.92 228.8 112.56C228.8 106.88 230.32 103.92 234.56 101.04C238.08 98.72 240.96 98.8 244.88 101.28Z" fill="#465841"/>
<path d="M220.8 198.96C216.8 200.56 215.28 209.12 218.32 212.88L219.84 214.8L257.92 215.04L296 215.28L298.48 212.8C300.64 210.8 301.04 209.76 301.04 206.8C301.04 203.84 300.64 202.88 298.48 200.88L295.84 198.4L258.88 198.48C238.64 198.48 221.44 198.72 220.8 198.96Z" fill="#465841"/>
<path d="M220.8 238.16C216.8 239.6 215.28 248 218.4 252L219.92 254H258.32H296.8L298.96 251.68C302.08 248.24 301.92 243.28 298.56 240L296 237.6L259.04 237.68C238.64 237.68 221.44 237.92 220.8 238.16Z" fill="#465841"/>
</svg>
