<svg width="272" height="272" viewBox="0 0 272 272" fill="none" xmlns="http://www.w3.org/2000/svg">
<g clip-path="url(#clip0_115_7)">
<path d="M138.125 0C139.719 -0.166016 139.719 -0.166016 141.313 0C142.691 1.37855 142.5 2.31755 142.507 4.19523C142.501 4.85267 142.501 4.85267 142.496 5.52339C142.496 5.98471 142.496 6.44602 142.496 6.92132C142.495 8.45061 142.487 9.97977 142.479 11.509C142.477 12.5676 142.475 13.6261 142.474 14.6846C142.47 17.4742 142.46 20.2637 142.448 23.0532C142.437 25.8984 142.432 28.7435 142.427 31.5886C142.415 37.1737 142.397 42.7587 142.375 48.3438C142.838 48.3397 143.301 48.3356 143.778 48.3313C144.391 48.3282 145.004 48.325 145.636 48.3217C146.242 48.3176 146.847 48.3135 147.471 48.3093C150.159 48.3604 152.747 48.7418 155.391 49.207C155.937 49.3017 156.483 49.3964 157.046 49.4939C176.312 52.9939 194.564 61.7314 208.472 75.6616C209.394 76.5821 210.328 77.4903 211.274 78.3864C227.642 94.1308 238.475 117.944 239.12 140.69C239.153 142.648 239.161 144.605 239.161 146.563C239.162 147.776 239.172 148.987 239.182 150.2C239.208 156.88 238.558 163.372 237.07 169.9C236.936 170.492 236.936 170.492 236.799 171.096C233.53 184.952 227.392 198.279 218.344 209.312C218.105 209.604 217.866 209.896 217.62 210.197C200.144 231.43 176.039 244.622 148.551 247.332C136.284 248.375 123.937 247.207 112.094 243.844C111.72 243.738 111.346 243.632 110.961 243.523C106.007 242.079 101.32 240.201 96.6543 238C96.1994 237.786 95.7445 237.572 95.2759 237.351C92.2036 235.858 89.3885 234.118 86.5938 232.156C86.7691 230.929 86.9444 229.702 87.125 228.438C90.0544 228.147 91.9073 229.131 94.3633 230.562C97.8605 232.51 101.401 234.163 105.121 235.643C105.579 235.826 106.037 236.01 106.509 236.2C108.961 237.185 108.961 237.185 111.563 237.469C111.208 237.198 110.854 236.926 110.49 236.647C102.788 230.572 96.924 223.193 92.1055 214.691C91.9035 214.339 91.7014 213.986 91.4933 213.623C90.4952 211.834 89.6462 210.087 88.9678 208.152C87.3405 203.769 85.637 201.597 81.3555 199.529C79.7491 198.818 78.135 198.129 76.5166 197.447C73.4049 196.126 70.6108 194.516 67.8008 192.645C67.1949 192.255 67.1949 192.255 66.5767 191.859C63.9149 190.055 63.9149 190.055 63.1648 188.241C63.2188 187 63.2188 187 64.2813 185.406C66.4249 185.029 67.3654 185.347 69.2617 186.438C69.9079 186.896 70.5497 187.36 71.1875 187.83C74.92 190.458 78.7374 192.512 82.875 194.438C82.6757 193.786 82.4765 193.135 82.2711 192.464C80.6621 187.09 79.2732 181.709 78.1602 176.209C77.989 175.379 77.989 175.379 77.8143 174.531C77.2296 171.546 76.9077 168.791 77.0313 165.75C76.709 165.725 76.3868 165.699 76.0548 165.673C72.7759 165.386 69.638 164.86 66.4395 164.09C65.9624 163.976 65.4853 163.861 64.9937 163.743C58.4586 162.112 52.2018 159.808 46.2188 156.719C46.6245 176.599 56.9999 198.419 70.9219 212.367C71.5393 212.945 72.1592 213.521 72.7813 214.094C73.1942 214.514 73.6072 214.933 74.0326 215.366C75.9526 217.257 78.0266 218.957 80.0963 220.682C81.2813 222.062 81.2813 222.062 81.5531 223.758C81.4634 224.25 81.3737 224.743 81.2813 225.25C79.6875 226.312 79.6875 226.312 78.4611 226.29C76.5177 225.599 75.2604 224.371 73.8106 222.959C73.3597 222.529 73.3597 222.529 72.8997 222.09C72.2754 221.492 71.6535 220.891 71.034 220.288C70.1914 219.471 69.3384 218.666 68.4815 217.864C49.6512 199.98 40.6389 174.088 39.8692 148.591C39.4962 127.537 46.4493 106.135 58.9688 89.25C59.2852 88.8206 59.6015 88.3912 59.9275 87.9489C66.0196 79.9056 73.3958 72.0205 81.8125 66.4062C82.1795 66.1592 82.5465 65.9122 82.9246 65.6576C88.6929 61.8072 94.5417 58.469 100.938 55.7812C101.283 55.635 101.628 55.4887 101.984 55.3379C112.122 51.1141 123.495 48.3176 134.506 48.3388C134.984 48.3395 135.463 48.3402 135.956 48.341C136.321 48.3419 136.686 48.3428 137.063 48.3438C137.06 47.7616 137.058 47.1795 137.055 46.5797C137.034 41.0998 137.018 35.6199 137.007 30.14C137.002 27.3226 136.994 24.5052 136.982 21.6877C136.971 18.97 136.964 16.2523 136.962 13.5345C136.96 12.4964 136.956 11.4583 136.95 10.4202C136.942 8.9688 136.941 7.51757 136.942 6.06618C136.938 5.63477 136.934 5.20335 136.93 4.75886C136.938 2.71196 136.962 1.7442 138.125 0ZM121.125 57.9062C120.685 58.1405 120.246 58.3747 119.793 58.616C107.753 65.4475 98.6037 77.2864 92.9688 89.7812C92.9688 90.1319 92.9688 90.4825 92.9688 90.8438C95.5783 90.2768 98.1763 89.6825 100.767 89.0363C106.524 87.6076 112.202 86.2201 118.117 85.6383C119.408 85.508 119.408 85.508 121.125 85C121.986 83.3058 122.416 81.5649 122.816 79.7145C122.926 79.2197 123.035 78.7249 123.147 78.2151C123.258 77.7039 123.368 77.1927 123.482 76.666C124.313 72.8348 125.255 69.0826 126.438 65.3438C127.5 65.3211 128.563 65.3221 129.625 65.3438C129.8 65.5191 129.976 65.6944 130.156 65.875C129.837 69.7819 128.847 73.4996 127.887 77.2896C127.77 77.7652 127.652 78.2408 127.531 78.7308C127.423 79.1573 127.315 79.5837 127.204 80.023C126.887 81.5031 126.887 81.5031 126.969 83.9375C135.384 83.9375 143.799 83.9375 152.469 83.9375C152.05 80.1647 151.468 76.8704 150.51 73.2461C150.369 72.7112 150.228 72.1763 150.082 71.6252C147.512 61.7613 147.512 61.7613 141.711 53.6562C135.395 51.3596 126.737 54.9164 121.125 57.9062ZM148.219 54.1875C148.367 54.4799 148.516 54.7723 148.669 55.0736C153.238 64.5503 155.59 74.7646 157.781 85C158.277 85.0757 158.277 85.0757 158.783 85.1529C166.903 86.4082 175.123 87.6848 182.912 90.3914C184.431 90.9504 184.431 90.9504 186.469 90.8438C183.007 78.0343 171.035 65.2028 159.782 58.7031C158.995 58.2676 158.207 57.8359 157.416 57.4082C157.05 57.2076 156.685 57.007 156.308 56.8003C153.682 55.4297 151.132 54.6995 148.219 54.1875ZM108.85 58.1034C108.419 58.2749 107.989 58.4465 107.545 58.6232C107.085 58.814 106.625 59.0047 106.15 59.2012C105.676 59.3953 105.201 59.5895 104.712 59.7895C81.327 69.5 62.1063 87.5153 52.335 111.077C50.4354 115.71 50.4354 115.71 49.4063 120.594C50.7598 119.294 52.0039 117.932 53.2246 116.51C58.2768 110.73 63.9213 106.175 70.3574 102.033C70.7072 101.807 71.057 101.581 71.4173 101.348C73.4621 100.079 75.4647 99.09 77.7244 98.2563C82.8304 96.317 86.1791 94.7315 88.6761 89.675C89.6011 87.5542 90.4641 85.4138 91.3024 83.2574C95.1693 74.0052 104.014 63.0728 112.625 57.9062C110.815 57.3028 110.544 57.4228 108.85 58.1034ZM166.813 57.375C167.167 57.6441 167.521 57.9133 167.885 58.1906C174.912 64.0012 180.889 70.8777 185.672 78.625C185.872 78.9485 186.072 79.272 186.279 79.6053C187.438 81.5636 188.317 83.49 189.075 85.6371C191.057 90.993 192.819 94.2201 198.086 96.8095C200.397 97.8243 202.728 98.7793 205.07 99.7181C207.324 100.696 209.323 101.932 211.338 103.328C211.649 103.54 211.959 103.751 212.279 103.969C213.925 105.123 215.436 106.319 216.75 107.844C216.883 109.305 216.883 109.305 216.75 110.5C213.365 110.991 211.359 109.319 208.682 107.512C207.785 106.925 206.887 106.34 205.988 105.756C205.556 105.474 205.125 105.192 204.68 104.902C200.86 102.179 200.86 102.179 196.563 100.938C197.129 103.547 197.724 106.145 198.37 108.736C199.8 114.493 201.142 120.197 201.908 126.085C202.157 128.358 202.157 128.358 203.469 130.156C204.827 130.558 204.827 130.558 206.43 130.864C207.033 130.991 207.636 131.117 208.258 131.248C209.224 131.447 209.224 131.447 210.209 131.65C218.565 133.449 226.086 135.947 233.75 139.719C234.098 127.067 229.119 114.005 223.125 103.062C222.865 102.55 222.605 102.037 222.336 101.508C212.108 81.6538 193.629 67.4662 173.287 59.2344C172.827 59.048 172.366 58.8617 171.892 58.6697C171.246 58.415 171.246 58.415 170.587 58.1553C170.205 58.0043 169.822 57.8533 169.428 57.6977C168.332 57.295 168.332 57.295 166.813 57.375ZM125.906 89.25C123.67 101.054 122.94 112.812 122.188 124.844C133.758 124.844 145.329 124.844 157.25 124.844C156.514 111.703 156.514 111.703 155.092 98.6797C155 97.9887 154.908 97.2977 154.813 96.5858C154.334 92.8869 154.334 92.8869 153.531 89.25C149.335 88.6491 145.164 88.6377 140.935 88.6495C139.722 88.6523 138.508 88.6495 137.295 88.6461C133.466 88.6446 129.704 88.7062 125.906 89.25ZM158.844 89.7812C159.155 94.2497 159.589 98.6842 160.139 103.129C160.832 108.876 161.318 114.621 161.688 120.398C161.745 121.26 161.745 121.26 161.803 122.14C161.835 122.65 161.866 123.16 161.899 123.686C161.908 124.831 161.908 124.831 162.563 125.375C164.147 125.562 165.724 125.718 167.313 125.854C167.799 125.898 168.285 125.942 168.786 125.987C170.352 126.129 171.919 126.267 173.486 126.404C175.524 126.584 177.561 126.766 179.598 126.95C180.095 126.995 180.593 127.039 181.105 127.086C184.785 127.424 188.443 127.86 192.103 128.369C193.958 128.568 195.761 128.596 197.625 128.562C196.777 119.566 194.618 110.625 191.748 102.066C191.631 101.7 191.514 101.335 191.393 100.957C190.818 99.3453 190.326 98.3901 188.969 97.3246C179.629 93.1867 168.958 90.916 158.844 89.7812ZM101.336 93.7656C100.793 93.9167 100.251 94.0677 99.6914 94.2233C98.15 94.6663 96.6213 95.1368 95.0938 95.625C94.5957 95.7779 94.0977 95.9308 93.5846 96.0883C91.2821 96.8797 90.0765 97.3171 88.6773 99.3687C88.4718 100.018 88.2664 100.667 88.0547 101.336C87.9364 101.697 87.8181 102.058 87.6962 102.43C87.2965 103.696 86.9411 104.969 86.5938 106.25C86.4541 106.762 86.3144 107.273 86.1704 107.8C83.2908 118.039 83.2908 118.039 82.3438 128.562C87.2077 128.247 92.0437 127.814 96.8867 127.268C103.718 126.514 110.555 125.905 117.406 125.375C117.446 124.846 117.486 124.318 117.527 123.773C118.932 105.288 118.932 105.288 120.108 96.7861C120.432 94.4278 120.676 92.1698 120.594 89.7812C114.284 89.7812 107.352 92.0814 101.336 93.7656ZM66.4063 110.5C66.1334 110.717 65.8605 110.934 65.5793 111.157C59.5232 116.003 54.3359 121.238 50.4688 128.031C50.0425 128.757 50.0425 128.757 49.6076 129.498C46.851 134.537 43.6599 142.897 45.1563 148.75C46.6603 151.134 48.5495 152.302 51.0332 153.498C51.4046 153.679 51.7759 153.86 52.1585 154.046C59.8972 157.689 68.1248 159.468 76.5 160.969C76.4839 160.595 76.4678 160.222 76.4513 159.838C76.1002 151.532 75.8931 143.25 75.9688 134.938C71.2996 135.576 71.2996 135.576 66.7051 136.598C64.925 137.035 63.4474 137.154 61.625 137.062C61.0274 134.539 61.0274 134.539 61.625 133.344C62.8708 132.939 62.8708 132.939 64.5075 132.561C65.0954 132.423 65.6833 132.285 66.289 132.143C66.9084 132.003 67.5279 131.862 68.166 131.717C68.7793 131.574 69.3925 131.431 70.0244 131.284C71.1672 131.018 72.3105 130.754 73.4543 130.492C74.6502 130.216 75.8417 129.928 77.0313 129.625C77.107 129.129 77.107 129.129 77.1842 128.623C78.4394 120.503 79.716 112.283 82.4226 104.494C82.9817 102.975 82.9817 102.975 82.875 100.938C77.7618 100.938 70.2019 107.457 66.4063 110.5ZM122.188 130.156C121.687 131.851 121.589 133.374 121.588 135.137C121.586 135.708 121.584 136.279 121.582 136.868C121.584 137.483 121.585 138.098 121.586 138.731C121.585 139.366 121.585 140.002 121.584 140.657C121.584 142.002 121.585 143.347 121.587 144.692C121.59 146.742 121.587 148.793 121.584 150.844C121.584 152.152 121.585 153.46 121.586 154.768C121.585 155.379 121.584 155.989 121.582 156.618C121.584 157.196 121.586 157.774 121.588 158.369C121.588 158.872 121.588 159.375 121.589 159.894C121.671 161.854 121.944 163.803 122.188 165.75C133.933 165.75 145.679 165.75 157.781 165.75C157.781 154.004 157.781 142.258 157.781 130.156C154.143 129.719 154.143 129.719 150.544 129.556C150.125 129.555 149.706 129.553 149.274 129.551C148.838 129.552 148.401 129.553 147.951 129.554C147.483 129.554 147.014 129.553 146.532 129.553C145.546 129.553 144.56 129.554 143.573 129.556C142.093 129.559 140.613 129.556 139.133 129.552C133.462 129.55 127.842 129.715 122.188 130.156ZM162.563 130.156C162.563 141.727 162.563 153.297 162.563 165.219C172.275 164.798 172.275 164.798 181.92 163.924C182.546 163.854 183.172 163.784 183.817 163.711C185.587 163.511 187.356 163.304 189.125 163.094C189.593 163.038 190.061 162.982 190.543 162.925C194.468 162.629 194.468 162.629 198.156 161.5C198.827 158.806 198.765 156.088 198.758 153.33C198.759 152.621 198.759 152.621 198.76 151.898C198.76 150.902 198.759 149.907 198.757 148.912C198.754 147.392 198.757 145.872 198.76 144.352C198.76 143.382 198.759 142.413 198.758 141.443C198.76 140.764 198.76 140.764 198.761 140.071C198.753 137.936 198.689 135.959 198.156 133.875C180.442 131.121 180.442 131.121 162.563 130.156ZM111.39 130.449C111.002 130.48 110.614 130.511 110.214 130.543C108.948 130.645 107.682 130.749 106.416 130.854C105.987 130.889 105.558 130.924 105.116 130.961C93.088 131.728 93.088 131.728 81.2813 133.875C80.6643 138.145 80.6691 142.395 80.6808 146.698C80.6836 147.95 80.6808 149.202 80.6774 150.454C80.6758 154.345 80.7236 158.172 81.2813 162.031C88.8911 163.107 96.4978 164.174 104.158 164.82C104.89 164.884 104.89 164.884 105.636 164.949C109.413 165.245 113.054 165.219 116.875 165.219C116.875 153.648 116.875 142.078 116.875 130.156C115.036 130.156 113.221 130.301 111.39 130.449ZM203.469 134.938C203.469 143.353 203.469 151.768 203.469 160.438C207.468 160.038 210.873 159.519 214.691 158.512C215.223 158.372 215.754 158.232 216.301 158.087C225.857 155.482 225.857 155.482 233.75 149.812C234.538 148.236 234.538 148.236 234.281 146.625C232.777 144.321 230.996 143.1 228.57 141.91C228.21 141.731 227.849 141.553 227.477 141.368C220.438 138.057 211.318 134.938 203.469 134.938ZM230.031 157.848C223.092 161.347 215.547 163.071 207.989 164.685C207.417 164.809 206.846 164.933 206.258 165.061C205.746 165.169 205.233 165.276 204.706 165.387C203.38 165.669 203.38 165.669 202.406 166.812C202.062 168.172 202.062 168.172 201.834 169.778C201.683 170.695 201.683 170.695 201.53 171.63C201.425 172.286 201.319 172.943 201.211 173.619C200.309 179.019 199.185 184.229 197.515 189.444C197.383 189.865 197.251 190.285 197.115 190.719C196.995 191.08 196.876 191.442 196.753 191.814C196.53 193.02 196.721 193.813 197.094 194.969C205.199 190.906 212.302 186.389 218.875 180.094C219.335 179.655 219.795 179.217 220.27 178.766C220.686 178.327 221.102 177.889 221.531 177.438C221.846 177.114 222.16 176.791 222.484 176.458C227.549 171.05 231.945 164.121 233.219 156.719C231.855 156.719 231.227 157.187 230.031 157.848ZM81.8125 166.812C83.3499 183.766 83.3499 183.766 90.3935 197.984C92.2755 198.859 94.1869 199.568 96.1563 200.215C96.5705 200.351 96.9846 200.488 97.4114 200.628C104.98 203.056 112.686 204.78 120.594 205.594C120.305 200.203 119.706 194.862 119.085 189.501C118.52 184.533 118.106 179.562 117.797 174.572C117.76 174.048 117.724 173.524 117.686 172.984C117.658 172.522 117.629 172.059 117.599 171.583C117.535 171.236 117.472 170.889 117.406 170.531C115.816 169.736 114.137 169.779 112.388 169.656C111.561 169.593 110.734 169.53 109.906 169.467C109.472 169.435 109.037 169.403 108.589 169.37C100.702 168.782 92.8699 168.048 85.0372 166.934C83.7699 166.774 83.7699 166.774 81.8125 166.812ZM193.128 167.24C192.406 167.332 191.684 167.423 190.962 167.514C190.581 167.562 190.2 167.611 189.808 167.66C182.923 168.526 176.06 169.24 169.133 169.683C168.583 169.719 168.034 169.754 167.468 169.79C166.993 169.819 166.517 169.847 166.028 169.876C164.666 170.002 163.366 170.239 162.031 170.531C161.991 171.076 161.951 171.621 161.91 172.182C161.165 182.281 160.404 192.348 158.965 202.377C158.805 203.638 158.805 203.638 158.844 205.594C166.289 204.95 173.414 203.251 180.625 201.344C181.099 201.226 181.572 201.109 182.06 200.987C186.856 199.851 186.856 199.851 190.683 196.948C191.468 195.244 191.884 193.61 192.313 191.781C192.567 190.912 192.826 190.045 193.089 189.179C196.402 178.173 196.402 178.173 197.625 166.812C196.106 166.812 194.635 167.046 193.128 167.24ZM122.188 170.531C122.501 177.436 122.812 184.169 123.608 191.009C123.751 192.237 123.886 193.467 124.021 194.696C124.453 198.559 124.947 202.351 125.906 206.125C127.436 206.562 128.795 206.723 130.385 206.725C131.076 206.728 131.076 206.728 131.781 206.73C132.522 206.728 132.522 206.728 133.277 206.727C133.788 206.727 134.299 206.728 134.825 206.728C135.904 206.729 136.983 206.728 138.062 206.726C139.713 206.723 141.363 206.725 143.014 206.729C144.063 206.729 145.112 206.728 146.16 206.727C146.654 206.728 147.148 206.729 147.656 206.73C148.117 206.728 148.578 206.727 149.053 206.725C149.457 206.725 149.861 206.724 150.278 206.724C151.422 206.655 152.431 206.439 153.531 206.125C154.417 201.685 155.018 197.223 155.553 192.73C155.689 191.587 155.829 190.445 155.969 189.303C156.73 183.025 157.25 176.865 157.25 170.531C145.679 170.531 134.109 170.531 122.188 170.531ZM229.5 175.312C229.204 175.685 228.908 176.058 228.604 176.441C221.591 185.159 212.669 192.956 202.19 197.247C195.527 199.866 195.527 199.866 191.383 205.395C190.929 206.499 190.502 207.608 190.092 208.73C189.358 210.607 188.39 212.342 187.398 214.094C187.203 214.442 187.007 214.79 186.805 215.148C182.274 222.999 176.304 230.015 169.504 235.975C168.762 236.626 168.042 237.302 167.344 238C170.745 237.359 173.83 236.379 177.006 235.012C177.666 234.729 177.666 234.729 178.339 234.441C189.274 229.659 198.606 222.676 207.007 214.274C207.707 213.574 208.413 212.878 209.136 212.201C218.039 203.778 224.371 192.054 228.736 180.725C228.877 180.365 229.017 180.006 229.161 179.636C229.96 177.509 229.96 177.509 229.5 175.312ZM92.9688 204.531C97.0431 218.182 109.004 231.216 121.368 237.936C124.605 239.499 127.676 240.587 131.219 241.188C130.981 240.673 130.744 240.158 130.499 239.627C126.284 230.349 123.943 220.808 121.656 210.906C120.98 210.784 120.304 210.661 119.608 210.535C112.796 209.279 106.067 207.793 99.3438 206.125C98.9791 206.035 98.6144 205.945 98.2387 205.852C96.4806 205.418 94.7238 204.978 92.9688 204.531ZM182.659 205.27C182.103 205.427 181.547 205.584 180.974 205.746C180.377 205.915 179.779 206.084 179.164 206.258C172.979 207.974 166.803 209.223 160.458 210.179C159.274 210.367 159.274 210.367 157.781 210.906C157.319 212.102 157.319 212.102 157.059 213.587C156.88 214.434 156.88 214.434 156.697 215.298C156.573 215.909 156.448 216.519 156.32 217.148C154.538 225.361 152.503 233.863 148.219 241.188C159.301 240.144 169.326 230.865 176.117 222.687C180.474 217.127 183.95 210.885 187 204.531C185.367 204.531 184.222 204.819 182.659 205.27ZM126.969 211.438C127.388 215.21 127.969 218.505 128.928 222.129C129.069 222.664 129.211 223.199 129.356 223.751C131.141 230.323 133.182 237.307 138.125 242.25C139.603 242.695 139.603 242.695 141.313 242.25C149.353 236.251 151.234 220.267 153 211.438C144.41 211.438 135.819 211.438 126.969 211.438Z" fill="#465841"/>
<path d="M239.395 18.2617C240.656 18.5938 240.656 18.5938 241.517 19.7443C242.339 21.4337 242.443 22.5546 242.482 24.423C242.87 30.2175 242.87 30.2175 244.906 35.5938C248.581 38.7006 253.299 40.15 257.855 41.4905C259.25 41.9688 259.25 41.9688 260.313 43.0312C260.493 44.3345 260.493 44.3345 260.313 45.6875C257.406 48.8338 252.191 50.7391 248.411 52.7224C248.069 52.9024 247.727 53.0825 247.374 53.2679C246.5 53.6562 246.5 53.6562 245.438 53.6562C245.378 54.3354 245.378 54.3354 245.317 55.0283C245.164 56.717 245.006 58.4049 244.844 60.0926C244.775 60.8215 244.709 61.5506 244.645 62.2799C244.552 63.3315 244.45 64.3822 244.348 65.433C244.26 66.3803 244.26 66.3803 244.171 67.3467C243.828 69.1467 243.342 70.2563 242.25 71.7188C241.051 72.1047 241.051 72.1047 239.594 71.7188C238.24 70.6735 237.103 69.4513 235.941 68.1992C232.098 63.5781 232.098 63.5781 227.076 60.8427C226.649 60.9146 226.222 60.9865 225.781 61.0605C225.038 61.1735 225.038 61.1735 224.279 61.2888C220.396 62.0606 220.396 62.0606 216.526 62.8888C214.585 63.2258 212.871 63.3905 210.906 63.2188C209.844 61.625 209.844 61.625 209.958 60.1123C210.378 58.426 210.942 57.0857 211.743 55.5468C212.143 54.7532 212.143 54.7532 212.551 53.9437C213.117 52.8403 213.687 51.7391 214.261 50.64C214.526 50.1116 214.79 49.5833 215.063 49.0389C215.31 48.5612 215.557 48.0835 215.811 47.5914C216.465 45.3903 215.478 44.1635 214.442 42.2302C214.177 41.7714 213.912 41.3126 213.639 40.8398C213.353 40.3331 213.066 39.8263 212.771 39.3042C212.168 38.2445 211.561 37.1876 210.949 36.1333C210.664 35.6265 210.38 35.1198 210.087 34.5977C209.823 34.1388 209.56 33.68 209.289 33.2073C208.686 31.6253 208.803 30.8134 209.313 29.2188C209.844 28.6875 209.844 28.6875 211.886 28.5858C213.846 28.604 215.672 28.8371 217.597 29.2042C223.169 30.4913 223.169 30.4913 228.57 29.4719C229.798 28.2232 230.697 26.9821 231.625 25.5C232.277 24.7366 232.94 23.9832 233.617 23.2422C234.193 22.5786 234.769 21.9145 235.344 21.25C237.581 18.6936 237.581 18.6936 239.395 18.2617ZM237.469 26.5625C236.912 27.1693 236.373 27.7926 235.842 28.4219C235.506 28.8054 235.169 29.1889 234.823 29.584C234.115 30.3948 233.416 31.2138 232.727 32.041C230.163 34.9185 230.163 34.9185 228.234 35.3375C227.024 35.3444 225.913 35.2561 224.719 35.0625C224.094 34.9748 223.47 34.8872 222.826 34.7969C222.224 34.7092 221.621 34.6216 221 34.5312C219.58 34.4886 218.172 34.5063 216.75 34.5312C217.778 37.3197 219.271 39.7991 220.755 42.3651C221.618 44.2866 221.839 45.2054 221.531 47.2812C220.916 48.8858 220.158 50.402 219.373 51.9297C218.965 52.733 218.56 53.5381 218.159 54.3452C217.978 54.6977 217.797 55.0502 217.611 55.4134C217.448 55.8585 217.448 55.8585 217.281 56.3125C217.457 56.6631 217.632 57.0137 217.813 57.375C218.332 57.26 218.852 57.1449 219.388 57.0264C221.511 56.5668 223.644 56.1715 225.781 55.7812C226.239 55.6785 226.698 55.5758 227.17 55.47C228.533 55.2856 229.266 55.2927 230.563 55.7812C232.199 57.1521 233.621 58.5985 235.037 60.191C236.313 61.5276 237.438 62.3628 239.063 63.2188C239.657 62.0308 239.703 61.2574 239.785 59.9379C239.819 59.4979 239.853 59.0579 239.888 58.6046C239.957 57.6809 240.018 56.7567 240.071 55.8321C240.256 53.6211 240.43 52.3704 241.769 50.5518C243.576 49.2104 245.416 48.1769 247.43 47.1816C250.025 46.0841 250.025 46.0841 251.813 44.0938C251.496 43.9628 251.18 43.8319 250.854 43.697C249.421 43.0973 247.994 42.4835 246.566 41.8691C246.069 41.6634 245.571 41.4576 245.058 41.2455C244.582 41.0384 244.106 40.8312 243.616 40.6178C243.176 40.4314 242.736 40.245 242.284 40.053C240.277 38.6974 240.018 36.45 239.556 34.1888C239.464 33.742 239.372 33.2952 239.276 32.8348C239.184 32.3756 239.091 31.9164 238.996 31.4434C238.9 30.9739 238.803 30.5045 238.704 30.0208C238.467 28.8685 238.232 27.7157 238 26.5625C237.825 26.5625 237.649 26.5625 237.469 26.5625Z" fill="#465841"/>
<path d="M238.531 223.656C239.715 225.432 239.682 225.739 239.496 227.757C239.021 233.199 239.021 233.199 241.015 238.04C243.192 239.858 245.632 241.157 248.215 242.31C249.156 242.781 249.156 242.781 250.219 243.844C250.285 245.504 250.285 245.504 250.219 247.031C241.063 251.281 241.063 251.281 238 251.281C237.948 251.623 237.896 251.965 237.842 252.317C237.176 256.345 236.082 260.155 234.812 264.031C233.65 264.43 233.65 264.43 232.156 264.562C229.833 263.136 228.296 261.066 226.678 258.918C226.436 258.607 226.195 258.296 225.946 257.976C224.188 255.67 224.188 255.67 224.188 254.469C223.751 254.526 223.751 254.526 223.306 254.585C220.416 254.923 217.533 255.085 214.625 255.133C213.946 255.147 213.266 255.16 212.566 255.174C212.019 255.117 211.471 255.059 210.906 255C209.844 253.406 209.844 253.406 209.844 251.952C210.456 249.955 211.337 248.973 212.689 247.428C215.401 244.301 215.401 244.301 216.128 240.382C215.424 237.638 214.208 235.173 212.947 232.649C212.38 231.349 212.24 230.366 212.5 228.969C213.562 227.906 213.562 227.906 214.642 227.863C217.533 228.178 220.154 228.738 222.901 229.701C224.558 230.126 225.664 230.281 227.375 230.031C228.786 229.128 229.975 228.023 231.193 226.877C231.841 226.284 232.491 225.692 233.142 225.103C233.566 224.706 233.566 224.706 233.999 224.302C235.554 223.068 236.741 222.963 238.531 223.656ZM233.75 231.625C233.371 231.938 232.993 232.251 232.602 232.573C228.417 235.857 228.417 235.857 225.98 235.941C225.389 235.744 224.797 235.547 224.188 235.344C223.315 235.148 222.44 234.96 221.564 234.779C220.845 234.615 220.125 234.449 219.406 234.281C219.515 234.622 219.624 234.962 219.736 235.313C220.179 236.734 220.589 238.163 221 239.594C221.197 240.207 221.394 240.821 221.598 241.453C221.504 244.076 220.23 245.463 218.645 247.49C217.708 248.533 217.708 248.533 217.812 249.687C218.371 249.658 218.929 249.629 219.504 249.598C225.433 249.497 225.433 249.497 227.942 251.555C229.105 253.012 230.143 254.46 231.094 256.062C232.732 254.424 232.754 252.368 233.179 250.138C233.903 248.22 234.571 247.878 236.406 247.031C237.339 246.624 238.28 246.236 239.229 245.869C239.698 245.686 240.167 245.503 240.65 245.315C241.179 245.113 241.179 245.113 241.719 244.906C240.737 243.801 239.9 242.911 238.525 242.329C237.147 241.72 236.337 241.274 235.344 240.125C234.951 237.998 234.874 236.012 234.883 233.858C234.86 233.296 234.836 232.735 234.812 232.156C234.462 231.981 234.111 231.806 233.75 231.625Z" fill="#465841"/>
<path d="M43.7285 31.0117C45.4381 31.4093 45.5688 31.7041 46.4844 33.1367C47.251 34.4228 47.797 35.5375 48.1964 36.9841C48.7506 38.7214 49.1494 39.6188 50.4688 40.9062C53.5426 42.0651 56.8549 42.4602 60.1003 42.8602C61.0938 43.0312 61.0938 43.0312 61.625 43.5625C61.8782 44.9902 61.8782 44.9902 61.625 46.75C60.5916 47.9724 59.3391 48.9233 58.1055 49.9375C55.4574 52.3002 55.4574 52.3002 54.4967 55.609C54.8095 57.4879 55.256 59.2642 55.7812 61.0938C55.9493 62.5992 55.9271 63.8271 55.7812 65.3438C54.1875 66.4062 54.1875 66.4062 52.71 66.3295C50.1288 65.6435 48.0662 64.2344 45.8037 62.8473C44.1421 61.9947 44.1421 61.9947 42.4855 62.4717C40.3028 63.5042 38.1887 64.6356 36.0731 65.7982C34.36 66.4738 33.5895 66.5015 31.875 65.875C31.1537 64.4324 31.3916 63.4586 31.543 61.8574C31.5909 61.3308 31.6388 60.8042 31.6882 60.2616C31.875 58.4375 31.875 58.4375 32.1348 57.2823C32.6264 54.8884 32.6264 54.8884 31.8013 52.679C30.9077 51.7494 29.9815 50.9232 28.9863 50.1035C25.5538 47.1953 25.5538 47.1953 25.2821 44.9467C25.354 44.4899 25.4259 44.0331 25.5 43.5625C27.0009 42.729 28.2192 42.3343 29.9243 42.1638C30.5612 42.097 30.5612 42.097 31.2109 42.0289C31.6492 41.9872 32.0875 41.9454 32.5391 41.9023C32.9856 41.8565 33.4321 41.8106 33.8921 41.7633C34.9902 41.651 36.0888 41.5438 37.1875 41.4375C37.3299 40.9746 37.4724 40.5116 37.6191 40.0347C38.23 38.3065 38.9585 36.7975 39.8438 35.1953C40.1177 34.694 40.3916 34.1927 40.6738 33.6763C41.5603 32.202 42.0432 31.4672 43.7285 31.0117ZM43.5625 39.8438C43.4002 40.2533 43.2379 40.6628 43.0707 41.0847C41.1087 45.3846 41.1087 45.3846 38.8622 46.3121C37.4056 46.5583 36.0073 46.7159 34.5312 46.75C34.5312 47.2759 34.5312 47.8019 34.5312 48.3438C35.0681 48.7492 35.605 49.1546 36.1582 49.5723C37.5761 50.8706 37.7134 51.4256 37.8121 53.3927C37.6666 55.266 37.4674 57.1111 37.1875 58.9688C39.3715 58.2922 39.3715 58.2922 41.4043 57.2754C43.1295 56.5958 44.4409 56.9695 46.2188 57.375C47.7129 58.2051 47.7129 58.2051 48.875 58.9688C49.2256 58.9688 49.5762 58.9688 49.9375 58.9688C49.8728 58.2281 49.8728 58.2281 49.8068 57.4725C49.5351 52.1555 49.5351 52.1555 50.7655 50.2467C51.7969 49.2734 51.7969 49.2734 52.8428 48.4683C53.1112 48.2519 53.3797 48.0355 53.6562 47.8125C53.6562 47.4619 53.6562 47.1113 53.6562 46.75C53.233 46.7411 52.8098 46.7322 52.3738 46.723C50.5196 46.5719 49.0233 46.3546 47.2812 45.6875C45.8018 43.8964 44.9182 42.006 44.0938 39.8438C43.9184 39.8438 43.7431 39.8438 43.5625 39.8438Z" fill="#465841"/>
<path d="M16.4688 184.875C18.1683 184.935 18.1683 184.935 20.1875 185.406C21.1445 186.494 21.9271 187.515 22.7441 188.693C24.0067 190.315 25.0836 191.65 27.196 191.942C28.9456 191.872 30.5955 191.616 32.3031 191.234C33.4999 190.968 33.4999 190.968 35.5938 190.719C36.9406 191.731 36.9406 191.731 37.7188 192.844C37.1027 195.123 36.1312 196.942 34.9297 198.953C33.6958 201.084 33.6958 201.084 33.6348 203.469C33.9306 203.995 34.2264 204.521 34.5312 205.062C35.0168 206.054 35.4919 207.051 35.959 208.051C36.2021 208.54 36.4452 209.029 36.6957 209.532C37.2242 211.009 37.2889 211.612 36.6562 213.031C35.2693 213.725 34.4418 213.523 32.9043 213.363C32.3777 213.318 31.8511 213.273 31.3085 213.226C29.75 213.031 29.75 213.031 28.507 212.67C27.1368 212.308 26.3609 212.178 24.9688 212.5C23.5761 213.658 22.3728 214.824 21.1929 216.191C20.0964 217.453 19.3067 218.277 17.7222 218.863C16.4688 218.875 16.4688 218.875 14.875 217.812C14.6658 216.833 14.6658 216.833 14.6322 215.65C14.5042 210.929 14.5042 210.929 12.4999 206.845C10.4639 205.321 8.18732 204.418 5.84375 203.469C4.78125 202.406 4.78125 202.406 4.71899 200.839C5.01278 200.037 5.01278 200.037 5.3125 199.219C6.73175 198.601 8.02399 198.156 9.49609 197.725C12.4089 196.724 12.4089 196.724 14.3521 194.477C14.9312 192.492 15.12 190.527 15.2527 188.469C15.4062 186.469 15.4062 186.469 16.4688 184.875ZM19.6562 192.844C19.6042 193.209 19.5522 193.574 19.4985 193.95C19.4191 194.429 19.3397 194.907 19.2578 195.4C19.1839 195.875 19.1099 196.35 19.0337 196.839C18.2967 199.046 16.7342 199.612 14.7422 200.646C14.2601 200.877 13.778 201.107 13.2812 201.344C14.6251 202.986 16.0568 203.421 18.0625 204C18.4131 206.104 18.7637 208.208 19.125 210.375C19.6948 209.838 20.2645 209.301 20.8516 208.748C22.9136 207.164 24.2573 207.019 26.8281 207.254C27.8047 207.392 28.78 207.541 29.75 207.719C29.5856 207.27 29.4213 206.82 29.252 206.357C27.7952 201.644 27.7952 201.644 28.9199 199.053C29.1938 198.582 29.4678 198.11 29.75 197.625C29.75 197.274 29.75 196.924 29.75 196.562C27.4709 196.562 25.1919 196.562 22.8438 196.562C22.4931 195.861 22.1425 195.16 21.7812 194.438C20.7011 193.516 20.7011 193.516 19.6562 192.844Z" fill="#465841"/>
<path d="M256.594 77.0312C257.844 78.9069 258.006 80.53 258.254 82.709C258.3 83.0819 258.346 83.4547 258.393 83.8389C258.505 84.7567 258.613 85.6752 258.719 86.5937C259.198 86.7471 259.677 86.9005 260.171 87.0586C261.572 87.541 262.846 88.0544 264.164 88.7187C264.517 88.8941 264.871 89.0694 265.235 89.25C266.156 89.7812 266.156 89.7812 267.219 90.8437C267.233 92.3752 267.233 92.3752 266.687 94.0312C265.162 95.156 265.162 95.156 263.268 96.0898C262.644 96.4062 262.02 96.7226 261.377 97.0486C259.781 97.75 259.781 97.75 258.719 97.75C258.741 98.3417 258.763 98.9334 258.785 99.543C258.795 102.212 258.251 104.721 257.656 107.312C256.328 107.811 256.328 107.811 254.469 107.844C252.548 106.56 250.938 104.935 249.407 103.212C248.06 102.04 246.61 102.414 244.906 102.531C244.249 102.663 244.249 102.663 243.578 102.797C241.86 103.14 240.278 103.161 238.531 103.062C238.181 102.712 237.83 102.361 237.469 102C237.525 99.3444 238.258 97.8398 239.594 95.5586C240.399 94.0829 240.399 94.0829 240.656 92.4375C239.92 90.4478 238.976 88.8536 237.792 87.0959C236.937 85.5312 236.937 85.5312 237.045 84.033C237.469 82.875 237.469 82.875 238 82.3437C239.131 82.4167 240.263 82.4902 241.394 82.567C245.829 82.8778 245.829 82.8778 249.789 81.1816C250.937 79.8499 251.913 78.5003 252.875 77.0312C254.322 76.3076 255.068 76.5735 256.594 77.0312ZM252.875 85C252.448 85.4383 252.02 85.8766 251.58 86.3281C249.644 88.0081 247.895 87.8771 245.425 87.7496C245.078 87.7188 244.732 87.688 244.375 87.6562C244.638 88.1164 244.901 88.5766 245.172 89.0508C246.514 92.0703 246.058 94.1945 244.906 97.2187C245.368 97.115 245.368 97.115 245.84 97.0092C249.203 96.4154 249.203 96.4154 250.677 97.2437C251.437 97.9145 252.158 98.6273 252.875 99.3437C253.226 99.3437 253.576 99.3437 253.937 99.3437C253.971 99.0233 254.005 98.7028 254.039 98.3726C254.564 94.9459 254.564 94.9459 255.899 93.7718C256.926 93.2012 256.926 93.2012 258.719 92.4375C258.719 92.0869 258.719 91.7362 258.719 91.375C256.698 90.2055 256.698 90.2055 254.469 89.7812C254.118 88.2034 253.767 86.6256 253.406 85C253.231 85 253.056 85 252.875 85Z" fill="#465841"/>
<path d="M56.8437 228.969C57.9062 230.563 57.9062 230.563 57.8328 231.844C56.9523 234.488 54.7325 236.209 52.7929 238.133C52.3704 238.572 51.9479 239.012 51.5126 239.465C47.9834 243 47.9834 243 45.6418 243.337C45.131 243.329 44.6201 243.321 44.0937 243.313C43.0312 241.719 43.0312 241.719 43.0962 240.445C44.0246 237.692 46.4216 235.856 48.4433 233.85C49.1218 233.145 49.1218 233.145 49.814 232.427C50.2567 231.984 50.6995 231.54 51.1556 231.083C51.5584 230.677 51.9612 230.271 52.3762 229.853C53.9939 228.735 54.9166 228.672 56.8437 228.969Z" fill="#465841"/>
<path d="M249.914 189.978C252.738 190.29 255.152 191.38 257.756 192.479C258.286 192.693 258.815 192.908 259.361 193.129C263.832 194.983 263.832 194.983 265.094 196.562C265.26 197.924 265.26 197.924 265.094 199.219C264.743 199.569 264.393 199.92 264.031 200.281C260.535 200.164 257.491 198.73 254.303 197.393C253.505 197.067 253.505 197.067 252.691 196.736C248.768 195.112 248.768 195.112 247.562 193.906C247.43 192.578 247.43 192.578 247.562 191.25C248.625 190.188 248.625 190.188 249.914 189.978Z" fill="#465841"/>
<path d="M15.4062 93.5C19.0963 93.6046 22.0945 94.9028 25.4336 96.3887C25.9376 96.6054 26.4416 96.8222 26.9609 97.0455C30.6609 98.6609 30.6609 98.6609 31.875 99.875C32.0078 101.203 32.0078 101.203 31.875 102.531C31.5244 102.882 31.1738 103.232 30.8125 103.594C27.3167 103.477 24.2724 102.043 21.084 100.705C20.2863 100.38 20.2863 100.38 19.4726 100.048C15.5495 98.4245 15.5495 98.4245 14.3438 97.2188C14.2109 95.8906 14.2109 95.8906 14.3438 94.5625C14.6944 94.2119 15.045 93.8613 15.4062 93.5Z" fill="#465841"/>
<path d="M189.125 23.375C190.719 23.1758 190.719 23.1758 192.313 23.375C193.375 24.9688 193.375 24.9688 193.245 26.4768C192.581 29.2556 191.466 31.8067 190.354 34.4316C190.129 34.9956 189.905 35.5595 189.674 36.1406C189.447 36.6757 189.22 37.2109 188.986 37.7623C188.784 38.2512 188.581 38.74 188.372 39.2436C187.531 40.375 187.531 40.375 185.913 40.8371C184.344 40.9062 184.344 40.9062 183.281 40.375C182.663 38.9742 182.736 38.2985 183.161 36.8149C183.379 36.2797 183.598 35.7446 183.823 35.1932C184.178 34.3155 184.178 34.3155 184.54 33.42C184.919 32.5073 184.919 32.5073 185.307 31.5762C185.554 30.9657 185.8 30.3551 186.055 29.7261C187.894 25.2212 187.894 25.2212 189.125 23.375Z" fill="#465841"/>
<path d="M89.084 23.209C89.4894 23.2638 89.8948 23.3186 90.3125 23.375C97.2386 36.6883 97.2386 36.6883 96.1563 40.375C94.5785 40.638 94.5785 40.638 92.9688 40.9062C90.5674 38.3773 89.4849 35.33 88.2207 32.1406C87.9889 31.5921 87.7571 31.0436 87.5183 30.4784C87.307 29.9477 87.0957 29.4169 86.8781 28.8701C86.6829 28.389 86.4878 27.908 86.2868 27.4123C86.0625 26.0312 86.0625 26.0312 86.7192 24.5361C87.6563 23.375 87.6563 23.375 89.084 23.209Z" fill="#465841"/>
<path d="M186.743 255.047C189.176 256.919 189.868 259.846 190.951 262.637C191.201 263.241 191.452 263.845 191.71 264.467C191.941 265.051 192.172 265.634 192.41 266.235C192.621 266.768 192.832 267.3 193.05 267.848C193.435 269.621 193.139 270.416 192.312 272C190.818 272.166 190.818 272.166 189.125 272C187.298 269.413 186.194 266.407 184.975 263.5C184.745 262.977 184.515 262.454 184.278 261.915C184.066 261.408 183.854 260.901 183.636 260.379C183.44 259.92 183.245 259.461 183.043 258.989C182.669 257.288 182.951 256.495 183.812 255C185.406 254.469 185.406 254.469 186.743 255.047Z" fill="#465841"/>
<path d="M92.4375 255C94.0312 254.801 94.0312 254.801 95.625 255C96.6875 256.594 96.6875 256.594 96.5545 257.848C95.8366 260.375 94.7997 262.767 93.7988 265.193C93.4737 265.998 93.4737 265.998 93.142 266.819C92.9321 267.331 92.7222 267.843 92.506 268.37C92.2189 269.071 92.2189 269.071 91.9261 269.786C91.375 270.938 91.375 270.938 90.3125 272C88.6523 272.066 88.6523 272.066 87.125 272C86.3047 270.427 85.9884 269.65 86.4127 267.897C86.634 267.387 86.8554 266.877 87.0835 266.351C87.441 265.512 87.441 265.512 87.8056 264.656C88.0631 264.077 88.3206 263.499 88.5859 262.902C88.8352 262.32 89.0845 261.737 89.3413 261.136C91.1713 256.899 91.1713 256.899 92.4375 255Z" fill="#465841"/>
</g>
<defs>
<clipPath id="clip0_115_7">
<rect width="272" height="272" fill="white"/>
</clipPath>
</defs>
</svg>
