<svg width="512" height="512" viewBox="0 0 512 512" fill="none" xmlns="http://www.w3.org/2000/svg">
<path d="M265.6 71.84C265.6 72.16 262.32 72.88 258.32 73.44C254.32 74 249.52 75.12 247.76 75.92C245.92 76.8 242.88 77.84 241.04 78.32C239.12 78.88 237.6 79.52 237.6 79.84C237.6 80.24 235.84 81.12 233.68 81.92C231.52 82.64 229.52 83.84 229.28 84.48C229.04 85.12 228.48 85.6 228 85.6C225.52 85.6 210.32 99.04 204.8 106.08C199.84 112.48 192.48 125.76 189.6 133.6C189.04 135.12 188.16 137.44 187.6 138.8C187.04 140.08 186.08 143.36 185.52 146C184.96 148.64 184.24 151.2 183.92 151.6C183.12 152.72 180.8 169.44 180.8 174.4C180.8 176.56 180.48 178.56 180 178.8C179.6 179.04 179.2 181.44 179.2 184V188.64L175.44 189.44C173.28 189.92 170.24 190.56 168.64 190.8C166.96 191.12 165.6 191.6 165.6 191.92C165.6 192.24 162.88 193.12 159.6 193.92C156.32 194.72 153.6 195.68 153.6 196.08C153.6 196.48 153.2 196.8 152.64 196.8C150.88 196.8 142.4 199.52 142.4 200.16C142.4 200.4 140.4 201.28 138 202C135.6 202.64 133.6 203.52 133.6 203.92C133.6 204.32 131.92 205.04 129.92 205.6C127.92 206.16 125.84 207.04 125.36 207.52C124.8 208 121.2 210 117.36 211.92C113.44 213.92 110.16 215.76 109.92 216.16C109.68 216.48 108.16 217.36 106.56 218.16C104.96 218.88 102.88 220.16 102.08 220.96C101.2 221.76 100 222.4 99.4401 222.4C98.8001 222.4 98.1601 222.96 97.9201 223.6C97.6001 224.24 97.0401 224.8 96.4801 224.8C96.0001 224.8 94.0001 226.08 92.0001 227.6C90.0001 229.12 87.6801 230.88 86.8001 231.52C80.6401 236.08 75.2001 240.96 68.4801 247.6C62.6401 253.44 57.6001 258.96 57.6001 259.6C57.6001 259.92 56.8001 261.04 55.7601 262.08C52.6401 265.36 51.4401 266.88 49.9201 269.68C49.0401 271.2 48.1601 272.56 47.9201 272.8C46.1601 274.16 37.8401 290.72 37.1201 294.32C36.8001 295.68 36.3201 296.8 36.0001 296.8C35.3601 296.8 32.8001 306.24 32.8001 308.72C32.8001 309.6 32.3201 310.4 31.8401 310.56C30.4001 311.04 30.3201 344.8 31.7601 346.48C32.2401 347.12 33.1201 349.84 33.6801 352.64C34.1601 355.44 35.0401 358.16 35.5201 358.64C36.0001 359.2 36.8801 361.04 37.5201 362.8C38.0801 364.56 39.0401 366.56 39.6001 367.2C40.1601 367.84 41.2001 369.68 42.0001 371.2C42.8001 372.72 43.9201 374.32 44.4801 374.64C45.1201 374.96 45.6001 375.76 45.6001 376.4C45.6001 377.04 46.3201 378 47.2001 378.56C48.0801 379.12 48.8001 380 48.8001 380.4C48.8001 381.52 59.5201 392.48 62.3201 394.24C63.4401 394.96 64.8801 396.24 65.4401 396.96C66.0001 397.76 66.8801 398.4 67.3601 398.4C67.8401 398.4 68.8001 398.96 69.5201 399.6C73.2801 403.2 89.6001 412 96.6401 414.16C99.1201 414.96 101.36 415.76 101.6 416.08C101.84 416.32 104.56 417.2 107.6 417.92C110.72 418.64 113.92 419.6 114.8 420C116.56 420.88 129.52 423.2 132.4 423.2C133.44 423.2 134.4 423.52 134.56 423.92C134.88 424.96 155.12 426.4 169.04 426.4C181.92 426.4 200.32 425.12 202.8 424.08C203.68 423.68 208.72 422.72 214 422C219.28 421.28 224 420.4 224.4 420.08C224.88 419.76 228.32 418.8 232.24 418C236.08 417.28 239.2 416.32 239.2 416C239.2 415.68 241.28 414.96 243.84 414.4C246.32 413.92 249.84 412.8 251.6 412C253.36 411.28 256.48 410.16 258.64 409.6C260.72 409.04 262.4 408.24 262.4 407.92C262.4 407.52 262.96 407.2 263.6 407.2C264.32 407.2 267.12 406.16 269.84 404.96C272.56 403.68 276.08 402.16 277.6 401.6C279.12 400.96 280.88 400 281.44 399.44C282 398.88 283.04 398.4 283.6 398.4C284.72 398.4 290.96 402.4 293.92 404.96C294.8 405.76 296.16 406.56 296.96 406.88C297.76 407.12 298.4 407.68 298.4 408.08C298.4 408.48 298.8 408.8 299.2 408.8C299.68 408.8 301.52 409.76 303.44 410.96C310.24 415.36 323.36 422 326.64 422.8C327.84 423.12 328.8 423.68 328.8 424.08C328.8 424.4 330.32 425.12 332.24 425.68C334.08 426.16 337.04 427.2 338.8 428C340.56 428.8 344.32 429.92 347.2 430.4C350.08 430.96 352.8 431.68 353.2 432C354.64 433.12 368.24 434.4 378.88 434.4C389.2 434.4 402.4 433.12 403.2 432.08C403.44 431.76 405.76 431.04 408.4 430.48C411.04 429.92 415.44 428.4 418.16 427.12C420.88 425.84 423.52 424.8 424 424.8C424.4 424.8 424.8 424.48 424.8 424.08C424.8 423.68 426.08 422.88 427.68 422.4C429.2 421.84 430.72 420.96 430.96 420.32C431.2 419.68 431.76 419.2 432.24 419.2C435.12 419.2 455.2 399.04 455.2 396.08C455.2 395.6 455.6 395.2 456 395.2C456.48 395.2 457.44 393.92 458.16 392.4C458.88 390.88 459.68 389.6 460 389.6C460.24 389.6 461.12 388 462 386C462.88 384 463.84 382.4 464.08 382.4C464.32 382.4 465.2 380.4 466 378C466.88 375.6 467.76 373.6 468.08 373.6C468.4 373.6 469.28 371.2 470.08 368.16C470.8 365.2 471.76 362.4 472.08 362C472.4 361.52 473.28 357.76 474 353.6C474.72 349.44 475.6 345.36 476.08 344.64C477.76 341.44 478.72 316.24 477.68 300.24C477.2 291.68 476.4 284.08 476 283.36C475.6 282.56 474.72 277.84 473.92 272.8C473.2 267.76 472.4 263.44 472.08 263.2C471.76 262.96 470.88 259.68 470.08 255.76C469.28 251.92 468.32 248.8 468.08 248.8C467.76 248.8 467.04 246.56 466.48 243.76C465.92 241.04 464.8 237.36 464 235.6C463.2 233.76 462.24 231.28 461.92 230C461.6 228.64 460.48 225.92 459.44 223.92C458.4 221.84 457.6 219.76 457.6 219.2C457.6 218.64 456.96 217.04 456.16 215.68C455.36 214.32 454.16 211.68 453.6 209.76C453.04 207.92 452.24 206.4 451.92 206.4C451.6 206.4 450.72 204.56 449.92 202.4C449.12 200.16 448.24 198.4 447.92 198.4C447.68 198.4 446.8 196.8 446.08 194.8C445.28 192.8 444.4 191.2 444.08 191.2C443.68 191.2 442.88 189.84 442.08 188.16C440.72 185.04 437.44 179.36 436.16 177.92C435.68 177.44 434.72 175.84 434 174.4C433.28 172.96 431.92 171.04 431.12 170.16C430.32 169.2 429.6 168.24 429.6 168C429.6 167.68 428.96 166.72 428.24 165.76C427.44 164.88 425.52 162.24 424 160C422.48 157.76 420.4 155.12 419.44 154.16C418.4 153.28 417.6 152.16 417.6 151.76C417.6 151.36 416.8 150.16 415.84 149.2C414.8 148.16 412.24 145.28 410 142.72C403.12 134.64 386.4 118.4 378.4 112C377.28 111.12 375.52 109.68 374.4 108.8C373.28 107.84 370.4 105.76 368 104C365.6 102.24 363.04 100.24 362.32 99.6C361.6 98.96 360.8 98.4 360.48 98.4C360.16 98.4 358.4 97.36 356.56 96.08C354.72 94.88 352.4 93.6 351.44 93.28C350.4 92.96 349.6 92.4 349.6 92.08C349.6 91.76 348.08 90.8 346.24 89.92C344.32 89.12 342.64 88.16 342.4 87.92C342.16 87.6 340.4 86.72 338.4 85.92C336.4 85.12 334.64 84.24 334.4 84C334.16 83.68 332 82.8 329.6 82C327.2 81.2 324.88 80.32 324.4 80C324 79.6 321.28 78.72 318.4 78C315.52 77.28 312.8 76.32 312.4 76C311.44 75.2 298.24 72.8 294.64 72.8C293.28 72.8 291.84 72.4 291.6 72C291.04 71.04 265.6 70.88 265.6 71.84ZM284.8 84C284.8 84.4 286.32 84.8 288.24 84.8C292.32 84.8 306.48 87.12 307.6 88C308.08 88.32 310.16 89.04 312.32 89.52C314.56 90.08 317.76 91.2 319.52 92C321.36 92.8 324.32 93.92 326.24 94.48C328.08 94.96 329.6 95.68 329.6 96C329.6 96.32 331.28 97.2 333.44 98C335.52 98.8 337.36 99.68 337.6 100C337.84 100.32 339.44 101.2 341.2 102.08C342.96 102.88 345.12 104.16 345.92 104.96C346.8 105.76 347.76 106.4 348.08 106.4C348.8 106.4 355.28 110.64 358.8 113.36C360.16 114.4 361.92 115.84 362.8 116.48C373.12 124.16 377.36 127.84 388.72 139.28C397.36 147.92 404.24 155.44 405.6 157.6C406.24 158.64 409.28 162.4 411.84 165.36C412.8 166.48 413.6 167.68 413.6 167.92C413.6 168.16 414.48 169.44 415.6 170.72C416.72 172 417.6 173.28 417.6 173.52C417.6 173.76 418.72 175.28 420 176.8C421.28 178.32 422.4 179.84 422.4 180.16C422.4 180.48 423.52 182.32 424.8 184.24C426.16 186.24 427.2 188.16 427.2 188.64C427.2 189.12 427.52 189.6 427.84 189.76C428.48 190 431.6 195.28 434.24 200.4C434.96 201.68 435.68 202.96 436 203.2C436.32 203.44 437.2 205.28 438 207.36C438.8 209.52 439.68 211.2 439.92 211.2C440.24 211.2 441.12 213.12 442 215.36C442.8 217.68 443.92 220.32 444.48 221.2C444.96 222.08 445.84 224.24 446.4 226C446.96 227.76 447.68 229.36 447.92 229.6C448.24 229.84 449.12 232.16 449.92 234.8C450.72 237.44 451.68 239.92 452 240.4C452.4 240.8 453.28 243.52 454 246.24C454.72 249.04 455.6 251.92 456 252.64C456.88 254.24 459.2 263.92 459.2 265.84C459.2 266.56 459.52 267.2 459.92 267.2C460.24 267.2 461.2 271.76 461.92 277.36C462.72 283.04 463.68 288.32 464.16 289.2C465.36 291.36 465.92 326.16 464.96 333.2C463.52 342.88 460.64 357.2 460 357.6C459.68 357.84 458.8 360.4 458 363.36C457.2 366.4 456.32 368.8 455.92 368.8C455.6 368.8 454.72 370.8 454 373.2C453.2 375.6 452.32 377.6 452 377.6C451.6 377.6 450.72 379.2 449.84 381.2C449.04 383.2 448.16 384.8 447.84 384.8C447.52 384.8 446.72 385.84 446.08 387.12C445.44 388.32 444.08 390.4 443.04 391.6C440.64 394.48 430.48 404.64 427.6 407.04C424.8 409.36 413.84 415.2 412.32 415.2C411.68 415.2 411.2 415.52 411.2 415.92C411.2 416.32 408.4 417.28 405.04 418.08C401.6 418.88 398.64 419.84 398.4 420.16C398.16 420.48 393.6 421.2 388.24 421.68C378.32 422.64 359.2 421.68 357.28 420.08C356.8 419.68 353.52 418.8 350 418C346.48 417.2 342.88 416.08 342 415.52C341.12 414.88 339.84 414.4 339.12 414.4C338.4 414.4 336.24 413.52 334.32 412.56C332.4 411.52 329.44 410.24 327.76 409.68C326.16 409.12 324.8 408.4 324.8 408.08C324.8 407.76 323.52 407.04 321.92 406.48C320.32 405.92 317.76 404.56 316.24 403.52C314.64 402.48 312.88 401.6 312.32 401.6C311.76 401.6 310.96 401.12 310.64 400.48C310.32 399.92 308.56 398.64 306.72 397.76C304.96 396.88 303.04 395.52 302.48 394.88C301.84 394.16 301.04 393.6 300.64 393.6C299.92 393.6 295.12 390.08 291.68 386.96C290.8 386.24 289.84 385.6 289.6 385.6C289.28 385.6 287.92 384.64 286.64 383.36C285.28 382.16 282.16 379.36 279.68 377.2C272.72 371.12 265.68 364.08 260.4 358C257.76 354.96 254.64 351.44 253.44 350.16C252.16 348.88 251.2 347.6 251.2 347.36C251.2 347.04 250.4 345.92 249.36 344.8C248.32 343.68 246.8 341.68 246 340.4C245.12 339.04 244 337.68 243.44 337.36C242.88 337.04 242.4 336.32 242.4 335.76C242.32 335.2 241.28 333.52 240 332C238.64 330.48 237.6 328.8 237.6 328.24C237.6 327.76 237.12 326.96 236.48 326.64C235.92 326.32 234.56 324.4 233.52 322.56C229.36 314.88 228.88 314.16 228.24 313.68C227.84 313.44 226.88 311.68 226.08 309.76C225.2 307.92 224.32 306.4 223.92 306.4C223.6 306.4 222.72 304.56 221.92 302.4C221.12 300.16 220.24 298.4 219.92 298.4C219.6 298.4 218.72 296.56 217.92 294.4C217.12 292.16 216.24 290.4 215.92 290.4C215.6 290.4 214.72 288.48 213.92 286.16C213.2 283.92 212.32 281.84 212 281.6C211.68 281.36 210.96 279.76 210.4 278C209.84 276.24 208.72 273.36 207.92 271.52C207.12 269.76 206.08 266.64 205.52 264.56C205.04 262.48 204.32 260.8 203.92 260.8C203.52 260.8 203.2 260.16 203.2 259.28C203.2 257.76 206.32 256.8 211.44 256.8C212.64 256.8 213.6 256.48 213.6 256.08C213.6 255.2 229.6 253.6 245.36 253.04L258.32 252.56L258.88 254.64C259.12 255.84 259.6 256.8 259.92 256.8C260.24 256.8 261.12 258.8 262 261.2C262.8 263.6 263.68 265.6 264 265.6C264.32 265.6 265.2 267.28 266 269.36C266.8 271.44 267.76 273.52 268.16 274C268.48 274.4 270.32 277.68 272.08 281.2C273.92 284.72 276.08 288.48 276.88 289.52C277.76 290.56 278.4 291.92 278.4 292.48C278.4 293.04 278.88 293.84 279.44 294.16C280 294.48 281.12 296.16 282 297.76C282.88 299.44 283.84 300.8 284.08 300.8C284.4 300.8 285.2 302.08 285.92 303.6C286.64 305.12 287.6 306.4 288 306.4C288.48 306.4 288.8 306.8 288.8 307.2C288.8 308.16 292.72 313.84 296 317.68C297.12 318.96 298.88 321.12 300 322.4C301.12 323.76 303.52 326.56 305.44 328.56C307.28 330.56 308.8 332.48 308.8 332.8C308.8 333.52 323.12 347.28 327.92 351.2C329.76 352.72 332.16 354.8 333.12 355.76C334.16 356.8 335.36 357.6 335.84 357.6C336.32 357.6 337.2 358.24 337.76 358.96C338.96 360.56 341.28 362.24 343.44 362.88C344.16 363.2 344.8 363.68 344.8 364.08C344.8 364.48 346 365.36 347.44 366.08C348.8 366.8 350.16 367.68 350.4 367.92C350.64 368.16 352.24 369.12 354 370C355.76 370.88 357.36 371.84 357.6 372.16C357.84 372.4 359.6 373.28 361.6 374.08C363.6 374.88 365.36 375.76 365.6 376C365.84 376.32 368 377.2 370.4 378C372.8 378.8 375.2 379.68 375.6 380C376.88 380.96 387.68 383.2 391.12 383.2C392.88 383.2 394.56 383.52 394.8 384C395.44 385.04 403.76 385.04 404.4 384C404.64 383.52 406.24 383.2 407.84 383.2C414.24 383.2 426.88 378.8 430.16 375.52C430.8 374.88 431.68 374.4 432.08 374.4C433.2 374.4 442.4 365.36 442.4 364.16C442.4 363.6 442.88 362.96 443.52 362.72C444.08 362.48 445.28 360.72 446.08 358.72C446.88 356.8 447.76 355.2 448.08 355.2C448.4 355.2 449.12 353.84 449.6 352.16C450.16 350.56 451.28 347.76 452.08 345.92C452.88 344.16 453.92 340.16 454.48 337.12C455.04 334.08 455.92 331.36 456.32 331.04C457.6 330.16 457.52 289.68 456.24 287.12C455.76 286.08 454.72 281.04 454 276C453.28 270.96 452.4 266.4 452 266C451.68 265.52 450.96 263.04 450.4 260.4C449.84 257.76 448.96 254.48 448.4 253.2C447.84 251.84 446.72 248.64 446 246C445.28 243.36 444.4 241.04 444.08 240.8C443.76 240.56 443.04 238.8 442.48 236.8C441.92 234.8 440.56 231.28 439.52 229.04C438.48 226.72 437.44 223.92 437.12 222.8C436.88 221.68 436.4 220.8 436.08 220.8C435.76 220.8 434.88 218.96 434.08 216.8C433.28 214.56 432.4 212.8 432.08 212.8C431.76 212.8 430.88 210.96 430.08 208.8C429.28 206.56 428.4 204.8 428.08 204.8C427.76 204.8 427.04 203.52 426.48 202C425.92 200.48 425.04 198.72 424.56 198.16C424 197.6 422.88 195.76 422 194C421.12 192.24 420 190.48 419.44 190.16C418.88 189.84 418.4 188.96 418.4 188.4C418.4 187.76 417.76 186.56 417.04 185.76C416.24 184.96 414.88 183.04 414.08 181.52C413.2 180 412.16 178.4 411.84 178C411.44 177.52 409.04 174.32 406.4 170.8C401.52 164.16 400.8 163.2 394.56 156C391.12 152 373.76 134.48 370 131.2C369.12 130.48 366.8 128.64 364.8 127.12C362.88 125.6 360.56 123.76 359.68 122.96C358.8 122.24 357.84 121.6 357.6 121.6C357.28 121.6 356 120.72 354.72 119.6C353.44 118.48 352.16 117.6 351.84 117.6C351.52 117.6 350.8 117.12 350.24 116.56C349.68 116.08 347.76 114.88 346 114C344.24 113.12 342.64 112.16 342.4 111.92C341.76 111.12 332.48 106.64 329.12 105.6C327.44 105.04 325.84 104.32 325.6 103.92C325.36 103.6 321.92 102.72 318 102C314 101.2 310.16 100.32 309.44 99.92C307.6 98.96 289.2 98.96 287.36 99.92C286.64 100.24 283.52 101.2 280.4 101.92C277.36 102.64 274.64 103.52 274.4 103.92C274.16 104.32 272.72 105.2 271.04 105.84C268 107.12 267.12 107.76 261.52 113.2C257.36 117.2 254.56 120.56 253.44 122.96C252.96 124 252.24 124.8 251.92 124.8C251.6 124.8 250.72 126.56 249.92 128.8C249.12 130.96 248.24 132.8 247.92 132.8C247.6 132.8 246.72 135.2 245.92 138.16C245.2 141.2 244.24 143.92 243.92 144.4C242.88 145.84 241.68 156.16 241.12 168.96L240.56 181.6H237.2C229.44 181.6 205.2 183.36 204.8 183.92C204.56 184.32 201.76 184.8 198.64 185.12L192.8 185.68V180.88C192.8 174.88 195.04 157.6 195.92 156.48C196.32 156 197.2 153.04 197.92 149.92C198.56 146.8 199.68 143.2 200.4 141.92C201.04 140.64 201.6 139.28 201.6 138.88C201.6 138 207.28 126.24 208 125.6C208.24 125.36 209.12 123.84 210 122.16C210.88 120.48 212.24 118.56 213.04 117.84C213.76 117.12 214.4 116.24 214.4 115.84C214.4 115.28 218.64 110.32 222.88 106.08C226 102.88 230.64 99.12 232.88 98C234.08 97.36 235.2 96.56 235.36 96.24C235.68 95.36 247.6 89.6 248.96 89.6C249.52 89.6 251.04 89.04 252.32 88.4C255.52 86.72 267.04 84.8 274.08 84.8C277.28 84.8 280.16 84.4 280.4 84C280.64 83.52 281.76 83.2 282.88 83.2C283.92 83.2 284.8 83.52 284.8 84ZM306.56 111.76C306.72 112.16 310 113.04 314 113.84C317.92 114.64 321.36 115.6 321.6 115.92C321.84 116.32 323.92 117.2 326.24 117.92C328.48 118.72 330.4 119.6 330.4 119.92C330.4 120.24 331.76 120.96 333.44 121.52C335.04 122.08 337.12 123.2 338 124C338.88 124.72 340.8 125.84 342.24 126.48C343.6 127.12 344.8 127.84 344.8 128.16C344.8 128.48 345.92 129.36 347.28 130C348.56 130.72 350.4 131.92 351.2 132.64C353.2 134.48 357.28 137.68 358.48 138.48C364 141.84 379.2 157.44 390.32 171.2C393.04 174.48 395.76 177.76 396.4 178.48C397.04 179.2 397.6 180.16 397.6 180.64C397.6 181.12 398.24 182 399.04 182.56C399.76 183.12 401.12 184.88 401.92 186.4C402.8 187.92 403.76 189.36 404 189.6C404.32 189.84 405.2 191.2 405.92 192.56C406.64 194 407.52 195.2 407.84 195.2C408.24 195.2 408.96 196.48 409.52 198C410.08 199.52 410.96 201.2 411.44 201.76C412 202.32 413.12 204.24 414 206C414.88 207.76 415.76 209.36 416 209.6C416.96 210.48 426.32 230.08 426.88 232.16C427.12 233.44 427.6 234.4 427.92 234.4C428.24 234.4 429.12 236.48 429.92 238.96C430.72 241.52 431.68 243.92 432 244.4C432.32 244.8 433.2 247.36 433.92 250C434.72 252.64 435.76 255.84 436.4 257.2C436.96 258.48 437.84 261.76 438.4 264.4C438.96 267.04 439.68 269.6 440.08 270C440.4 270.48 441.36 275.36 442.16 280.8C442.88 286.32 443.92 291.04 444.32 291.36C445.44 292.08 445.44 323.36 444.24 325.68C443.76 326.72 442.72 330.72 442 334.56C441.2 338.48 440.32 341.6 440.08 341.6C439.76 341.6 439.04 342.96 438.48 344.56C437.92 346.24 436.4 349.28 435.12 351.44C433.84 353.52 432.8 355.36 432.8 355.52C432.8 356.96 421.2 366.4 419.52 366.4C418.96 366.4 418 366.88 417.36 367.52C416 368.88 405.52 371.2 400.64 371.2H397.28L399.2 369.84C402.4 367.6 410 358.56 410.8 356C411.12 355.12 411.6 354.4 412 354.4C412.32 354.4 413.28 352.64 414.08 350.4C414.88 348.24 415.76 346.4 416.08 346.4C416.4 346.4 417.28 344 418.08 340.96C418.88 338 419.76 335.44 420.08 335.2C420.4 334.96 421.28 330.64 422.08 325.6C424.16 311.36 422.88 277.28 420 270.8C419.6 269.92 418.72 266.32 418 262.8C417.2 259.28 416.32 256 416 255.6C415.68 255.12 414.8 252.64 414 250C413.28 247.36 412.4 245.04 412.08 244.8C411.84 244.56 410.88 242.24 410.08 239.68C409.28 237.04 408.16 234.4 407.52 233.76C406.88 233.2 406.4 232.16 406.4 231.6C406.4 230.32 400.88 219.04 400 218.4C399.68 218.16 398.8 216.64 398.08 214.96C397.44 213.28 396.32 211.36 395.6 210.72C394.96 210 394.4 209.04 394.4 208.48C394.4 207.92 393.76 206.8 393.04 205.92C392.24 205.12 390.88 203.04 390 201.36C389.12 199.76 388.16 198.4 387.76 198.4C387.44 198.4 386.8 197.6 386.48 196.56C386.08 195.6 384.88 193.76 383.84 192.48C382.8 191.2 380.8 188.72 379.36 186.88C372.16 177.84 363.04 168.24 355.28 161.6C352.96 159.6 350.16 157.2 349.04 156.16C347.92 155.2 346.72 154.4 346.48 154.4C346.24 154.4 344.72 153.28 343.2 152C341.68 150.72 340 149.6 339.44 149.6C338.88 149.6 338.16 149.12 337.84 148.56C337.52 148 335.76 146.88 334 146C332.24 145.12 330.64 144.16 330.4 143.84C329.76 143.04 318.24 137.76 315.84 137.2C314.56 136.88 313.6 136.32 313.6 136C313.6 135.68 310.48 134.72 306.64 133.92C302.72 133.12 299.36 132.16 299.04 131.68C298.24 130.48 272.88 130.48 270.32 131.76C269.28 132.24 266.88 133.04 265.04 133.44C261.36 134.32 261.28 133.76 264.4 129.28C266.48 126.24 275.04 117.6 276 117.6C276.4 117.6 277.2 117.12 277.84 116.48C279.2 115.04 285.76 112.8 288.4 112.8C289.52 112.8 290.4 112.4 290.4 112C290.4 111.04 306.16 110.88 306.56 111.76ZM294.8 144C295.68 144.4 299.2 145.28 302.56 146C306 146.72 308.96 147.6 309.2 148C309.44 148.4 311.52 149.28 313.84 150.08C316.08 150.8 318.16 151.68 318.4 151.92C318.64 152.16 320.24 153.12 322 154C323.76 154.88 325.6 155.84 326 156.24C329.12 158.56 335.28 162.4 335.92 162.4C336.4 162.4 337.12 163.12 337.6 164C338.08 164.88 338.88 165.6 339.44 165.6C339.92 165.6 341.04 166.24 342 167.12C346.16 170.96 366.24 191.28 368 193.52C369.12 194.88 370.56 196.64 371.2 197.44C372.32 198.8 379.52 209.12 381.2 211.84C381.68 212.56 382.96 214.64 384.08 216.4C385.28 218.16 386.4 220.4 386.72 221.36C387.04 222.4 387.6 223.2 387.92 223.2C388.24 223.2 389.12 224.8 389.92 226.8C390.8 228.8 391.68 230.4 392 230.4C392.32 230.4 393.2 232.4 394 234.8C394.88 237.2 395.76 239.2 396.08 239.2C396.4 239.2 397.28 241.36 398.08 244C398.88 246.64 399.76 248.8 400.08 248.8C400.4 248.8 401.12 250.72 401.6 252.96C402.16 255.28 403.2 258.64 404 260.4C404.8 262.16 405.84 266.24 406.4 269.36C406.96 272.56 407.68 275.2 408 275.2C409.2 275.2 410.8 292.96 410.8 305.2C410.72 316.88 409.44 328.8 408.08 330.8C407.76 331.2 407.04 333.2 406.48 335.2C405.2 339.76 400.72 348.96 399.44 349.84C398.88 350.16 398.4 350.88 398.4 351.36C398.4 353.92 382.96 366.4 379.84 366.4C377.68 366.4 371.2 364.56 371.2 363.92C371.2 363.6 369.44 362.72 367.2 361.92C365.04 361.12 363.2 360.24 363.2 360C363.2 359.68 361.76 358.8 360 358C358.24 357.2 356.8 356.32 356.8 356C356.8 355.68 355.36 354.8 353.68 354C351.92 353.2 350.32 352.08 350.08 351.52C349.84 350.88 349.12 350.4 348.4 350.4C346.72 350.4 346.88 349.84 349.2 347.36C350.32 346.16 351.2 344.88 351.2 344.4C351.2 343.92 351.92 343.12 352.8 342.56C353.68 342 354.4 341.04 354.4 340.4C354.4 339.76 354.88 338.96 355.44 338.64C356.64 337.92 360.16 332.24 362.08 327.76C362.88 326.16 363.76 324.8 364.16 324.8C364.48 324.8 364.8 324.4 364.8 324C364.8 323.52 365.84 320.88 367.04 318.16C368.32 315.44 369.84 311.36 370.4 309.2C370.96 306.96 371.68 304.8 372 304.4C372.4 303.92 373.12 301.44 373.68 298.8C375.92 289.04 374.64 254.4 372.08 254.4C371.76 254.4 371.04 252.56 370.48 250.4C369.92 248.16 369.04 245.92 368.48 245.36C368 244.8 367.04 243.12 366.4 241.6C365.44 239.2 362.64 234.8 357.6 227.68C356.48 226.16 345.76 215.44 342 212.16C339.44 210 332.88 205.6 332.16 205.6C331.76 205.6 330.8 204.88 330 204C329.2 203.12 328.08 202.4 327.6 202.4C327.04 202.4 325.36 201.52 323.76 200.4C322.16 199.36 319.36 198.08 317.6 197.52C315.84 196.96 314.4 196.24 314.4 195.92C314.4 195.52 312.88 194.88 311.04 194.32C309.12 193.84 306.16 192.8 304.4 192C302.64 191.2 298.96 190.08 296.24 189.52C293.44 188.96 291.2 188.24 291.2 187.92C291.2 187.68 287.36 186.8 282.64 186C277.84 185.28 273.28 184.32 272.4 183.92C271.52 183.52 267.04 182.88 262.4 182.56L254 182L253.76 174.4C253.6 170.24 253.92 163.76 254.32 160.08C255.2 153.12 256.72 150.48 260.8 149.2C261.68 148.96 262.4 148.4 262.4 148C262.4 147.68 264.8 146.72 267.84 145.92C270.8 145.12 273.36 144.24 273.6 143.92C274.64 142.48 291.44 142.56 294.8 144ZM251.68 194.48C260.88 194.96 268.56 195.6 268.8 195.92C269.04 196.16 273.2 197.12 278 197.92C282.88 198.72 287.2 199.6 287.6 199.92C288.08 200.32 290.88 201.2 293.92 201.92C296.96 202.64 300.16 203.84 301.12 204.4C302 205.04 303.36 205.6 304 205.6C305.76 205.6 323.52 214.72 325.68 216.72C326.72 217.68 327.84 218.4 328.32 218.4C328.72 218.4 329.6 218.96 330.32 219.6C332.56 221.68 339.12 227.04 339.76 227.28C340.16 227.44 342.08 229.6 344 232C346 234.4 348.24 237.04 348.96 237.92C349.76 238.8 350.56 240.16 350.88 240.96C351.12 241.76 351.6 242.4 351.92 242.4C352.64 242.4 357.92 252.72 358.8 256C359.12 257.12 359.68 258.32 360 258.8C363.36 262.96 363.36 295.2 360.08 299.6C359.76 300 358.8 302.8 358.08 305.76C357.28 308.8 356.32 311.2 355.92 311.2C355.52 311.2 355.2 311.68 355.2 312.16C355.2 313.28 348.96 325.76 348.08 326.4C347.84 326.64 346.88 328.16 346 329.76C345.12 331.44 344.16 332.8 343.84 332.8C343.52 332.8 342.72 333.76 342 334.96C341.36 336.24 340 338.24 338.88 339.44L337.04 341.76L334.96 339.6C332.8 337.2 332.88 336.16 335.6 332.4C337.84 329.28 342.16 320.32 342.88 317.2C343.2 315.84 343.76 314.4 344.16 313.92C346.32 311.12 346.32 288.88 344.16 286.16C343.76 285.6 342.8 283.28 342.08 280.96C341.28 278.72 340.4 276.8 340.16 276.8C339.84 276.8 339.12 275.76 338.56 274.48C337.44 271.84 335.28 269.28 330.88 264.88C326.24 260.24 324.96 259.28 322 257.84C320.48 257.12 319.2 256.24 319.2 255.92C319.2 255.6 317.44 254.72 315.2 253.92C313.04 253.12 311.2 252.24 311.2 251.92C311.2 251.6 309.84 250.88 308.24 250.4C306.56 249.84 303.76 248.8 302 248C300.24 247.2 296.64 246.08 294 245.52C291.36 244.96 288.8 244.24 288.32 243.84C287.84 243.52 282.4 242.56 276.32 241.84C270.24 241.12 265.12 240.24 264.96 239.84C264.56 238.88 239.36 239.04 238.8 240C238.56 240.4 236.24 240.8 233.76 240.8C227.76 240.8 208 243.04 206 243.92C205.12 244.32 200.96 245.28 196.8 246.08C192.64 246.8 189.04 247.68 188.8 248C188.56 248.32 186.08 248.96 183.2 249.6C180.32 250.16 176.96 251.12 175.6 251.68C174.32 252.24 171.04 253.28 168.4 254.08C165.76 254.8 163.44 255.68 163.2 256C162.96 256.32 160.72 257.2 158.24 257.92C155.68 258.64 153.6 259.52 153.6 259.84C153.6 260.16 152 260.96 149.92 261.52C147.92 262.08 145.92 263.04 145.36 263.52C144.8 264.08 142.8 265.12 140.8 265.92C138.8 266.72 137.04 267.6 136.8 267.92C136.56 268.16 134.88 269.12 133.04 269.92C131.12 270.8 129.6 271.76 129.6 272.16C129.6 272.48 129.2 272.8 128.72 272.8C127.28 272.8 113.12 282.48 106.16 288.16C102.48 291.2 86.8801 306.64 86.0001 308.08C85.6001 308.8 83.7601 311.52 82.0001 314.08C80.2401 316.72 78.2401 320.08 77.6001 321.6C76.9601 323.12 76.2401 324.56 75.8401 324.8C75.5201 325.04 74.6401 327.76 73.8401 330.8C73.0401 333.92 72.0801 336.64 71.6001 336.96C70.4801 337.76 70.5601 358.64 71.6801 360.08C72.2401 360.72 73.2001 363.28 73.9201 365.76C74.6401 368.32 75.5201 370.4 75.9201 370.4C76.3201 370.4 76.8801 371.2 77.1201 372.16C78.6401 377.92 93.8401 391.6 101.92 394.48C103.52 395.04 104.8 395.76 104.8 396.08C104.8 396.4 106.72 397.28 109.04 398.08C111.28 398.8 113.6 399.68 114 400.08C114.48 400.4 117.36 401.28 120.4 402C123.52 402.72 126.72 403.68 127.6 404C130.56 405.28 140.32 406.48 152.64 406.96C159.36 407.2 165.04 407.76 165.28 408.16C165.84 409.04 171.2 408.96 171.2 408C171.2 407.52 174.32 407.2 179.04 407.2C187.84 407.2 207.6 405.2 210 404.08C210.88 403.68 215.04 402.72 219.2 401.92C223.36 401.2 226.96 400.32 227.2 400C227.44 399.76 230.48 398.88 233.92 398.08C237.44 397.36 240.72 396.4 241.12 396.08C241.6 395.68 244.16 394.8 246.8 394C249.44 393.28 252 392.4 252.4 392C252.88 391.68 255.2 390.8 257.6 390C260 389.2 262.16 388.32 262.4 388C262.64 387.68 264.16 386.96 265.92 386.4C268.4 385.6 269.36 385.6 270.88 386.48C273.68 387.92 273.28 389.2 269.6 390.4C267.84 390.96 266.4 391.76 266.4 392.08C266.4 392.48 264.88 393.12 263.04 393.6C261.12 394.16 258.88 395.04 257.92 395.6C257.04 396.16 254.08 397.28 251.36 398C248.64 398.8 246.4 399.68 246.4 399.92C246.4 400.24 243.76 401.12 240.64 402C237.44 402.8 234.48 403.68 234 404.08C233.6 404.4 230 405.28 226 406.08C222.08 406.8 218.64 407.76 218.4 408.08C218.16 408.4 213.36 409.28 207.6 410C201.92 410.72 196.32 411.76 195.28 412.24C192.4 413.68 142.24 413.6 141.84 412.16C141.6 411.68 140.4 411.2 139.04 411.2C135.6 411.2 121.36 408.72 120.4 408C120 407.6 116.64 406.72 113.04 405.92C109.36 405.2 106.4 404.24 106.4 404C106.4 403.68 104.72 402.96 102.64 402.32C98.9601 401.36 82.4801 393.2 81.6001 392C81.3601 391.76 79.9201 390.8 78.4001 389.92C76.8801 389.12 75.1201 387.76 74.5601 386.96C74.0001 386.24 73.1201 385.6 72.7201 385.6C72.2401 385.6 68.7201 382.24 64.7201 378.16C56.0801 369.2 55.7601 368.88 53.9201 365.52C53.0401 364 52.1601 362.64 51.8401 362.4C51.6001 362.16 50.7201 360.4 49.9201 358.4C49.1201 356.4 48.0801 354.4 47.6001 353.84C47.0401 353.36 46.1601 350.64 45.6001 347.84C45.0401 345.04 44.1601 342.56 43.6801 342.24C42.5601 341.44 42.4801 315.36 43.6801 314.56C44.0801 314.24 44.9601 311.68 45.5201 308.8C46.0801 305.92 47.2001 302.16 48.0001 300.4C48.7201 298.64 49.8401 295.84 50.4801 294.16C51.0401 292.56 51.7601 291.2 52.0801 291.2C52.4001 291.2 53.2801 289.36 54.0801 287.2C54.8801 284.96 55.7601 283.2 56.1601 283.2C56.4801 283.2 57.3601 282 58.0801 280.56C58.8001 279.2 59.6801 277.84 60.0001 277.6C60.2401 277.36 61.2001 275.92 62.0801 274.4C62.8801 272.88 64.4001 270.96 65.3601 270.16C66.4001 269.36 67.2001 268.4 67.2001 268C67.2001 267.6 68.7201 265.68 70.5601 263.76C72.4801 261.84 75.1201 259.04 76.5601 257.52C81.1201 252.64 93.6001 241.6 94.5601 241.6C94.8001 241.6 95.6001 241.12 96.1601 240.56C98.1601 238.72 103.92 234.4 104.4 234.4C104.8 234.4 111.68 230 114 228.24C114.48 227.84 116.24 226.88 118 226C119.76 225.12 121.36 224.24 121.6 224C122.48 223.04 142.08 213.68 144.24 213.12C145.44 212.88 146.4 212.4 146.4 212C146.4 211.68 147.92 210.96 149.84 210.48C151.68 209.92 154.64 208.8 156.4 208C158.16 207.2 161.68 206.08 164.24 205.6C166.72 205.04 168.8 204.32 168.8 204C168.8 203.68 171.92 202.72 175.84 201.92C179.68 201.12 182.96 200.24 183.2 200C183.44 199.76 188.08 198.88 193.6 198.08C199.12 197.28 204.32 196.32 205.2 195.92C206.72 195.2 221.2 193.92 230.48 193.68C232.96 193.68 242.48 194 251.68 194.48ZM282.4 255.92C282.64 256.24 285.84 257.12 289.6 257.92C293.36 258.72 296.56 259.6 296.8 259.92C297.04 260.24 299.2 261.2 301.6 262.16C305.36 263.52 306.08 264.16 306.72 266.48C307.2 268 307.92 269.44 308.32 269.76C309.6 270.56 309.36 288.24 308.16 288.64C307.6 288.8 307.2 289.52 307.2 290.16C307.2 292.32 304.48 300.32 303.2 301.76C302.16 303.12 301.92 303.04 299.84 300.56C298.64 299.2 297.6 297.76 297.6 297.52C297.6 297.28 296.72 296 295.6 294.72C294.48 293.44 293.6 292.16 293.6 291.84C293.6 291.52 292.56 289.68 291.2 287.76C289.92 285.76 288.8 283.84 288.8 283.36C288.8 282.88 288.48 282.4 288.16 282.24C287.52 282 284.4 276.72 281.76 271.6C281.04 270.24 280.32 269.04 280 268.8C279.68 268.56 278.8 266.72 278 264.56C277.2 262.48 276.32 260.8 276.08 260.8C275.52 260.8 273.6 256.08 273.6 254.88C273.6 254.16 281.84 255.12 282.4 255.92ZM192.08 264.56C192.8 266.24 193.68 268.88 194 270.4C194.32 271.92 195.28 274.48 196.08 276C196.96 277.52 197.6 279.2 197.6 279.76C197.6 280.72 199.12 284.32 204 294.8C205.2 297.44 206.4 300.4 206.72 301.36C207.04 302.4 207.6 303.2 207.92 303.2C208.24 303.2 208.96 304.48 209.52 306.08C210.08 307.68 211.44 310.24 212.48 311.76C213.52 313.36 214.4 315.12 214.4 315.68C214.4 316.24 214.88 317.2 215.52 317.76C216.08 318.4 217.36 320.32 218.32 322.08C221.12 327.12 223.36 330.8 224 331.2C224.32 331.44 225.2 332.88 226 334.4C226.8 335.84 227.92 337.6 228.48 338.24C229.12 338.8 229.6 339.52 229.6 339.84C229.6 340.16 230.48 341.44 231.6 342.72C232.72 344 233.6 345.28 233.6 345.6C233.6 345.84 234.24 346.8 235.04 347.68C235.84 348.56 237.2 350.24 237.92 351.44C239.36 353.52 239.28 353.6 237.92 354.08C237.04 354.4 234.96 355.28 233.2 356C231.44 356.8 227.92 357.92 225.44 358.48C222.88 359.12 220.8 359.84 220.8 360.08C220.8 360.4 217.28 361.28 213.04 362C208.72 362.8 204.88 363.68 204.4 364C202.8 365.2 186.48 366.56 173.6 366.64C161.04 366.64 146.16 365.28 144.4 364.08C144 363.76 140.64 362.8 137.04 362C133.36 361.2 130.4 360.32 130.4 360C130.4 359.68 128.72 358.96 126.72 358.4C124.72 357.84 122.64 356.96 122.16 356.48C121.6 356 119.76 354.88 118 354C116.24 353.12 114.48 352 114.16 351.44C113.84 350.88 113.04 350.4 112.48 350.4C111.92 350.4 110.72 349.52 109.76 348.4C108.8 347.28 107.68 346.4 107.36 346.4C106.16 346.4 99.0401 336.8 96.1601 331.28C93.0401 325.28 92.9601 320.88 96.0001 317.04C102 309.36 112.24 300 123.2 292C125.6 290.24 128 288.4 128.56 288C129.12 287.6 130.8 286.64 132.32 285.84C133.92 285.12 135.2 284.24 135.2 283.92C135.2 283.6 136.72 282.8 138.56 282C140.48 281.28 142.16 280.4 142.4 280.08C142.88 279.44 154 274.08 156.64 273.28C157.6 272.96 158.4 272.4 158.4 272.16C158.4 271.84 160.08 271.04 162.24 270.48C164.32 269.92 166.8 268.96 167.68 268.32C168.64 267.76 171.68 266.72 174.48 266C177.28 265.28 180 264.32 180.48 263.92C181.44 263.2 186.64 261.84 189.2 261.68C190.32 261.6 191.2 262.48 192.08 264.56ZM327.68 281.36C328.64 282.56 329.84 285.04 330.4 286.8C330.96 288.56 331.84 290.48 332.32 291.12C333.52 292.64 333.52 308.64 332.32 309.44C331.84 309.76 331.2 311.04 330.88 312.4C330.08 315.76 324.8 326.4 323.92 326.4C323.52 326.4 323.2 326.96 323.2 327.6C323.2 328.32 322.08 327.68 320.48 325.84C318.96 324.16 316.08 321.04 314.08 318.88C312.08 316.72 310.4 314.8 310.4 314.72C310.4 314.64 310.88 314 311.52 313.36C313.2 311.68 318.24 300.64 318.88 297.12C319.2 295.36 319.84 293.76 320.24 293.44C320.72 293.2 321.28 288.72 321.44 283.52L321.84 274.08L323.92 276.64C325.04 278 326.72 280.16 327.68 281.36ZM86.4801 340.8C86.9601 342.08 87.6801 343.2 88.0801 343.2C88.4801 343.2 88.8001 343.6 88.8001 344.08C88.8001 345.84 96.8001 354.88 102.08 359.2C105.52 362 111.2 365.52 113.92 366.48C115.52 367.04 116.8 367.76 116.8 368.08C116.8 368.48 118.8 369.36 121.2 370.08C123.6 370.88 125.6 371.76 125.6 372C125.6 372.32 128.4 373.2 131.84 373.92C135.2 374.72 138.72 375.68 139.6 376C148.16 379.76 200.24 379.76 209.2 376C210.08 375.68 214.08 374.72 218 373.92C222 373.2 225.36 372.32 225.6 372C225.84 371.76 228.56 370.8 231.6 370C234.72 369.2 237.36 368.32 237.6 368.08C237.84 367.76 240.08 366.96 242.56 366.16C245.12 365.36 247.36 364.32 247.68 363.84C248 363.28 248.56 363.6 249.2 364.72C249.68 365.68 252.16 368.64 254.8 371.2L259.44 376L256.56 377.2C254.96 377.84 253.2 378.4 252.64 378.4C252 378.4 250.88 378.88 250 379.52C249.12 380.08 246.24 381.2 243.6 382C240.96 382.72 238.48 383.6 238 383.92C237.6 384.32 234.48 385.2 231.2 386.08C227.92 386.88 225.04 387.76 224.8 388.08C224.56 388.32 220.96 389.2 216.8 389.92C212.64 390.72 208.48 391.68 207.6 392.08C205.12 393.12 185.28 395.2 177.04 395.2C172.64 395.2 169.6 395.52 169.6 396C169.6 396.4 168.88 396.8 168 396.8C167.12 396.8 166.4 396.48 166.4 396.08C166.4 395.76 161.28 395.2 155.04 394.96C143.68 394.56 131.2 393.04 130.4 392.08C130.16 391.76 127.2 390.88 123.84 390.08C120.4 389.2 117.6 388.24 117.6 388C117.6 387.68 115.92 386.96 113.92 386.4C111.92 385.84 109.84 384.96 109.36 384.48C108.8 383.92 107.04 382.88 105.36 382.08C101.76 380.4 100.8 379.68 94.4001 373.44C91.8401 370.88 89.5201 368.16 89.2001 367.2C88.9601 366.32 88.4001 365.6 88.0001 365.6C87.6001 365.6 86.7201 363.68 86.0001 361.36C85.2001 359.12 84.3201 356.88 83.9201 356.4C82.8801 355.36 83.0401 341.6 84.0001 341.6C84.4801 341.6 84.8001 340.88 84.8001 340C84.8001 337.68 85.5201 338 86.4801 340.8Z" fill="#465841"/>
<path d="M128.96 74.4C126.64 74.72 124.32 75.36 123.76 75.84C123.28 76.24 121.52 77.04 119.92 77.52C115.68 78.88 108.4 85.2 105.84 89.76C105.04 91.2 104 92.8 103.44 93.36C102.96 93.92 102.08 96.48 101.6 98.96C101.04 101.52 100.32 104.24 99.9201 104.96C99.5201 105.76 99.2001 107.28 99.2001 108.32C99.2001 110.4 97.5201 111.2 93.2001 111.2C91.8401 111.2 90.4001 111.52 90.0001 111.84C89.5201 112.24 87.6001 112.96 85.6801 113.52C83.6801 114.08 80.9601 115.44 79.6001 116.48C78.1601 117.52 76.6401 118.4 76.2401 118.4C75.7601 118.4 74.7201 119.36 73.9201 120.56C73.2001 121.76 71.8401 123.44 71.0401 124.32C70.2401 125.2 69.6001 126.16 69.6001 126.48C69.6001 126.8 69.1201 127.6 68.4801 128.24C67.0401 129.68 64.8001 134.88 64.8001 136.8C64.8001 137.6 64.4001 138.4 63.8401 138.56C62.6401 138.96 62.4801 156.16 63.6801 157.68C64.1601 158.32 65.0401 160.56 65.6801 162.72C66.3201 164.88 67.2801 166.8 67.8401 166.96C68.3201 167.2 68.8001 167.84 68.8001 168.32C68.8001 171.84 80.1601 180.56 87.2001 182.4C89.2001 182.96 91.2801 183.76 91.9201 184.24C93.5201 185.6 133.44 185.6 136.08 184.24C137.12 183.76 142.32 182.72 147.6 182C152.88 181.28 157.36 180.32 157.44 179.92C157.6 179.52 158.56 179.2 159.52 179.2C163.52 179.2 166.24 177.6 166.88 174.96C167.12 173.52 167.68 172 168 171.6C168.4 171.12 169.28 166.8 170 162C170.72 157.12 171.68 152.48 172.08 151.6C173.04 149.28 174.4 132.96 174.4 122.64C174.4 113.6 173.12 101.52 172.08 100.8C171.76 100.56 171.04 98.8 170.48 96.8C168.96 91.28 164.56 85.44 158.16 80.32C156.32 78.8 152.16 76.8 150.88 76.8C150.24 76.8 149.6 76.48 149.44 76C149.2 75.2 139.52 73.6 135.6 73.68C134.32 73.76 131.28 74.08 128.96 74.4ZM147.6 89.12C151.12 91.04 152.48 92.24 156.08 96.64C156.56 97.2 157.44 99.36 158.16 101.44C158.8 103.52 159.76 106.08 160.24 107.12C161.52 109.76 161.6 143.84 160.24 146.48C159.76 147.52 158.72 152.32 158 157.2C156.56 166.8 156.4 167.2 154.8 167.2C154.24 167.2 153.6 167.52 153.44 167.92C153.36 168.32 148.56 169.28 142.8 170C137.12 170.8 131.6 171.76 130.56 172.24C128 173.44 100.64 173.52 99.1201 172.32C98.4801 171.84 96.5601 171.2 94.8001 170.88C91.2001 170.24 87.3601 168.88 85.7601 167.6C80.7201 163.76 76.8001 158.48 76.8001 155.6C76.8001 154.96 76.4801 154.4 76.0001 154.4C75.5201 154.4 75.2001 151.76 75.2001 148C75.2001 144.48 75.4401 141.6 75.8401 141.6C76.1601 141.6 76.8801 140.08 77.4401 138.24C78.8801 133.68 85.6801 126.88 90.2401 125.44C92.0801 124.88 93.6001 124.16 93.6001 123.84C93.6001 123.44 97.2001 123.2 101.6 123.2C108.72 123.2 109.68 123.04 111.2 121.44C112.88 119.6 113.52 113.6 112 113.6C111.6 113.6 111.2 112.56 111.2 111.28C111.2 109.92 111.6 108.64 112 108.4C112.48 108.16 112.8 107.04 112.8 106.08C112.8 100.56 119.28 91.92 125.6 88.96C130.64 86.64 131.52 86.48 137.6 86.72C142.24 86.96 144.48 87.52 147.6 89.12Z" fill="#465841"/>
<path d="M24.16 270.24C22.32 270.8 21.28 272.24 18.32 278.4C17.36 280.4 16.32 282.16 16 282.4C15.68 282.64 14.8 284.56 14 286.8C13.2 288.96 12.08 291.52 11.52 292.4C11.04 293.28 10.16 295.76 9.6 298C9.04 300.16 8.24 302.4 7.84 302.96C7.44 303.44 7.04 305.6 6.96 307.6C6.8 310.64 7.12 311.6 8.72 312.88C10.72 314.56 14.4 314.88 16.8 313.6C17.68 313.12 18.56 311.52 18.88 310C19.12 308.48 19.6 307.2 19.92 307.2C20.24 307.2 20.96 305.28 21.52 302.96C22.16 300.72 23.6 296.56 24.88 293.84C26.16 291.12 27.2 288.56 27.2 288.08C27.2 287.68 27.52 287.2 27.84 287.04C28.96 286.56 32.8 277.84 32.8 275.68C32.8 271.76 28.48 269.04 24.16 270.24Z" fill="#465841"/>
<path d="M492.64 276.88C491.6 278 491.2 279.76 491.2 283.12C491.2 285.76 491.52 288.08 491.92 288.32C493.28 289.2 494.8 309.52 494.8 327.2C494.8 343.84 493.36 363.84 492.08 364.8C491.76 365.04 490.88 368.72 490 372.96C489.2 377.28 488.24 380.8 487.84 380.8C486.64 380.8 487.2 383.2 489.04 386C490.56 388.4 491.2 388.8 494 388.72C498.48 388.72 500.24 386.16 501.92 377.6C502.72 373.84 503.6 370.08 504 369.2C506.88 362.72 508.16 320.32 506 298.4C505.28 290.72 504.4 284.08 503.92 283.6C503.52 283.2 503.2 281.92 503.2 280.8C503.2 279.6 502.56 277.84 501.68 276.96C499.76 274.72 494.64 274.64 492.64 276.88Z" fill="#465841"/>
<path d="M6.08005 338.08C5.20005 338.88 4.80005 340.8 4.80005 343.84C4.80005 349.2 7.04005 362.4 8.00005 362.4C8.32005 362.4 8.88005 363.76 9.20005 365.36C9.68005 368.24 14.96 379.92 16.08 380.8C16.32 381.04 17.2 382.48 18 384C18.8 385.44 19.92 387.2 20.4801 387.84C21.1201 388.4 22 389.68 22.48 390.56C23.6 392.72 24.6401 393.84 33.4401 402.56C42.1601 411.36 43.1201 412.16 46.1601 414.16C47.3601 414.96 49.1201 416.24 49.9201 416.96C50.8001 417.76 52.1601 418.56 52.9601 418.88C53.7601 419.12 54.4001 419.6 54.4001 419.84C54.4001 420.16 56.0001 421.12 58.0001 422C60.0001 422.88 61.6001 423.84 61.6001 424.08C61.6001 424.32 63.1201 425.2 65.0401 426.08C66.8801 426.88 68.8001 428 69.3601 428.48C69.9201 428.96 71.9201 429.92 73.9201 430.48C76.0001 431.04 77.6001 431.76 77.6001 432.08C77.6001 432.4 79.9201 433.28 82.8001 434C85.6801 434.8 88.2401 435.76 88.4801 436.16C88.7201 436.48 90.1601 436.8 91.7601 436.8C94.8801 436.8 98.4001 433.92 98.4001 431.36C98.3201 426.96 95.2801 424.4 87.2001 422C86.0801 421.68 83.2801 420.56 80.9601 419.52C78.6401 418.48 76.4001 417.6 76.0001 417.6C75.6001 417.6 74.8001 417.12 74.2401 416.56C73.6801 416 71.6801 414.88 69.84 414.08C67.9201 413.2 66.4001 412.32 66.4001 412C66.4001 411.68 64.9601 410.8 63.2001 410C61.4401 409.2 59.4401 407.92 58.7201 407.12C57.9201 406.24 56.8801 405.6 56.3201 405.6C55.7601 405.6 54.8801 404.88 54.4001 404C53.9201 403.12 53.2001 402.4 52.7201 402.4C51.9201 402.4 48.2401 399.2 42.4801 393.52C41.3601 392.4 38.9601 389.76 37.2001 387.68C35.4401 385.6 33.4401 383.28 32.8001 382.48C32.1601 381.76 30.8801 379.84 30.0801 378.32C29.2001 376.8 28.3201 375.44 28 375.2C26.8801 374.32 23.2801 367.04 21.92 363.04C21.2001 360.72 20.3201 358.64 20 358.4C19.6 358.16 18.72 354 17.92 349.2C16.24 338.88 14.96 336.8 10.32 336.8C8.64005 336.8 6.72005 337.36 6.08005 338.08Z" fill="#465841"/>
<path d="M478.08 406C476.48 407.52 474.64 410 473.92 411.44C473.2 412.8 472.32 414.16 472.08 414.4C471.76 414.64 470.88 415.84 470 417.2C467.92 420.56 460.8 429.04 459.52 429.84C457.68 430.88 458.08 437.76 460 439.44C461.76 440.88 467.2 441.36 467.2 440C467.2 439.52 467.76 439.2 468.4 439.2C469.04 439.2 469.6 438.96 469.6 438.56C469.6 438.24 471.6 435.84 474 433.2C476.4 430.56 478.64 427.76 478.88 427.04C479.12 426.24 479.6 425.6 480 425.6C480.4 425.6 481.52 424.24 482.4 422.56C483.28 420.96 485.12 418 486.4 416C487.76 413.92 488.72 411.28 488.72 409.6C488.8 407.28 488.32 406.48 486 404.96C482.32 402.56 481.36 402.72 478.08 406Z" fill="#465841"/>
</svg>
